<?xml version="1.0" encoding="utf-8"?>
<svg version="1.1" xmlns:xlink="http://www.w3.org/1999/xlink" width="17px" height="17px" xmlns="http://www.w3.org/2000/svg">
  <g transform="matrix(1 0 0 1 -511 -488 )">
    <path d="M 16.9273354162947 8.5  C 16.9273354162947 13.1542615558036  13.1542615558036 16.9273354162947  8.5 16.9273354162947  C 3.8457384441964 16.9273354162947  0.0726645837053184 13.1542615558036  0.0726645837053184 8.5  C 0.0726645837053184 3.84564137723214  3.8457384441964 0.0726645837053468  8.5 0.0726645837053468  C 13.1542615558036 0.0726645837053468  16.9273354162947 3.84564135825892  16.9273354162947 8.5  Z M 9.41675672321435 8.5  L 12.778262765625 5.13843570982144  L 11.8615060424107 4.22171782477679  L 8.5 7.58318502901784  L 5.13849395758928 4.22171782477679  L 4.22173723437504 5.13843570982144  L 7.58324327678565 8.49998059040178  L 4.22171782477676 11.8614672042411  L 5.13847454799111 12.7782821752232  L 8.49998059040183 9.41673729464287  L 11.8615060424107 12.778262765625  L 12.7782627656251 11.8614477946429  L 9.41675672321435 8.5  Z " fill-rule="nonzero" fill="#999999" stroke="none" transform="matrix(1 0 0 1 511 488 )" />
  </g>
</svg>