<?xml version="1.0" encoding="utf-8"?>
<svg version="1.1" xmlns:xlink="http://www.w3.org/1999/xlink" width="16px" height="15px" xmlns="http://www.w3.org/2000/svg">
  <g transform="matrix(1 0 0 1 -45 -45 )">
    <path d="M 15.8764705882353 7.482421875  C 15.8705882352941 6.7001953125  15.8147058823529 6.3896484375  15.8147058823529 6.3896484375  C 15.7529411764706 6.046875  15.4235294117647 5.6982421875  15.0823529411765 5.6220703125  L 14.8264705882353 5.5634765625  C 14.2058823529412 5.3759765625  13.6794117647059 4.9599609375  13.3558823529412 4.3974609375  C 13.0294117647059 3.8291015625  12.9323529411765 3.1611328125  13.0852941176471 2.525390625  L 13.1647058823529 2.28515625  C 13.2676470588235 1.951171875  13.1352941176471 1.4912109375  12.8676470588235 1.2626953125  C 12.8676470588235 1.2626953125  12.6264705882353 1.060546875  11.9529411764706 0.667968750000002  C 11.2764705882353 0.278320312500002  10.9852941176471 0.169921875000002  10.9852941176471 0.169921875000002  C 10.6558823529412 0.0498046875000013  10.1941176470588 0.164062500000002  9.95294117647059 0.421875000000003  L 9.77647058823529 0.612304687500003  C 9.30588235294118 1.060546875  8.68235294117647 1.306640625  8.03235294117647 1.306640625  C 7.37941176470588 1.3095703125  6.75 1.0576171875  6.27941176470588 0.606445312500003  L 6.10882352941176 0.421875000000003  C 5.87058823529412 0.164062500000002  5.40588235294118 0.052734375000002  5.07647058823529 0.169921875000002  C 5.07647058823529 0.169921875000002  4.78235294117647 0.278320312500002  4.10588235294118 0.667968750000002  C 3.42941176470588 1.0634765625  3.19117647058823 1.265625  3.19117647058823 1.265625  C 2.9235294117647 1.4912109375  2.79117647058823 1.9482421875  2.89411764705882 2.28515625  L 2.96764705882353 2.5283203125  C 3.12058823529412 3.1640625  3.0235294117647 3.83203125  2.69705882352941 4.3974609375  C 2.3735294117647 4.962890625  1.84117647058823 5.3818359375  1.21470588235294 5.56640625  L 0.967647058823529 5.6220703125  C 0.629411764705882 5.701171875  0.297058823529411 6.0439453125  0.235294117647058 6.3896484375  C 0.235294117647058 6.3896484375  0.179411764705881 6.697265625  0.179411764705881 7.482421875  C 0.179411764705881 8.267578125  0.235294117647058 8.5751953125  0.235294117647058 8.5751953125  C 0.297058823529411 8.9208984375  0.626470588235293 9.2666015625  0.967647058823529 9.3427734375  L 1.20882352941176 9.3984375  C 1.83823529411765 9.5830078125  2.37058823529412 10.0048828125  2.69117647058823 10.5703125  C 3.02941176470588 11.1591796875  3.10882352941176 11.830078125  2.96176470588235 12.4423828125  L 2.89117647058823 12.6796875  C 2.78823529411765 13.013671875  2.92058823529412 13.4736328125  3.18823529411765 13.7021484375  C 3.18823529411765 13.7021484375  3.42941176470588 13.904296875  4.10294117647059 14.296875  C 4.77941176470588 14.6865234375  5.07352941176471 14.794921875  5.07352941176471 14.794921875  C 5.40294117647059 14.9150390625  5.86470588235294 14.80078125  6.10588235294118 14.54296875  L 6.27352941176471 14.361328125  C 7.25588235294118 13.4267578125  8.80294117647059 13.4267578125  9.78235294117647 14.3642578125  L 9.95 14.5458984375  C 10.1882352941176 14.80078125  10.65 14.9150390625  10.9823529411765 14.794921875  C 10.9823529411765 14.794921875  11.2764705882353 14.6865234375  11.9558823529412 14.296875  C 12.6323529411765 13.9072265625  12.8705882352941 13.7021484375  12.8705882352941 13.7021484375  C 13.1382352941177 13.4765625  13.2705882352941 13.0166015625  13.1676470588235 12.6796875  L 13.0941176470588 12.43359375  C 12.9411764705882 11.80078125  13.0382352941177 11.1357421875  13.3647058823529 10.5703125  C 13.6882352941177 10.0048828125  14.2205882352941 9.5830078125  14.8470588235294 9.3984375  L 15.0882352941177 9.3427734375  C 15.4264705882353 9.263671875  15.7588235294118 8.9208984375  15.8205882352941 8.5751953125  C 15.8205882352941 8.5751953125  15.8764705882353 8.267578125  15.8764705882353 7.482421875  Z M 11.1558823529412 7.4853515625  C 11.1529411764706 9.216796875  9.75294117647059 10.6201171875  8.02647058823529 10.623046875  C 6.3 10.623046875  4.89411764705882 9.2197265625  4.89411764705882 7.482421875  C 4.89117647058823 6.6533203125  5.22058823529412 5.8564453125  5.80882352941176 5.267578125  C 6.39705882352941 4.6787109375  7.19411764705882 4.34765625  8.02647058823529 4.34765625  C 9.75294117647059 4.34765625  11.1558823529412 5.7509765625  11.1558823529412 7.4853515625  Z " fill-rule="nonzero" fill="#ffffff" stroke="none" transform="matrix(1 0 0 1 45 45 )" />
  </g>
</svg>