<?xml version="1.0" encoding="utf-8"?>
<svg version="1.1" xmlns:xlink="http://www.w3.org/1999/xlink" width="40px" height="40px" xmlns="http://www.w3.org/2000/svg">
  <g transform="matrix(1 0 0 1 -1102 -416 )">
    <path d="M 39.6457112630208 19.9838460286458  C 39.6457112630208 9.1297607421875  30.8465983072917 0.3306884765625  19.9925537109375 0.3306884765625  C 9.13846842447917 0.3306884765625  0.33935546875 9.1297607421875  0.33935546875 19.9838460286458  C 0.33935546875 30.8379313151042  9.138427734375 39.6370035807292  19.9925537109375 39.6370035807292  C 30.8466796875 39.6370035807292  39.6457112630208 30.8379313151042  39.6457112630208 19.9838460286458  Z M 36.8873697916667 19.9838460286458  C 36.8873697916667 29.3146158854167  29.3233235677083 36.8786214192708  19.9925537109375 36.8786214192708  C 10.6617838541667 36.8786214192708  3.09769694010417 29.3146158854167  3.09769694010417 19.9838053385417  C 3.09769694010417 10.6529947916667  10.6617838541667 3.0889892578125  19.9925537109375 3.0889892578125  C 29.3233235677083 3.0889892578125  36.8873697916667 10.653076171875  36.8873697916667 19.9838460286458  Z M 17.5790201822917 19.6390380859375  C 17.5790201822917 21.1624280153922  18.8139717241911 22.3973795572917  20.3373616536458 22.3973795572917  C 21.8607515831006 22.3973795572917  23.095703125 21.1624280153922  23.095703125 19.6390380859375  C 23.095703125 18.1156481564828  21.8607515831006 16.8806966145833  20.3373616536458 16.8806966145833  C 18.8139717241911 16.8806966145833  17.5790201822917 18.1156481564828  17.5790201822917 19.6390380859375  Z M 9.30399576822917 19.6390380859375  C 9.30399576822917 21.1624280153922  10.5389473101286 22.3973795572917  12.0623372395833 22.3973795572917  C 13.5857271690381 22.3973795572917  14.8206787109375 21.1624280153922  14.8206787109375 19.6390380859375  C 14.8206787109375 18.1156481564828  13.5857271690381 16.8806966145833  12.0623372395833 16.8806966145833  C 10.5389473101286 16.8806966145833  9.30399576822917 18.1156481564828  9.30399576822917 19.6390380859375  Z M 25.85400390625 19.6390380859375  C 25.85400390625 21.1624392516542  27.0889645569395 22.3973999023438  28.6123657226563 22.3973999023438  C 30.135766888373 22.3973999023438  31.3707275390625 21.1624392516542  31.3707275390625 19.6390380859375  C 31.3707275390625 18.1156481564828  30.1357759971631 16.8806966145833  28.6123860677083 16.8806966145833  C 27.0889961382536 16.8806966145833  25.8540445963542 18.1156481564828  25.8540445963542 19.6390380859375  Z " fill-rule="nonzero" fill="#000000" stroke="none" fill-opacity="0.6" transform="matrix(1 0 0 1 1102 416 )" />
  </g>
</svg>