<?xml version="1.0" encoding="utf-8"?>
<svg version="1.1" xmlns:xlink="http://www.w3.org/1999/xlink" width="40px" height="40px" xmlns="http://www.w3.org/2000/svg">
  <g transform="matrix(1 0 0 1 -1152 -416 )">
    <path d="M 40 20  C 40 31.0456949966159  31.0456949966159 40  20 40  C 8.95430500338413 40  0 31.0456949966159  0 20  C 0 8.95430500338413  8.95430500338413 0  20 0  C 31.0456949966159 0  40 8.95430500338413  40 20  Z M 38.75 20  C 38.75 9.64466094067263  30.3553390593274 1.25  20 1.25  C 9.64466094067262 1.25  1.25 9.64466094067262  1.25 20  C 1.25 30.3553390593274  9.64466094067262 38.75  20 38.75  C 30.3553390593274 38.75  38.75 30.3553390593274  38.75 20  Z M 27.5 25.625  C 27.5 26.3153559372885  26.9403559372885 26.875  26.25 26.875  L 13.75 26.875  C 13.0596440627115 26.875  12.5 26.3153559372885  12.5 25.625  L 10 18.75  C 10 18.0596440627115  10.5596440627115 17.5  11.25 17.5  L 11.25 14.375  C 11.25 13.6846440627115  11.8096440627115 13.125  12.5 13.125  L 18.125 13.125  C 18.8153559372885 13.125  19.375 13.6846440627115  19.375 14.375  L 19.375 15  L 27.5 15  C 28.1903559372885 15  28.75 15.5596440627115  28.75 16.25  L 28.75 17.5  C 29.4403559372885 17.5  30 18.0596440627115  30 18.75  L 27.5 25.625  Z M 27.5 18  L 27.5 16.25  L 18.125 16.25  L 18.125 14.375  L 12.5 14.375  L 12.5 18  L 27.5 18  Z M 28.75 18.75  L 27.5 19  L 11.25 19  L 13.75 25  L 26.25 25  L 28.75 18.75  Z " fill-rule="nonzero" fill="#000000" stroke="none" fill-opacity="0.6" transform="matrix(1 0 0 1 1152 416 )" />
  </g>
</svg>