<?xml version="1.0" encoding="utf-8"?>
<svg version="1.1" xmlns:xlink="http://www.w3.org/1999/xlink" width="23px" height="23px" xmlns="http://www.w3.org/2000/svg">
  <g transform="matrix(1 0 0 1 -1077 -349 )">
    <path d="M 22.7950495049503 11.4174504950495  C 22.7950495049503 5.16076732673271  17.7025990099011 0.0654702970296987  11.4430693069307 0.0654702970296987  C 5.1835396039604 0.0654702970296987  0.0910891089107612 5.15792079207916  0.0910891089107612 11.4174504950495  C 0.0910891089107612 17.6798267326732  5.1835396039604 22.7722772277228  11.4430693069307 22.7722772277228  C 17.7025990099011 22.7722772277228  22.7950495049503 17.6798267326732  22.7950495049503 11.4174504950495  Z M 20.0595297029703 11.420297029703  C 20.0595297029703 13.2563118811881  19.4816831683167 14.9613861386139  18.4967821782179 16.3618811881188  C 17.6456683168318 14.8048267326732  16.2935643564356 13.5637376237624  14.6568069306929 12.8464108910891  C 13.7601485148514 13.5153465346534  12.6471534653465 13.9110148514852  11.4430693069307 13.9110148514852  C 10.2389851485148 13.9110148514852  9.1259900990099 13.5153465346534  8.2293316831682 12.8464108910891  C 6.59257425742597 13.5608910891089  5.24047029702975 14.8048267326732  4.38935643564366 16.3618811881188  C 3.40730198019818 14.9613861386139  2.82660891089101 13.2563118811881  2.82660891089101 11.420297029703  C 2.82660891089101 6.66943069306933  6.69220297029708 2.80383663366332  11.4430693069307 2.80383663366332  C 16.1939356435645 2.80383663366332  20.0595297029703 6.66943069306933  20.0595297029703 11.420297029703  Z M 7.02524752475256 8.53106435643563  C 7.02524752475256 10.970959954203  9.00317370916338 12.9488861386139  11.4430693069307 12.9488861386139  C 13.8829649046979 12.9488861386139  15.860891089109 10.970959954203  15.860891089109 8.53106435643563  C 15.860891089109 6.0911687586683  13.8829649046979 4.11324257425741  11.4430693069307 4.11324257425741  C 9.00317370916338 4.11324257425741  7.02524752475256 6.0911687586683  7.02524752475256 8.53106435643563  Z " fill-rule="nonzero" fill="#2c8cf0" stroke="none" transform="matrix(1 0 0 1 1077 349 )" />
  </g>
</svg>