<?xml version="1.0" encoding="utf-8"?>
<svg version="1.1" xmlns:xlink="http://www.w3.org/1999/xlink" width="23px" height="23px" xmlns="http://www.w3.org/2000/svg">
  <g transform="matrix(1 0 0 1 -1077 -421 )">
    <path d="M 16.4182110644531 10.7331617617188  C 16.4182340419922 10.7016573095703  16.3926811767577 10.6761044443359  16.3611537470703 10.6761044443359  L 9.03097888476553 10.6761044443359  L 8.21016254394533 10.6761044443359  L 6.62563313476563 10.6761044443359  C 6.59410570507822 10.6761044443359  6.56855283984377 10.7016572871094  6.56855283984377 10.7331847392578  L 6.56855283984377 16.364646625  C 6.56855283984377 16.3961740546875  6.59410568261711 16.4217269199219  6.62563313476563 16.4217269199219  L 16.3611307695313 16.4217269199219  C 16.3926581992187 16.4217269199219  16.4182110644531 16.3961740771484  16.4182110644531 16.364646625  L 16.4182110644531 10.7331617617188  Z M 11.8567517421874 13.2890441064453  L 11.8567517421874 14.7274489228516  C 11.8567517421874 14.9260579882813  11.6957596035157 15.087004171875  11.4971735156249 15.087004171875  C 11.2985644501953 15.087004171875  11.1375723115234 14.9260579882813  11.1375723115234 14.7274489228516  L 11.1375723115234 13.2890441064453  C 11.1375723115234 13.0904809960937  11.2985644501953 12.9294658798828  11.4971735156249 12.9294658798828  C 11.6957596035157 12.9294658798828  11.8567517421874 13.0904580185547  11.8567517421874 13.2890441064453  Z M 22.9968977626954 11.4968978076172  C 22.9968977626954 5.14733650292971  17.8495612597657 0  11.499999955078 0  C 5.15043865039062 0  0.00310214746085339 5.14733650292971  0.00310214746085339 11.4968978076172  C 0.00310214746085339 17.8464591123047  5.15043865039062 22.9937956152344  11.499999955078 22.9937956152344  C 17.8495612597657 22.9937956152344  22.9968977626954 17.8464591123047  22.9968977626954 11.4968978076172  Z M 17.2390274052735 10.1881645205078  L 17.2390274052735 16.909689821289  C 17.2390274052735 17.0935232734375  17.0900074179689 17.2425432607422  16.9061739658203 17  L 6.08061291601569 17  C 5.89677946386709 17.2425432607422  5.74775947656241 17.0935232734375  5.74775947656241 16.909689821289  L 5.74775947656241 10.1881415429688  C 5.74775947656241 10.0043080908203  5.89677946386709 9.85528810351561  6.08061291601569 9.85528810351561  L 8.2101855214844 9.85528810351561  L 8.2101855214844 8.35141560644531  C 8.2101855214844 6.91540063378904  9.3743108232423 5.75127533203126  10.8103257958984 5.75127533203126  L 12.1764610859376 5.75127533203126  C 13.5662879033203 5.75127533203126  14.701367529297 6.84170641015628  14.7729706396483 8.21370137695313  L 13.9555552216798 8.21370137695313  C 13.9449618125001 7.30526541308591  13.2053768896485 6.57209167285157  12.2944361943359 6.57209167285157  L 10.6923277099609 6.57209167285157  C 9.77479198925791 6.57209167285157  9.03097888476553 7.31590477734372  9.03097888476553 8.23344049804686  L 9.03097888476553 9.85531108105468  L 16.9061739658203 9.85531108105468  C 17.0900074179689 9.85531108105468  17.2390274052735 10.0043310683594  17.2390274052735 10.1881645205078  Z " fill-rule="nonzero" fill="#2c8cf0" stroke="none" transform="matrix(1 0 0 1 1077 421 )" />
  </g>
</svg>