<?xml version="1.0" encoding="utf-8"?>
<svg version="1.1" xmlns:xlink="http://www.w3.org/1999/xlink" width="237px" height="51px" xmlns="http://www.w3.org/2000/svg">
  <g transform="matrix(1 0 0 1 -672 -450 )">
    <path d="M 672.5 453  A 2.5 2.5 0 0 1 675 450.5 L 906 450.5  A 2.5 2.5 0 0 1 908.5 453 L 908.5 498  A 2.5 2.5 0 0 1 906 500.5 L 675 500.5  A 2.5 2.5 0 0 1 672.5 498 L 672.5 453  Z " fill-rule="nonzero" fill="#ffffff" stroke="none" />
    <path d="M 672.5 453  A 2.5 2.5 0 0 1 675 450.5 L 906 450.5  A 2.5 2.5 0 0 1 908.5 453 L 908.5 498  A 2.5 2.5 0 0 1 906 500.5 L 675 500.5  A 2.5 2.5 0 0 1 672.5 498 L 672.5 453  Z " stroke-width="1" stroke="#0079fe" fill="none" />
  </g>
</svg>