<?xml version="1.0" encoding="utf-8"?>
<svg version="1.1" xmlns:xlink="http://www.w3.org/1999/xlink" width="243px" height="57px" xmlns="http://www.w3.org/2000/svg">
  <defs>
    <filter x="669px" y="447px" width="243px" height="57px" filterUnits="userSpaceOnUse" id="filter8">
      <feOffset dx="0" dy="0" in="SourceAlpha" result="shadowOffsetInner" />
      <feGaussianBlur stdDeviation="1.5" in="shadowOffsetInner" result="shadowGaussian" />
      <feComposite in2="shadowGaussian" operator="atop" in="SourceAlpha" result="shadowComposite" />
      <feColorMatrix type="matrix" values="0 0 0 0 0  0 0 0 0 0.474509803921569  0 0 0 0 0.996078431372549  0 0 0 0.8 0  " in="shadowComposite" />
    </filter>
    <g id="widget9">
      <path d="M 672.5 453  A 2.5 2.5 0 0 1 675 450.5 L 906 450.5  A 2.5 2.5 0 0 1 908.5 453 L 908.5 498  A 2.5 2.5 0 0 1 906 500.5 L 675 500.5  A 2.5 2.5 0 0 1 672.5 498 L 672.5 453  Z " fill-rule="nonzero" fill="#ffffff" stroke="none" />
      <path d="M 672.5 453  A 2.5 2.5 0 0 1 675 450.5 L 906 450.5  A 2.5 2.5 0 0 1 908.5 453 L 908.5 498  A 2.5 2.5 0 0 1 906 500.5 L 675 500.5  A 2.5 2.5 0 0 1 672.5 498 L 672.5 453  Z " stroke-width="1" stroke="#0079fe" fill="none" />
    </g>
  </defs>
  <g transform="matrix(1 0 0 1 -669 -447 )">
    <use xlink:href="#widget9" filter="url(#filter8)" />
    <use xlink:href="#widget9" />
  </g>
</svg>