<?xml version="1.0" encoding="utf-8"?>
<svg version="1.1" xmlns:xlink="http://www.w3.org/1999/xlink" width="50px" height="22px" xmlns="http://www.w3.org/2000/svg">
  <g transform="matrix(1 0 0 1 -889 0 )">
    <path d="M 890 3  A 2 2 0 0 1 892 1 L 936 1  A 2 2 0 0 1 938 3 L 938 19  A 2 2 0 0 1 936 21 L 892 21  A 2 2 0 0 1 890 19 L 890 3  Z " fill-rule="nonzero" fill="#ffffff" stroke="none" />
    <path d="M 889.5 3  A 2.5 2.5 0 0 1 892 0.5 L 936 0.5  A 2.5 2.5 0 0 1 938.5 3 L 938.5 19  A 2.5 2.5 0 0 1 936 21.5 L 892 21.5  A 2.5 2.5 0 0 1 889.5 19 L 889.5 3  Z " stroke-width="1" stroke-dasharray="3,1" stroke="#797979" fill="none" stroke-opacity="0.466666666666667" stroke-dashoffset="0.5" />
  </g>
</svg>