<?xml version="1.0" encoding="utf-8"?>
<svg version="1.1" xmlns:xlink="http://www.w3.org/1999/xlink" width="12px" height="10px" xmlns="http://www.w3.org/2000/svg">
  <g transform="matrix(1 0 0 1 -895 -6 )">
    <path d="M 5.0625 8.1875  L 5.6625 8.6375  L 5.6625 5.6375  C 5.6625 5.4875  5.8125 5.3375  5.9625 5.3375  C 6.1125 5.3375  6.2625 5.4875  6.2625 5.6375  L 6.2625 8.6375  L 6.8625 8.1875  C 7.0125 8.1125  7.1625 8.1125  7.3125 8.2625  C 7.4625 8.4875  7.3875 8.6375  7.2375 8.7125  L 6.1125 9.5375  C 6.1125 9.6125  6.0375 9.6125  5.9625 9.6125  C 5.8875 9.6125  5.8125 9.6125  5.8125 9.5375  L 4.6875 8.7125  C 4.5375 8.6375  4.5375 8.4125  4.6125 8.2625  C 4.6875 8.1125  4.9125 8.1125  5.0625 8.1875  Z M 4.7625 7.5125  C 4.1625 8.1125  3.6375 8.1875  3.2625 8.1875  L 3.0375 8.1875  C 1.6875 8.1875  0.6375 6.9875  0.6375 5.5625  C 0.6375 4.0625  1.7625 2.8625  3.1125 2.9375  C 3.5625 1.4375  4.8375 0.3875  6.2625 0.3875  C 7.8375 0.3875  9.1875 1.5875  9.5625 3.3125  C 10.6125 3.5375  11.3625 4.5125  11.3625 5.7125  C 11.3625 7.0625  10.3875 8.1875  9.1875 8.1875  C 8.8125 8.1875  8.0625 8.1875  7.2375 7.5125  C 7.0875 7.3625  7.0875 7.1375  7.2375 7.0625  C 7.3875 6.9125  7.5375 6.9125  7.6875 7.0625  C 8.2875 7.6625  8.8125 7.5875  9.1125 7.5875  L 9.1875 7.5875  C 10.0875 7.5875  10.7625 6.7625  10.7625 5.7125  C 10.7625 4.7375  10.0875 3.9125  9.2625 3.8375  C 9.1125 3.8375  9.0375 3.6875  8.9625 3.6125  C 8.7375 2.1125  7.6125 0.9875  6.2625 0.9875  C 5.0625 0.9875  3.9375 1.9625  3.6375 3.3125  C 3.6375 3.4625  3.4875 3.5375  3.2625 3.5375  L 2.9625 3.5375  C 1.9875 3.5375  1.2375 4.4375  1.2375 5.5625  C 1.2375 6.6875  1.9875 7.5875  2.9625 7.5875  L 3.1125 7.5875  C 3.4125 7.5875  3.7875 7.5875  4.3125 7.0625  C 4.4625 6.9125  4.6125 6.9125  4.7625 7.0625  C 4.9125 7.2125  4.9125 7.3625  4.7625 7.5125  Z " fill-rule="nonzero" fill="#0000ff" stroke="none" fill-opacity="0.490196078431373" transform="matrix(1 0 0 1 895 6 )" />
  </g>
</svg>