<?xml version="1.0" encoding="utf-8"?>
<svg version="1.1" xmlns:xlink="http://www.w3.org/1999/xlink" width="14px" height="12px" xmlns="http://www.w3.org/2000/svg">
  <g transform="matrix(1 0 0 1 -14 -44 )">
    <path d="M 13.1271527871094 1.8276064828125  C 13.1271667871094 1.3356760171875  12.7382444765625 0.935627240625  12.2599787324219 1  L 1.7436308203125 1  C 1.26537907617187 0.935627240625  0.872805240234375 1.335676003125  0.872805240234375 1.8275920828125  L 0.872805240234375 10.2132618  C 0.872805240234375 10.6902408046875  1.25939113671875 11.064343959375  1.74810778515625 11  L 12.2518502421875 11  C 12.7427214277344 11.064343959375  13.1271527871094 10.6902408046875  13.1271527871094 10.2132618  L 13.1271527871094 1.8276064828125  Z M 12.6895295078125 4.311837375  L 12.6895294941406 10.2132762  C 12.6895294941406 10.4418652171875  12.501482984375 10.6141883859375  12.2518642285156 10.6141883859375  L 1.74812177148438 10.6141883859375  C 1.53249996484375 10.6141883859375  1.31047050585938 10.4761427859375  1.31047050585938 10.2132762  L 1.31047050585938 4.311837375  L 12.6895295078125 4.311837375  Z M 12.6895155078125 3.8616817734375  L 12.6895294941406 4  L 1.31045650585937 4  L 1.31045650585937 1.8276064828125  C 1.31045650585937 1.5841811203125  1.50685534179688 1.3858116140625  1.7436168203125 1.3858116140625  L 12.2599647324219 1.3858116140625  C 12.4967681835938 1.3858116140625  12.6895154941406 1.5841811203125  12.6895154941406 1.8276064828125  L 12.6895155078125 3.8616817734375  Z M 3.34060607617187 2.612522315625  C 3.34060607617187 2.2841225671875  3.08074625195312 2.0168525765625  2.76148271875 2.0168525765625  C 2.44200932226562 2.0168525765625  2.18214951171875 2.284136953125  2.18214951171875 2.6125367015625  C 2.18214951171875 2.94093645  2.44199532226563 3.208206440625  2.76148271875 3.208206440625  C 3.08074625195312 3.208206440625  3.34060607617187 2.9409220640625  3.34060607617187 2.612522315625  Z M 2.902954796875 2.6125367015625  C 2.902954796875 2.6927623078125  2.8394798359375 2.75815156875  2.76148271875 2.75815156875  C 2.68327573828125 2.75815156875  2.61980077734375 2.6927623078125  2.61980077734375 2.6125367015625  C 2.61980077734375 2.532195965625  2.68327573828125 2.4670225640625  2.76148271875 2.4670225640625  C 2.8394798359375 2.4670225640625  2.902954796875 2.5321959796875  2.902954796875 2.6125367015625  Z M 4.7429033203125 2.612522315625  C 4.7429033203125 2.2841225671875  4.48304349609375 2.0168525765625  4.16377996289062 2.0168525765625  C 3.84430656640625 2.0168525765625  3.58444675585938 2.284136953125  3.58444675585938 2.6125367015625  C 3.58444675585938 2.94093645  3.84429256640625 3.208206440625  4.16377996289062 3.208206440625  C 4.48304349609375 3.208206440625  4.7429033203125 2.9409220640625  4.7429033203125 2.612522315625  Z M 4.30525204101563 2.6125367015625  C 4.30525204101563 2.6927623078125  4.24177708007813 2.75815156875  4.16377996289062 2.75815156875  C 4.08557298242188 2.75815156875  4.02209802148437 2.6927623078125  4.02209802148437 2.6125367015625  C 4.02209802148437 2.532195965625  4.08557298242188 2.4670225640625  4.16377996289062 2.4670225640625  C 4.24177708007813 2.4670225640625  4.30525204101563 2.5321959796875  4.30525204101563 2.6125367015625  Z M 6.14520055078125 2.612522315625  C 6.14520055078125 2.2841225671875  5.88534074023438 2.0168525765625  5.56606320703125 2.0168525765625  C 5.24658981054688 2.0168525765625  4.98673 2.284136953125  4.98673 2.6125367015625  C 4.98673 2.94093645  5.24658981054688 3.208206440625  5.56606320703125 3.208206440625  C 5.88532674023438 3.208206440625  6.14520055078125 2.9409220640625  6.14520055078125 2.612522315625  Z M 5.70753528515625 2.6125367015625  C 5.70753528515625 2.6927623078125  5.64406032421875 2.75815156875  5.56606320703125 2.75815156875  C 5.4878562265625 2.75815156875  5.424381265625 2.6927623078125  5.424381265625 2.6125367015625  C 5.424381265625 2.532195965625  5.4878562265625 2.4670225640625  5.56606320703125 2.4670225640625  C 5.64406032421875 2.4670225640625  5.70753528515625 2.5321959796875  5.70753528515625 2.6125367015625  Z " fill-rule="nonzero" fill="#7f7f7f" stroke="none" transform="matrix(1 0 0 1 14 44 )" />
  </g>
</svg>