<?xml version="1.0" encoding="utf-8"?>
<svg version="1.1" xmlns:xlink="http://www.w3.org/1999/xlink" width="28px" height="8px" xmlns="http://www.w3.org/2000/svg">
  <g transform="matrix(1 0 0 1 -14 0 )">
    <path d="M 1.62 1.006  L 13.428 6.91  C 13.584 6.988  13.792 7.028  14 7.026  C 14.208 7.026  14.416 6.988  14.572 6.91  L 26.376 1.008  C 26.688 0.852  26.688 0.598000000000001  26.376 0.442  C 26.064 0.286  25.556 0.286  25.244 0.442  L 14 6.064  L 2.752 0.44  C 2.44 0.284  1.932 0.284  1.62 0.44  C 1.308 0.596  1.308 0.85  1.62 1.006  Z " fill-rule="nonzero" fill="#555555" stroke="none" fill-opacity="0.498039215686275" transform="matrix(1 0 0 1 14 0 )" />
  </g>
</svg>