<?xml version="1.0" encoding="utf-8"?>
<svg version="1.1" xmlns:xlink="http://www.w3.org/1999/xlink" width="28px" height="8px" xmlns="http://www.w3.org/2000/svg">
  <g transform="matrix(1 0 0 1 -14 -4 )">
    <path d="M 26.376 1.658  C 26.688 1.502  26.688 1.246  26.38 1.09  C 26.068 0.934000000000001  25.56 0.934000000000001  25.248 1.09  L 14 6.714  L 2.752 1.09  C 2.44 0.934000000000001  1.932 0.934000000000001  1.62 1.09  C 1.308 1.246  1.308 1.5  1.62 1.656  L 13.428 7.56  C 13.584 7.638  13.792 7.678  14 7.676  C 14.208 7.676  14.416 7.638  14.572 7.56  L 26.376 1.658  Z " fill-rule="nonzero" fill="#555555" stroke="none" fill-opacity="0.498039215686275" transform="matrix(1 0 0 1 14 4 )" />
  </g>
</svg>