<?xml version="1.0" encoding="utf-8"?>
<svg version="1.1" xmlns:xlink="http://www.w3.org/1999/xlink" width="12px" height="12px" xmlns="http://www.w3.org/2000/svg">
  <g transform="matrix(1 0 0 1 -15 -74 )">
    <path d="M 11.9794871794872 6.525  C 11.9794871794872 9.6  9.27179487179487 12  5.98974358974359 12  C 2.70769230769231 12  0.0820512820512818 9.6  0.0820512820512818 6.6  C 0.0820512820512818 4.425  1.55897435897436 2.4  3.77435897435897 1.575  L 3.93846153846154 1.575  C 4.18461538461538 1.575  4.43076923076923 1.8  4.43076923076923 2.025  C 4.43076923076923 2.175  4.26666666666667 2.4  4.1025641025641 2.4  C 2.21538461538461 3.15  1.06666666666667 4.8  1.06666666666667 6.6  C 1.06666666666667 9.15  3.28205128205128 11.175  6.07179487179487 11.175  C 8.86153846153846 11.175  11.0769230769231 9.15  11.0769230769231 6.6  C 11.0769230769231 4.8  9.84615384615385 3.15  8.04102564102564 2.4  C 7.7948717948718 2.325  7.63076923076923 2.175  7.63076923076923 1.95  C 7.63076923076923 1.725  7.87692307692308 1.5  8.12307692307692 1.5  L 8.28717948717949 1.5  C 10.5025641025641 2.325  11.9794871794872 4.275  11.9794871794872 6.525  Z M 6.48205128205128 5.625  C 6.48205128205128 5.85  6.31794871794872 6.075  5.98974358974359 6.075  C 5.74358974358974 6.075  5.4974358974359 5.85  5.4974358974359 5.625  L 5.4974358974359 0.45  C 5.57948717948718 0.225  5.74358974358974 0  5.98974358974359 0  C 6.23589743589744 0  6.48205128205128 0.225  6.48205128205128 0.45  L 6.48205128205128 5.625  Z " fill-rule="nonzero" fill="#7f7f7f" stroke="none" transform="matrix(1 0 0 1 15 74 )" />
  </g>
</svg>