<?xml version="1.0" encoding="utf-8"?>
<svg version="1.1" xmlns:xlink="http://www.w3.org/1999/xlink" width="66px" height="66px" xmlns="http://www.w3.org/2000/svg">
  <defs>
    <filter x="81px" y="50px" width="66px" height="66px" filterUnits="userSpaceOnUse" id="filter14">
      <feOffset dx="0" dy="0" in="SourceAlpha" result="shadowOffsetInner" />
      <feGaussianBlur stdDeviation="5" in="shadowOffsetInner" result="shadowGaussian" />
      <feComposite in2="shadowGaussian" operator="atop" in="SourceAlpha" result="shadowComposite" />
      <feColorMatrix type="matrix" values="0 0 0 0 0  0 0 0 0 0  0 0 0 0 0  0 0 0 0.313725490196078 0  " in="shadowComposite" />
    </filter>
    <g id="widget15">
      <path d="M 45 6.91256832172131  C 45.6537979227642 3.12053084426229  42.5764460264228 0.0179547520491792  38.8152380752033 0  L 6.90195897357724 0  C 3.14075106910569 0.0179547049180328  0.0633991727642301 3.12053079713115  0 6.91256832172131  L 0 39.0874316782787  C 0.0633991260162627 42.8794691557377  3.14075102235773 45.9820452479508  6.90195897357724 46  L 38.8152380752033 46  C 42.5764459796748 45.982045295082  45.6537978760163 42.8794692028688  45 39.0874316782787  L 45 6.91256832172131  Z M 35.213596597561 27.458516772541  C 35.7378861788618 28.0790319815574  35.7378861788618 29.0212958401639  35.168006203252 29.5958470102459  L 30.3126287418699 34.491022647541  C 29.7427487662602 35.0655737704918  28.8081455894309 35.0655737704918  28.2382655670732 34.491022647541  C 27.6683855447154 33.9164715245902  27.6683855914634 32.9742076659836  28.2382655670732 32.3996564959016  L 28.5801935711382 32.0549258504098  L 27.5316144085366 30.9977517766393  L 25.4572512804878 33.0891178811475  C 24.6822144837398 33.8705074385246  23.4512737439024 33.8705074385246  22.6990321443089 33.0891178811475  L 19.2341618495935 29.5958470102459  L 18.1627874430894 30.6760031270492  C 17.8892450304878 31.1126619918033  17.4333410406504 31.3884465081967  16.9090515060976 31.3884465081967  L 13.0794580101626 31.3884465081967  L 13.0794580101626 34.3531303893443  C 13.0794580101626 35.1804840327869  12.418397245935 35.8239812848361  11.6205652520325 35.8239812848361  C 10.7999380609756 35.8239812848361  10.1616724939024 35.1575019897541  10.1616724939024 34.3531303893443  L 10.1616724939024 25.4590788401639  C 10.1616724939024 24.6317251967213  10.8227332581301 23.9882279446721  11.6205652520325 23.9882279446721  C 12.4411924430894 23.9882279446721  13.0794580101626 24.6547072397541  13.0794580101626 25.4590788401639  L 13.0794580101626 28.4237626741803  L 16.247990695122 28.4237626741803  L 17.1825938719512 27.4814988155738  L 11.643360449187 21.8968618401639  C 11.2786372479675 21.5291491045082  11.0734804735772 21.0235441106557  11.0734804268293 20.4949570737705  C 11.0734803800813 19.9663700368852  11.2786372012195 19.4607650430328  11.643360449187 19.0930523073771  L 19.9636082052846 10.7046057991803  C 20.3283314065041 10.3368930635246  20.8298257906504 10.1300546762295  21.3541153719512 10.1300546290984  C 21.878404953252 10.1300545819672  22.3798993373984 10.3368930163934  22.7446225386179 10.7046057991803  L 33.8230894308943 21.8738797971311  C 34.5981262276423 22.6552693545082  34.5981262276423 23.896299772541  33.8230894308943 24.6547072397541  L 31.7487263028455 26.7460733913934  L 32.7973054654472 27.8032474651639  L 33.1392334695122 27.458516772541  C 33.709113445122 26.8839656495902  34.6437166219512 26.8839656495902  35.213596597561 27.458516772541  Z M 22.3343089430894 13.1407025963115  C 21.7644289674797 12.5431694303279  20.8298257906504 12.5431694303279  20.2599458150407 13.1407025963115  C 19.6900658394309 13.7152537192623  19.6900658394309 14.6575175778689  20.2599458150407 15.2320687008197  C 20.8298257906504 15.8066198237705  21.7644289674797 15.8066198237705  22.3343089430894 15.2320687008197  C 22.9041889186992 14.6575175778689  22.9041889186992 13.7152537192623  22.3343089430894 13.1407025963115  Z " fill-rule="nonzero" fill="#333333" stroke="none" fill-opacity="0.498039215686275" transform="matrix(1 0 0 1 91 60 )" />
    </g>
  </defs>
  <g transform="matrix(1 0 0 1 -81 -50 )">
    <use xlink:href="#widget15" filter="url(#filter14)" />
    <use xlink:href="#widget15" />
  </g>
</svg>