<?xml version="1.0" encoding="utf-8"?>
<svg version="1.1" xmlns:xlink="http://www.w3.org/1999/xlink" width="12px" height="12px" xmlns="http://www.w3.org/2000/svg">
  <g transform="matrix(1 0 0 1 -15 -44 )">
    <path d="M 7.48759615384616 1.3935  C 7.22364716651629 2.00166069141214  6.64158000179179 2.39258177025084  6 2.39258177025084  C 5.35841999820821 2.39258177025084  4.77635283348371 2.00166069141214  4.51240384615384 1.3935  C 3.87443814660097 1.61214791332705  3.28825128994623 1.96887985137034  2.79245192307692 2.4402  C 3.07840373067549 2.75511491312331  3.23770577103472 3.17185303880925  3.23770577103472 3.60499521313067  C 3.23770577103472 4.54194629121861  2.5073702691962 5.30149521313067  1.60645577103472 5.30149521313067  C 1.50570896132158 5.30149521313067  1.40517877244826 5.291788667781  1.30615384615385 5.2725  C 1.21809032794345 5.81858657656304  1.21809032794345 6.37611342343697  1.30615384615384 6.9222  C 1.40517877244825 6.902911332219  1.50570896132159 6.89320478686933  1.60645577103472 6.89320478686933  C 2.5073702691962 6.89320478686933  3.23770577103472 7.65275370878139  3.23770577103472 8.58970478686933  C 3.23770577103472 9.02284696119075  3.07840373067549 9.4395850868767  2.79245192307692 9.7545  C 3.28829126046506 10.2256585436841  3.87447523111123 10.5822353590357  4.51240384615385 10.80075  C 4.77635283348371 10.1925893085879  5.35841999820821 9.80166822974916  6 9.80166822974916  C 6.64158000179179 9.80166822974916  7.22364716651629 10.1925893085879  7.48759615384615 10.80075  C 8.12552476888877 10.5822353590357  8.71170873953494 10.2256585436841  9.20754807692308 9.7545  C 8.92159626932451 9.4395850868767  8.76229422896528 9.02284696119075  8.76229422896528 8.58970478686933  C 8.76229422896528 7.65275370878139  9.4926297308038 6.89320478686933  10.3935442289653 6.89320478686933  C 10.4942910386784 6.89320478686933  10.5948212275517 6.902911332219  10.6938461538462 6.9222  C 10.7819096720566 6.37611342343697  10.7819096720566 5.81858657656304  10.6938461538462 5.2725  C 10.5948212275517 5.291788667781  10.4942910386784 5.30149521313067  10.3935442289653 5.30149521313067  C 9.4926297308038 5.30149521313067  8.76229422896528 4.54194629121861  8.76229422896528 3.60499521313067  C 8.76229422896528 3.17185303880925  8.92159626932451 2.75511491312331  9.20754807692308 2.4402  C 8.71170873953494 1.96904145631586  8.12552476888877 1.6124646409643  7.48759615384615 1.39395  Z M 10.0543269230769 2.8911  C 9.79165102289115 3.02479032458728  9.62511013738676 3.30238294278025  9.62511013738676 3.6065243893399  C 9.62511013738676 4.04641919258012  9.96799974965577 4.4030243893399  10.3909755220021 4.4030243893399  C 10.5305230622316 4.4030243893399  10.6674185193558 4.36337189212391  10.786875 4.28835  L 11.2771153846154 3.9819  L 11.4272596153846 4.55565  C 11.5579326923077 5.05425  11.625 5.5713  11.625 6.09735  C 11.625 6.62385  11.5579326923077 7.1409  11.4272596153846 7.6395  L 11.2771153846154 8.2128  L 10.786875 7.9068  C 10.6814435113433 7.85267267643406  10.5654444088615 7.82451814668933  10.4478666336336 7.82451814668933  C 10.0248908612872 7.82451814668933  9.68200124901824 8.18112334344911  9.68200124901824 8.62101814668933  C 9.68200124901824 8.90082585028864  9.82317621642759 9.16011280745754  10.0538942307692 9.30405  L 10.5644711538462 9.56685  L 10.1837019230769 10.00785  C 9.41673798243938 10.8963842531213  8.40654827397244 11.5193617533347  7.28899038461538 11.793  L 6.815625 11.90865  L 6.76067307692308 11.40555  C 6.71550710826834 11.0042135289767  6.3885345856914 10.7016407122772  6 10.7016407122772  C 5.6114654143086 10.7016407122772  5.28449289173166 11.0042135289767  5.23932692307692 11.40555  L 5.184375 11.90865  L 4.71057692307692 11.793  C 3.59301903371987 11.5193617533347  2.58282932525292 10.8963842531213  1.81586538461538 10.00785  L 1.43509615384615 9.56685  L 1.94567307692308 9.3036  C 2.21029799641054 9.17067822853532  2.37845358965819 8.8920020633541  2.37845358965819 8.58637370187404  C 2.37845358965819 8.14647889863381  2.03556397738918 7.78987370187404  1.61258820504281 7.78987370187404  C 1.47162445014017 7.78987370187404  1.3333952583167 7.83033456907989  1.213125 7.9068  L 0.722884615384614 8.2128  L 0.572740384615384 7.6395  C 0.441172296793227 7.13688384579809  0.374672153064494 6.61825839227358  0.375 6.09735  C 0.375 5.5713  0.442067307692308 5.05425  0.572740384615384 4.55565  L 0.722884615384615 3.9819  L 1.213125 4.2879  C 1.31699617215435 4.34007475449256  1.43085801035886 4.36717370187405  1.54620987188028 4.36717370187405  C 1.96918564422665 4.36717370187405  2.31207525649566 4.01056850511428  2.31207525649566 3.57067370187405  C 2.31207525649566 3.29324447699097  2.17327171201149 3.03580267173648  1.94567307692308 2.8911  L 1.43509615384615 2.6283  L 1.81586538461538 2.1873  C 2.58173076923077 1.3017  3.58990384615385 0.6753  4.71057692307692 0.40215  L 5.18394230769231 0.28695  L 5.23889423076923 0.7896  C 5.28406019942397 1.19093647102333  5.61103272200091 1.49350928772279  5.99956730769231 1.49350928772279  C 6.38810189338371 1.49350928772279  6.71507441596065 1.19093647102333  6.76024038461538 0.7896  L 6.81519230769231 0.28695  L 7.28899038461538 0.40215  C 8.40966346153846 0.67575  9.41783653846154 1.30215  10.1837019230769 2.1873  L 10.5644711538462 2.6283  L 10.0538942307692 2.89155  Z M 6 8.49  C 4.80515318546223 8.49  3.83653846153846 7.48264068711928  3.83653846153846 6.24  C 3.83653846153846 4.99735931288071  4.80515318546223 3.99  6 3.99  C 7.19484681453777 3.99  8.16346153846154 4.99735931288071  8.16346153846154 6.24  C 8.16346153846154 7.48264068711928  7.19484681453777 8.49  6 8.49  Z M 6 7.59  C 6.71690808872266 7.59  7.29807692307692 6.98558441227157  7.29807692307692 6.24  C 7.29807692307692 5.49441558772843  6.71690808872266 4.89  6 4.89  C 5.28309191127734 4.89  4.70192307692308 5.49441558772843  4.70192307692308 6.24  C 4.70192307692308 6.98558441227157  5.28309191127734 7.59  6 7.59  Z " fill-rule="nonzero" fill="#7f7f7f" stroke="none" transform="matrix(1 0 0 1 15 44 )" />
  </g>
</svg>