<?xml version="1.0" encoding="utf-8"?>
<svg version="1.1" xmlns:xlink="http://www.w3.org/1999/xlink" width="15px" height="15px" xmlns="http://www.w3.org/2000/svg">
  <g transform="matrix(1 0 0 1 -11 -18 )">
    <path d="M 0.0165929203539823 7.5  C 0.0165929203539823 3.35785714285714  3.34473451327434 0  7.45022123893805 0  C 11.5557079646018 0  14.8838495575221 3.35785714285714  14.8838495575221 7.5  C 14.8838495575221 11.6421428571429  11.5557079646018 15  7.45022123893805 15  C 3.34473451327434 15  0.0165929203539823 11.6421428571429  0.0165929203539823 7.5  Z M 10.4768528761062 6.85829799107143  C 10.696875 6.67377790178571  10.7339601769912 6.34607142857143  10.5530973451327 6.11049107142857  C 10.3783075221239 5.88333147321429  10.0447898230089 5.84069196428571  9.80641592920354 6.02678571428571  L 6.71042588495575 8.4544921875  C 6.68713243469905 8.4727554461363  6.65847285192019 8.48266987082573  6.62897278272466 8.48266987082573  C 6.58727740602856 8.48266987082573  6.54800488814308 8.46290416360311  6.52292588495575 8.429296875  L 5.49225663716814 7.04799107142857  L 5.47566371681416 7.04799107142857  C 5.30089048672566 6.81239397321429  4.97220132743363 6.76844866071429  4.74557522123894 6.94754464285714  C 4.50672013274336 7.12334263392857  4.46047566371681 7.45915178571429  4.62942477876106 7.70089285714286  L 5.91779867256637 9.40166852678571  L 5.92123340707965 9.40615513392857  C 6.19078539823009 9.75686383928571  6.69109513274336 9.82068080357143  7.03870022123894 9.54870535714286  L 10.4701327433628 6.86383928571429  L 10.4768528761062 6.85829799107143  Z " fill-rule="nonzero" fill="#02a7f0" stroke="none" transform="matrix(1 0 0 1 11 18 )" />
  </g>
</svg>