<?xml version="1.0" encoding="utf-8"?>
<svg version="1.1" xmlns:xlink="http://www.w3.org/1999/xlink" width="12px" height="12px" xmlns="http://www.w3.org/2000/svg">
  <g transform="matrix(1 0 0 1 -14 -14 )">
    <path d="M 6.252 12  C 6.084 12  6.084 12  6 12  C 5.916 12  5.916 12  5.832 12  C 5.328 11.85  4.824 11.7  4.404 11.55  C 2.388 10.95  0.204 10.275  0.204 7.8  L 0.204 2.025  C 0.204 1.8  0.372 1.65  0.624 1.65  C 3.984 1.65  5.748 0.0750000000000001  5.748 0.0750000000000001  C 5.748 0.075  5.916 0  6 0  C 6.084 0  6.252 0.075  6.336 0.15  C 6.336 0.15  8.1 1.725  11.46 1.725  C 11.712 1.725  11.88 1.875  11.88 2.1  L 11.88 7.8  C 11.88 10.275  9.612 10.95  7.68 11.55  C 7.176 11.7  6.672 11.85  6.252 12  Z M 5.916 0.825  C 5.328 1.35  3.648 2.325  0.96 2.4  L 0.96 7.725  C 0.96 9.675  2.64 10.2  4.572 10.8  C 5.076 10.95  5.58 11.025  6 11.25  C 6.42 11.1  6.924 10.95  7.344 10.8  C 9.276 10.2  10.956 9.75  10.956 7.725  L 10.956 2.4  C 8.268 2.325  6.588 1.35  5.916 0.825  Z M 8.772 8.85  C 8.772 9  8.604 9.225  8.352 9.225  L 3.648 9.225  C 3.396 9.225  3.228 9.075  3.228 8.85  L 3.228 5.85  C 3.228 5.625  3.396 5.475  3.648 5.475  L 8.352 5.475  C 8.604 5.475  8.772 5.625  8.772 5.85  L 8.772 8.85  Z M 4.068 6.225  L 4.068 8.475  L 7.932 8.475  L 7.932 6.225  L 4.068 6.225  Z M 8.268 5.85  C 8.268 6  8.1 6.15  7.848 6.15  C 7.596 6.15  7.428 6  7.428 5.775  L 7.428 4.8  C 7.428 4.125  6.756 3.525  6 3.525  C 5.244 3.525  4.572 4.125  4.572 4.8  L 4.572 5.775  C 4.572 6  4.404 6.15  4.152 6.15  C 3.9 6.15  3.732 6  3.732 5.775  L 3.732 4.8  C 3.732 3.75  4.74 2.85  6 2.85  C 7.26 2.85  8.268 3.75  8.268 4.875  L 8.268 5.85  Z M 6.42 7.725  C 6.42 7.875  6.252 8.025  6 8.025  C 5.748 8.025  5.58 7.875  5.58 7.65  L 5.58 6.9  C 5.58 6.75  5.748 6.6  6 6.6  C 6.252 6.6  6.42 6.75  6.42 6.975  L 6.42 7.725  Z " fill-rule="nonzero" fill="#7f7f7f" stroke="none" transform="matrix(1 0 0 1 14 14 )" />
  </g>
</svg>