<?xml version="1.0" standalone="no"?><!DOCTYPE svg PUBLIC "-//W3C//DTD SVG 1.1//EN" "http://www.w3.org/Graphics/SVG/1.1/DTD/svg11.dtd"><svg t="1630573565503" class="icon" viewBox="0 0 1024 1024" version="1.1" xmlns="http://www.w3.org/2000/svg" p-id="1219" xmlns:xlink="http://www.w3.org/1999/xlink" width="200" height="200"><defs><style type="text/css"></style></defs><path d="M341.333333 85.333333c51.2 0 93.866667 36.266667 104.533334 85.333334H938.666667c12.8 0 21.333333 8.533333 21.333333 21.333333s-8.533333 21.333333-21.333333 21.333333H445.866667c-10.666667 49.066667-53.333333 85.333333-104.533334 85.333334s-93.866667-36.266667-104.533333-85.333334H85.333333c-12.8 0-21.333333-8.533333-21.333333-21.333333s8.533333-21.333333 21.333333-21.333333h151.466667c10.666667-49.066667 53.333333-85.333333 104.533333-85.333334z m0 42.666667c-36.266667 0-64 27.733333-64 64s27.733333 64 64 64 64-27.733333 64-64-27.733333-64-64-64z m170.666667 277.333333c51.2 0 93.866667 36.266667 104.533333 85.333334H938.666667c12.8 0 21.333333 8.533333 21.333333 21.333333s-8.533333 21.333333-21.333333 21.333333H616.533333c-10.666667 49.066667-53.333333 85.333333-104.533333 85.333334s-93.866667-36.266667-104.533333-85.333334H85.333333c-12.8 0-21.333333-8.533333-21.333333-21.333333s8.533333-21.333333 21.333333-21.333333h322.133334c10.666667-49.066667 53.333333-85.333333 104.533333-85.333334z m0 42.666667c-36.266667 0-64 27.733333-64 64s27.733333 64 64 64 64-27.733333 64-64-27.733333-64-64-64z m192 277.333333c51.2 0 93.866667 36.266667 104.533333 85.333334H938.666667c12.8 0 21.333333 8.533333 21.333333 21.333333s-8.533333 21.333333-21.333333 21.333333h-130.133334c-10.666667 49.066667-53.333333 85.333333-104.533333 85.333334s-93.866667-36.266667-104.533333-85.333334H85.333333c-12.8 0-21.333333-8.533333-21.333333-21.333333s8.533333-21.333333 21.333333-21.333333h514.133334c10.666667-49.066667 53.333333-85.333333 104.533333-85.333334z m0 42.666667c-36.266667 0-64 27.733333-64 64s27.733333 64 64 64 64-27.733333 64-64-27.733333-64-64-64z" fill="#cdcdcd" p-id="1220"></path></svg>