<?xml version="1.0" encoding="utf-8"?>
<svg version="1.1" xmlns:xlink="http://www.w3.org/1999/xlink" width="40px" height="40px" xmlns="http://www.w3.org/2000/svg">
  <g transform="matrix(1 0 0 1 -1038 -449 )">
    <path d="M 20.0002953472007 0  C 8.95465081835963 0  0.000590664062371185 8.95406015625  0.000590664062371185 19.9997046484375  C 0.000590664062371185 31.045349140625  8.95465081835963 40  20.0002953472007 40  C 31.0459398760419 40  39.9999999912766 31.04593984375  39.9999999912766 20.0002953515625  C 40 8.95417276998544  31.0458272319673 0  20.0002953559241 0  Z M 37.199013546575 20.0002953515625  C 37.1990135250013 29.4988851228496  29.4988851164164 37.1990135331139  20.0002953472007 37.1990135546875  C 10.5016317555223 37.1990135546875  2.80157710876402 29.49895890625  2.80157710876402 20.0002953515625  C 2.80157710876402 10.501631796875  10.5016317555223 2.8009864453125  20.0002953472007 2.8009864453125  C 29.4989589388792 2.8009864453125  37.199013546575 10.5016317578125  37.199013546575 20.0002953515625  Z " fill-rule="nonzero" fill="#7f7f7f" stroke="none" transform="matrix(1 0 0 1 1038 449 )" />
  </g>
</svg>