<?xml version="1.0" encoding="utf-8"?>
<svg version="1.1" xmlns:xlink="http://www.w3.org/1999/xlink" width="20px" height="16px" xmlns="http://www.w3.org/2000/svg">
  <g transform="matrix(1 0 0 1 -1048 -461 )">
    <path d="M 19.4540675390625 8.0002953515625  C 19.4965906940309 8.17854121565962  19.4965906940309 8.36429019059037  19.4540675390625 8.5425360546875  C 19.3950845558325 8.67449228746204  19.3072861465967 8.79155683310984  19.1971233984375 8.8851282421875  L 12.973168515625 15.0517875390625  C 12.7112679807898 15.2974327283991  12.3656653609541 15.4341464698671  12.0065923193718 15.4341464698671  C 11.226270620195 15.4341464698671  10.5936948974968 14.8015707471689  10.5936948974968 14.0212490479921  C 10.5936948974968 13.6627534054705  10.7299703521668 13.3176620929554  10.974911015625 13.055892734375  L 14.5721289453125 9.43032234375  L 1.98009421875 9.43032234375  C 1.97041562714324 9.43051925271976  1.96073528308048 9.43061771484374  1.95105468864455 9.43061771484374  C 1.16257744802896 9.43061771484374  0.523390352707052 8.79143061952184  0.523390352707052 8.00295337890625  C 0.523390352707052 7.21447613829066  1.16257744802896 6.57528904296874  1.95105468864455 6.57528904296874  C 1.96073528308048 6.57528904296874  1.97041562714324 6.57538750509273  1.98009421875 6.5755844140625  L 14.5721289453125 6.5755844140625  L 10.88926296875 2.9500140234375  C 10.6261769736751 2.68501303716545  10.478536727073 2.32674200275368  10.478536727073 1.95332566201628  C 10.478536727073 1.17202529700387  11.1119058151856 0.538656208891279  11.893206180198 0.538656208891279  C 12.2654652151105 0.538656208891279  12.6227220918633 0.685385211795509  12.8875205078125 0.947031132812498  L 18.9401792578125 6.971928125  C 19.0574455851192 7.0703856027907  19.1461732030669 7.19847971499871  19.1971233984375 7.342872734375  C 19.3482881216125 7.53017896227399  19.4380131488793 7.75954500757717  19.4540675390625 7.9997046484375  Z " fill-rule="nonzero" fill="#7f7f7f" stroke="none" transform="matrix(1 0 0 1 1048 461 )" />
  </g>
</svg>