<?xml version="1.0" encoding="utf-8"?>
<svg version="1.1" xmlns:xlink="http://www.w3.org/1999/xlink" width="15px" height="15px" xmlns="http://www.w3.org/2000/svg">
  <g>
    <path d="M 14.8828125 7.5  C 14.8828125 3.38671875  11.5078125 0.1171875  7.5 0.1171875  C 3.38671875 0.1171875  0.1171875 3.38671875  0.1171875 7.5  C 0.1171875 11.61328125  3.38671875 14.8828125  7.5 14.8828125  C 11.61328125 14.8828125  14.8828125 11.61328125  14.8828125 7.5  Z M 10.13671875 7.5  C 10.13671875 8.9765625  8.9765625 10.13671875  7.5 10.13671875  C 6.0234375 10.13671875  4.86328125 8.9765625  4.86328125 7.5  C 4.86328125 6.0234375  6.0234375 4.86328125  7.5 4.86328125  C 7.74477753068163 4.86328125  7.98085976310996 4.89516401026207  8.20440278976786 4.95508562326908  C 9.32933014509477 5.25662695361013  10.13671875 6.26821503068163  10.13671875 7.5  Z " fill-rule="nonzero" fill="#409eff" stroke="none" />
  </g>
</svg>