<?xml version="1.0" encoding="utf-8"?>
<svg version="1.1" xmlns:xlink="http://www.w3.org/1999/xlink" width="15px" height="15px" xmlns="http://www.w3.org/2000/svg">
  <g>
    <path d="M 15 1.7578125  C 15 0.791015625  14.208984375 0  13.2421875 0  L 1.7578125 0  C 0.791015625 0  0 0.791015625  0 1.7578125  L 0 13.2421875  C 0 14.208984375  0.791015625 15  1.7578125 15  L 13.2421875 15  C 14.208984375 15  15 14.208984375  15 13.2421875  L 15 1.7578125  Z M 11.52978515625 4.77685546875  C 11.71142578125 4.95849609375  11.71142578125 5.255859375  11.52978515625 5.4375  L 6.744140625 10.22314453125  L 6.74267578125 10.224609375  C 6.56103515625 10.40625  6.263671875 10.40625  6.08203125 10.224609375  L 6.08056640625 10.22314453125  L 3.47021484375 7.61279296875  C 3.28857421875 7.43115234375  3.28857421875 7.1337890625  3.47021484375 6.9521484375  L 3.4716796875 6.95068359375  C 3.6533203125 6.76904296875  3.95068359375 6.76904296875  4.13232421875 6.95068359375  L 6.41162109375 9.22998046875  L 10.86767578125 4.775390625  C 11.04931640625 4.59375  11.3466796875 4.59375  11.5283203125 4.775390625  L 11.52978515625 4.77685546875  Z " fill-rule="nonzero" fill="#409eff" stroke="none" />
  </g>
</svg>