<?xml version="1.0" encoding="utf-8"?>
<svg version="1.1" xmlns:xlink="http://www.w3.org/1999/xlink" width="15px" height="15px" xmlns="http://www.w3.org/2000/svg">
  <g>
    <path d="M 1.7578125 1  L 13.2421875 1  C 13.458984375 0.9375  13.66552734375 1.02392578125  13.82080078125 1.17919921875  C 13.97607421875 1.33447265625  14.0625 1.541015625  14 1.7578125  L 14 13.2421875  C 14.0625 13.458984375  13.97607421875 13.66552734375  13.82080078125 13.82080078125  C 13.66552734375 13.97607421875  13.458984375 14.0625  13.2421875 14  L 1.7578125 14  C 1.541015625 14.0625  1.33447265625 13.97607421875  1.17919921875 13.82080078125  C 1.02392578125 13.66552734375  0.9375 13.458984375  1 13.2421875  L 1 1.7578125  C 0.9375 1.541015625  1.02392578125 1.33447265625  1.17919921875 1.17919921875  C 1.33447265625 1.02392578125  1.541015625 0.9375  1.7578125 1  Z M 15 1.7578125  C 15 0.791015625  14.208984375 0  13.2421875 0  L 1.7578125 0  C 0.791015625 0  0 0.791015625  0 1.7578125  L 0 13.2421875  C 0 14.208984375  0.791015625 15  1.7578125 15  L 13.2421875 15  C 14.208984375 15  15 14.208984375  15 13.2421875  L 15 1.7578125  Z " fill-rule="nonzero" fill="#c0c4cc" stroke="none" />
  </g>
</svg>