<?xml version="1.0" encoding="utf-8"?>
<svg version="1.1" xmlns:xlink="http://www.w3.org/1999/xlink" width="14px" height="14px" xmlns="http://www.w3.org/2000/svg">
  <g transform="matrix(1 0 0 1 -533 -13 )">
    <path d="M 2.62937499999981 0.541515625000034  L 6.9995078125001 4.91164843749999  L 11.369640625 0.541515625000034  C 11.9455 -0.0348359375000165  12.881640625 -0.0348359375000165  13.4574999999998 0.541515625000034  C 14.0338515625 1.11786718749999  14.0338515625 2.053515625  13.4574999999998 2.62986718749995  L 9.08785937499988 7  L 13.4574999999998 11.369640625  C 14.0338515625 11.9459921875  14.0338515625 12.881640625  13.4574999999998 13.4579921875  C 12.881640625 14.03434375  11.9455 14.03434375  11.369640625 13.4579921875  L 6.9995078125001 9.08785937500001  L 2.62937499999981 13.4579921875  C 2.05351562500005 14.03434375  1.11737499999998 14.03434375  0.541515624999988 13.4579921875  C -0.03483593750002 12.881640625  -0.03483593750002 11.9459921875  0.541515624999988 11.369640625  L 4.91164843749999 7  L 0.541515624999988 2.62986718749995  C -0.03483593750002 2.053515625  -0.03483593750002 1.11786718749999  0.541515624999988 0.541515625000034  C 1.11737499999998 -0.0348359375000165  2.05351562500005 -0.0348359375000165  2.62937499999981 0.541515625000034  Z " fill-rule="nonzero" fill="#d7d7d7" stroke="none" transform="matrix(1 0 0 1 533 13 )" />
  </g>
</svg>