<?xml version="1.0" encoding="utf-8"?>
<svg version="1.1" xmlns:xlink="http://www.w3.org/1999/xlink" width="20px" height="20px" xmlns="http://www.w3.org/2000/svg">
  <g>
    <path d="M 0.1498046875 10.00005859375  C 0.1498046875 15.52291015625  4.5872265625 20  10.0610546875 20  C 15.535078125 20  19.97232421875 15.52291015625  19.97232421875 10.00005859375  C 19.97232421875 4.47720703125  15.535078125 0  10.06107421875 0  C 4.58724609375 0  0.14978515625 4.47720703125  0.14978515625 10.00005859375  Z M 15.5015234375 4.5533984375  C 15.79611328125 4.84408203125  15.79611328125 5.35248046875  15.5015234375 5.64328125  L 5.548515625 15.44921875  C 5.25341796875 15.73931640625  4.73734375 15.73931640625  4.44234375 15.44921875  C 4.14775390625 15.1586328125  4.14775390625 14.65001953125  4.44234375 14.3593359375  L 14.3952734375 4.55341796875  C 14.6903515625 4.26322265625  15.20654296875 4.26322265625  15.5015234375 4.55341796875  Z M 4.62080078125 4.70359375  C 4.907109375 4.42216796875  5.4078125 4.42216796875  5.69412109375 4.70359375  L 15.3514453125 14.212109375  C 15.6371484375 14.4940234375  15.6371484375 14.9871484375  15.3514453125 15.2689453125  C 15.0651171875 15.55025390625  14.56443359375 15.55025390625  14.2780078125 15.2689453125  L 4.6208203125 5.7604296875  C 4.33501953125 5.4783984375  4.33501953125 4.985390625  4.6208203125 4.70359375  Z " fill-rule="nonzero" fill="#cccccc" stroke="none" />
  </g>
</svg>