<?xml version="1.0" encoding="utf-8"?>
<svg version="1.1" xmlns:xlink="http://www.w3.org/1999/xlink" width="28px" height="25px" xmlns="http://www.w3.org/2000/svg">
  <g transform="matrix(1 0 0 1 -34 -160 )">
    <path d="M 28 5.03893805309735  C 28 4.3787610619469  27.7383362831858 3.75929203539823  27.2903362831858 3.29026548672567  L 25.1474690265487 0.976991150442477  C 24.7185113959372 0.494960610211077  24.0648112863998 0.21618749302859  23.3752920353982 0.221238938053097  L 4.87249557522124 0.221238938053097  C 4.14895575221239 0.221238938053097  3.51660176991151 0.509734513274337  3.08446017699115 0.978761061946904  L 0.957451327433629 3.29026548672567  C 0.496028490677716 3.77952169636442  0.244490405895452 4.39933321812439  0.247787610619469 5.03893805309735  L 1.73451327433628 22.246017699115  C 1.73451327433628 23.7610619469027  3.12212389380531 25  4.81897345132744 25  L 23.1830088495575 25  C 24.8778761061947 25  26.2654867256637 23.7610619469027  26.2654867256637 22.246017699115  L 28 5.03893805309735  Z M 25.3100176991151 12.5547510503259  L 14.4918208635023 22.7004558862966  L 3.27674336283186 12.5547510503259  L 8.61309734513274 12.5547510503259  L 8.61309734513274 7  L 19.4475730758917 7  L 19.4475730758917 12.5547510503259  L 25.3100176991151 12.5547510503259  Z M 24.7946194690266 3  L 3.44920353982301 3  L 4.5156814159292 1.17345132743363  L 23.7281415929204 1.17345132743363  L 24.7946194690266 3  Z " fill-rule="nonzero" fill="#d9001b" stroke="none" fill-opacity="0.509803921568627" transform="matrix(1 0 0 1 34 160 )" />
  </g>
</svg>