<?xml version="1.0" encoding="utf-8"?>
<svg version="1.1" xmlns:xlink="http://www.w3.org/1999/xlink" width="11px" height="12px" xmlns="http://www.w3.org/2000/svg">
  <g transform="matrix(1 0 0 1 -49 -173 )">
    <path d="M 0.230772485039892 3.47904190675875  C 0.22205233743351 3.12375248523071  0.217692263630318 2.74251496216551  0.217692276429521 2.33532933756316  C 0.217692276429521 2.23153692360202  0.309253834829344 2.16566866194759  0.492376951628989 2.13772455259988  C 0.675500068428635 2.10978044325217  0.906584001329787 2.08183632999821  1.18562875033245 2.053892212838  C 1.46467349933511 2.02594809567779  1.76987869115692 1.97804390431832  2.10124432579787 1.91017963875959  C 2.43260996043883 1.84231537320086  2.74653529986702 1.71257485379631  3.04302034408245 1.52095808054594  C 3.25230390370124 1.39321357285819  3.44632720500887 1.25548902221144  3.62509024800532 1.10778442860568  C 3.80385329100177 0.960079834999922  3.97607621902704 0.818363268732067  4.14175903208112 0.682634729802115  C 4.30744184513519 0.546906190872162  4.47094462555408 0.423153694899264  4.63226737333777 0.311377241883421  C 4.79359012112145 0.199600788867577  4.96581304914672 0.111776437390843  5.14893615741356 0.0479041874532185  L 5.14893615741356 4.5029940073213  L 0.270013149268616 4.5029940073213  C 0.25257285405585 4.17564869514097  0.239492632646275 3.83433132828679  0.230772485039892 3.47904190675875  Z M 4.87425146941489 11.8562874024841  C 4.78704998481826 11.8243512697028  4.70420857402482 11.7844311095855  4.62572726263298 11.736526933851  C 4.14611910161791 11.4011975904285  3.71447175670435 11.0858283290177  3.33078522789229 10.7904191496187  C 2.94709869908023 10.4950099702197  2.60483287566489 10.1996007908207  2.30398775764628 9.90419161142169  C 2.00314263962766 9.60878243202268  1.74153819010417 9.30339320966466  1.5191744090758 8.98802394434764  C 1.29681062804743 8.67265467903061  1.1049673636414 8.33133731217643  0.943644615857713 7.96407184378509  C 0.782321868074025 7.59680637539375  0.651519641179079 7.19560877031679  0.551237935172873 6.76047902855422  C 0.450956229166667 6.32534928679165  0.374654929078015 5.83233531461686  0.322334034906915 5.28143711202985  L 5.14893614461436 5.28143711202985  L 5.14893614461436 11.940119742246  C 5.05301451241135 11.9161676485194  4.96145295401153 11.8882235352654  4.87425146941489 11.8562874024841  Z M 5.97299019581117 12  L 5.97299019581117 5.2814371237486  L 10.7734318626995 5.2814371237486  C 10.7298311246676 5.83233532633561  10.6622499764517 6.3213572828893  10.5706884180519 6.74850299340967  C 10.479126859652 7.17564870393003  10.3614048584331 7.56686626995423  10.2175224143949 7.92215569148227  C 10.0736399703568 8.27744511301031  9.89487692736037 8.60678642909494  9.68123328540558 8.91017963973616  C 9.4675896434508 9.21357285037737  9.21470534153369 9.51497005711429  8.92258037965425 9.8143712599469  C 8.63045541777482 10.1137724627795  8.29254966816268 10.4251497085692  7.90886313081782 10.7485029973159  C 7.52517659347296 11.0718562860626  7.0935292485594 11.4291417154012  6.61392109607713 11.8203592853317  C 6.4220778316711 11.9161676680506  6.20843419824911 11.9760479062734  5.97299019581117 12  Z M 7.68649934125665 1.22155687380707  C 7.86962245805629 1.39720557676054  8.07018587006871 1.5568862172296  8.28818957729388 1.70059879521426  C 8.53235372733821 1.86027943568332  8.80267832446808 1.96407184964446  9.09916336868351 2.01197603709768  C 9.39564841289893 2.0598802245509  9.6746931619016 2.09181635342596  9.93629761569149 2.10778442372287  C 10.1979020694814 2.12375249401977  10.4180858136082 2.13772454869363  10.5968488480718 2.14970058774443  C 10.7756118825355 2.16167662679524  10.8649934040337 2.20758481034416  10.8649934125665 2.28742513839119  C 10.8649934125665 3.11776445789281  10.8519131911569 3.85628741029659  10.8257527483378 4.50299399560255  L 5.97299018301197 4.50299399560255  L 5.97299018301197 0  C 6.19099389023715 0.0479041874532186  6.39591737605275 0.137724542834253  6.58776064045878 0.269461066143105  C 6.77960390486481 0.401197589451956  6.96490705856605 0.548902179151463  7.1436701015625 0.712574835241626  C 7.32243314455896 0.87624749133179  7.50337622445701 1.04590817085361  7.68649934125665 1.22155687380707  Z " fill-rule="nonzero" fill="#000000" stroke="none" fill-opacity="0.682352941176471" transform="matrix(1 0 0 1 49 173 )" />
  </g>
</svg>