<?xml version="1.0" encoding="utf-8"?>
<svg version="1.1" xmlns:xlink="http://www.w3.org/1999/xlink" width="22px" height="22px" xmlns="http://www.w3.org/2000/svg">
  <g transform="matrix(1 0 0 1 -1566 -12 )">
    <path d="M 21.5794117647059 19.9563725490196  L 12.6863970588235 11.0633578431373  L 21.5794117647059 2.1703431372549  C 22.0283088235294 1.72144607843137  22.0283088235294 0.981372549019608  21.5794117647059 0.532475490196078  L 21.5308823529412 0.483946078431372  C 21.0819852941177 0.0350490196078427  20.3419117647059 0.0350490196078427  19.8930147058824 0.483946078431372  L 11 9.3890931372549  L 2.10698529411765 0.483946078431372  C 1.65808823529412 0.0350490196078427  0.918014705882352 0.0350490196078427  0.469117647058823 0.483946078431372  L 0.420588235294117 0.532475490196078  C -0.040441176470589 0.981372549019608  -0.040441176470589 1.72144607843137  0.420588235294117 2.1703431372549  L 9.31360294117647 11.0633578431373  L 0.420588235294118 19.9563725490196  C -0.0283088235294121 20.4052696078431  -0.0283088235294121 21.1453431372549  0.420588235294118 21.5942401960784  L 0.469117647058823 21.6427696078431  C 0.918014705882352 22.0916666666667  1.65808823529412 22.0916666666667  2.10698529411765 21.6427696078431  L 11 12.7497549019608  L 19.8930147058824 21.6427696078431  C 20.3419117647059 22.0916666666667  21.0819852941177 22.0916666666667  21.5308823529412 21.6427696078431  L 21.5794117647059 21.5942401960784  C 22.0283088235294 21.1453431372549  22.0283088235294 20.4052696078431  21.5794117647059 19.9563725490196  Z " fill-rule="nonzero" fill="#f2f2f2" stroke="none" transform="matrix(1 0 0 1 1566 12 )" />
  </g>
</svg>