<?xml version="1.0" encoding="utf-8"?>
<svg version="1.1" xmlns:xlink="http://www.w3.org/1999/xlink" width="150px" height="50px" xmlns="http://www.w3.org/2000/svg">
  <defs>
    <filter x="7px" y="540px" width="150px" height="50px" filterUnits="userSpaceOnUse" id="filter10">
      <feOffset dx="1" dy="1" in="SourceAlpha" result="shadowOffsetInner" />
      <feGaussianBlur stdDeviation="2.5" in="shadowOffsetInner" result="shadowGaussian" />
      <feComposite in2="shadowGaussian" operator="atop" in="SourceAlpha" result="shadowComposite" />
      <feColorMatrix type="matrix" values="0 0 0 0 0  0 0 0 0 0  0 0 0 0 1  0 0 0 0.996078431372549 0  " in="shadowComposite" />
    </filter>
    <g id="widget11">
      <path d="M 12 548  A 3 3 0 0 1 15 545 L 147 545  A 3 3 0 0 1 150 548 L 150 580  A 3 3 0 0 1 147 583 L 15 583  A 3 3 0 0 1 12 580 L 12 548  Z " fill-rule="nonzero" fill="#ffffff" stroke="none" fill-opacity="0" />
      <path d="M 11.5 548  A 3.5 3.5 0 0 1 15 544.5 L 147 544.5  A 3.5 3.5 0 0 1 150.5 548 L 150.5 580  A 3.5 3.5 0 0 1 147 583.5 L 15 583.5  A 3.5 3.5 0 0 1 11.5 580 L 11.5 548  Z " stroke-width="1" stroke="#027db4" fill="none" stroke-opacity="0.996078431372549" />
    </g>
  </defs>
  <g transform="matrix(1 0 0 1 -7 -540 )">
    <use xlink:href="#widget11" filter="url(#filter10)" />
    <use xlink:href="#widget11" />
  </g>
</svg>