<?xml version="1.0" encoding="utf-8"?>
<svg version="1.1" xmlns:xlink="http://www.w3.org/1999/xlink" width="140px" height="40px" xmlns="http://www.w3.org/2000/svg">
  <g>
    <path d="M 1 4  A 3 3 0 0 1 4 1 L 136 1  A 3 3 0 0 1 139 4 L 139 36  A 3 3 0 0 1 136 39 L 4 39  A 3 3 0 0 1 1 36 L 1 4  Z " fill-rule="nonzero" fill="#ffffff" stroke="none" fill-opacity="0" />
    <path d="M 0.5 4  A 3.5 3.5 0 0 1 4 0.5 L 136 0.5  A 3.5 3.5 0 0 1 139.5 4 L 139.5 36  A 3.5 3.5 0 0 1 136 39.5 L 4 39.5  A 3.5 3.5 0 0 1 0.5 36 L 0.5 4  Z " stroke-width="1" stroke="#000000" fill="none" stroke-opacity="0.501960784313725" />
  </g>
</svg>