<?xml version="1.0" encoding="utf-8"?>
<svg version="1.1" xmlns:xlink="http://www.w3.org/1999/xlink" width="346px" height="40px" xmlns="http://www.w3.org/2000/svg">
  <g transform="matrix(1 0 0 1 -595 -125 )">
    <path d="M 596 129  A 3 3 0 0 1 599 126 L 937 126  A 3 3 0 0 1 940 129 L 940 161  A 3 3 0 0 1 937 164 L 599 164  A 3 3 0 0 1 596 161 L 596 129  Z " fill-rule="nonzero" fill="#000000" stroke="none" fill-opacity="0.8" />
    <path d="M 595.5 129  A 3.5 3.5 0 0 1 599 125.5 L 937 125.5  A 3.5 3.5 0 0 1 940.5 129 L 940.5 161  A 3.5 3.5 0 0 1 937 164.5 L 599 164.5  A 3.5 3.5 0 0 1 595.5 161 L 595.5 129  Z " stroke-width="1" stroke="#ffcc00" fill="none" stroke-opacity="0.47843137254902" />
  </g>
</svg>