<?xml version="1.0" encoding="utf-8"?>
<svg version="1.1" xmlns:xlink="http://www.w3.org/1999/xlink" width="360px" height="51px" xmlns="http://www.w3.org/2000/svg">
  <g transform="matrix(1 0 0 1 -1066 -335 )">
    <path d="M 1067 338  A 2 2 0 0 1 1069 336 L 1423 336  A 2 2 0 0 1 1425 338 L 1425 383  A 2 2 0 0 1 1423 385 L 1069 385  A 2 2 0 0 1 1067 383 L 1067 338  Z " fill-rule="nonzero" fill="#ffffff" stroke="none" />
    <path d="M 1066.5 338  A 2.5 2.5 0 0 1 1069 335.5 L 1423 335.5  A 2.5 2.5 0 0 1 1425.5 338 L 1425.5 383  A 2.5 2.5 0 0 1 1423 385.5 L 1069 385.5  A 2.5 2.5 0 0 1 1066.5 383 L 1066.5 338  Z " stroke-width="1" stroke="#cccccc" fill="none" stroke-opacity="0.698039215686274" />
  </g>
</svg>