<?xml version="1.0" encoding="utf-8"?>
<svg version="1.1" xmlns:xlink="http://www.w3.org/1999/xlink" width="366px" height="57px" xmlns="http://www.w3.org/2000/svg">
  <defs>
    <filter x="1063px" y="332px" width="366px" height="57px" filterUnits="userSpaceOnUse" id="filter3">
      <feOffset dx="0" dy="0" in="SourceAlpha" result="shadowOffsetInner" />
      <feGaussianBlur stdDeviation="1.5" in="shadowOffsetInner" result="shadowGaussian" />
      <feComposite in2="shadowGaussian" operator="atop" in="SourceAlpha" result="shadowComposite" />
      <feColorMatrix type="matrix" values="0 0 0 0 0  0 0 0 0 0.474509803921569  0 0 0 0 0.996078431372549  0 0 0 0.8 0  " in="shadowComposite" />
    </filter>
    <g id="widget4">
      <path d="M 1066.5 338  A 2.5 2.5 0 0 1 1069 335.5 L 1423 335.5  A 2.5 2.5 0 0 1 1425.5 338 L 1425.5 383  A 2.5 2.5 0 0 1 1423 385.5 L 1069 385.5  A 2.5 2.5 0 0 1 1066.5 383 L 1066.5 338  Z " fill-rule="nonzero" fill="#ffffff" stroke="none" />
      <path d="M 1066.5 338  A 2.5 2.5 0 0 1 1069 335.5 L 1423 335.5  A 2.5 2.5 0 0 1 1425.5 338 L 1425.5 383  A 2.5 2.5 0 0 1 1423 385.5 L 1069 385.5  A 2.5 2.5 0 0 1 1066.5 383 L 1066.5 338  Z " stroke-width="1" stroke="#0079fe" fill="none" />
    </g>
  </defs>
  <g transform="matrix(1 0 0 1 -1063 -332 )">
    <use xlink:href="#widget4" filter="url(#filter3)" />
    <use xlink:href="#widget4" />
  </g>
</svg>