<?xml version="1.0" encoding="utf-8"?>
<svg version="1.1" xmlns:xlink="http://www.w3.org/1999/xlink" width="412px" height="40px" xmlns="http://www.w3.org/2000/svg">
  <g transform="matrix(1 0 0 1 -603 -449 )">
    <path d="M 603.5 452  A 2.5 2.5 0 0 1 606 449.5 L 1012 449.5  A 2.5 2.5 0 0 1 1014.5 452 L 1014.5 486  A 2.5 2.5 0 0 1 1012 488.5 L 606 488.5  A 2.5 2.5 0 0 1 603.5 486 L 603.5 452  Z " fill-rule="nonzero" fill="#ffffff" stroke="none" />
    <path d="M 603.5 452  A 2.5 2.5 0 0 1 606 449.5 L 1012 449.5  A 2.5 2.5 0 0 1 1014.5 452 L 1014.5 486  A 2.5 2.5 0 0 1 1012 488.5 L 606 488.5  A 2.5 2.5 0 0 1 603.5 486 L 603.5 452  Z " stroke-width="1" stroke="#0079fe" fill="none" />
  </g>
</svg>