<?xml version="1.0" encoding="utf-8"?>
<svg version="1.1" xmlns:xlink="http://www.w3.org/1999/xlink" width="418px" height="46px" xmlns="http://www.w3.org/2000/svg">
  <defs>
    <filter x="600px" y="446px" width="418px" height="46px" filterUnits="userSpaceOnUse" id="filter23">
      <feOffset dx="0" dy="0" in="SourceAlpha" result="shadowOffsetInner" />
      <feGaussianBlur stdDeviation="1.5" in="shadowOffsetInner" result="shadowGaussian" />
      <feComposite in2="shadowGaussian" operator="atop" in="SourceAlpha" result="shadowComposite" />
      <feColorMatrix type="matrix" values="0 0 0 0 0  0 0 0 0 0.474509803921569  0 0 0 0 0.996078431372549  0 0 0 0.8 0  " in="shadowComposite" />
    </filter>
    <g id="widget24">
      <path d="M 603.5 452  A 2.5 2.5 0 0 1 606 449.5 L 1012 449.5  A 2.5 2.5 0 0 1 1014.5 452 L 1014.5 486  A 2.5 2.5 0 0 1 1012 488.5 L 606 488.5  A 2.5 2.5 0 0 1 603.5 486 L 603.5 452  Z " fill-rule="nonzero" fill="#ffffff" stroke="none" />
      <path d="M 603.5 452  A 2.5 2.5 0 0 1 606 449.5 L 1012 449.5  A 2.5 2.5 0 0 1 1014.5 452 L 1014.5 486  A 2.5 2.5 0 0 1 1012 488.5 L 606 488.5  A 2.5 2.5 0 0 1 603.5 486 L 603.5 452  Z " stroke-width="1" stroke="#0079fe" fill="none" />
    </g>
  </defs>
  <g transform="matrix(1 0 0 1 -600 -446 )">
    <use xlink:href="#widget24" filter="url(#filter23)" />
    <use xlink:href="#widget24" />
  </g>
</svg>