<?xml version="1.0" encoding="utf-8"?>
<svg version="1.1" xmlns:xlink="http://www.w3.org/1999/xlink" width="13px" height="11px" xmlns="http://www.w3.org/2000/svg">
  <g transform="matrix(1 0 0 1 -188 -313 )">
    <path d="M 12.4366455078125 5.5120849609375  C 12.4366455078125 2.7379150390625  9.778564453125 0.4901123046875  6.5015869140625 0.4901123046875  C 3.224609375 0.4901123046875  0.5665283203125 2.7379150390625  0.5665283203125 5.5120849609375  C 0.5665283203125 8.2862548828125  3.2230224609375 10.5340576171875  6.5015869140625 10.5340576171875  C 9.7801513671875 10.5340576171875  12.4366455078125 8.2862548828125  12.4366455078125 5.5120849609375  Z M 8.9962158203125 5.3240966796875  C 9.166015625 5.4073486328125  9.166015625 5.615478515625  8.9962158203125 5.69873046875  L 5.2955322265625 7.506103515625  C 5.125732421875 7.58935546875  4.9130859375 7.4859619140625  4.9130859375 7.3194580078125  L 4.9130859375 3.703369140625  C 4.9130859375 3.536865234375  5.125732421875 3.4334716796875  5.2955322265625 3.5167236328125  L 8.9962158203125 5.3240966796875  Z " fill-rule="nonzero" fill="#231815" stroke="none" transform="matrix(1 0 0 1 188 313 )" />
  </g>
</svg>