<?xml version="1.0" encoding="utf-8"?>
<svg version="1.1" xmlns:xlink="http://www.w3.org/1999/xlink" width="14px" height="14px" xmlns="http://www.w3.org/2000/svg">
  <g transform="matrix(1 0 0 1 -1252 -154 )">
    <path d="M 13.9583716814159 6.93805309734512  C 13.9593628318584 3.10725663716818  10.8530973451327 0  7.02031858407082 0  C 3.18853097345132 0  0.0822654867256745 3.10725663716818  0.0822654867256745 6.93805309734512  C 0.0822654867256745 10.7698407079646  3.18853097345132 13.8761061946902  7.02031858407082 13.8761061946902  C 10.8530973451327 13.8761061946902  13.9583716814159 10.7698407079646  13.9583716814159 6.93805309734512  Z M 5.52962831858406 5.16191150442478  L 3.96757522123895 5.1916460176991  C 3.96757522123895 5.1916460176991  3.74060176991151 2.09430088495571  7.00644247787611 2.09430088495571  C 10.2722831858407 2.09430088495571  10.0740530973451 5.16191150442478  10.0740530973451 5.16191150442478  C 10.0740530973451 5.16191150442478  10.100814159292 6.1282831858407  8.99469026548672 6.97968141592918  C 7.88757522123893 7.83207079646019  7.65961061946902 7.77359292035396  7.65961061946902 9.05316814159289  L 6.15405309734516 9.05316814159289  C 6.15405309734516 9.05316814159289  5.68821238938054 7.18385840707964  7.85684955752214 6.10053097345133  C 8.31277876106196 5.87256637168144  8.48424778761063 5.61684955752207  8.48424778761063 4.76545132743365  C 8.48424778761063 3.91405309734512  7.94307964601768 3.4006371681416  7.14817699115045 3.4006371681416  C 6.35327433628319 3.4006371681416  5.52962831858406 3.54336283185842  5.52962831858406 5.16191150442478  Z M 6.12630088495575 11.780814159292  L 6.12630088495575 10.2465132743363  L 7.65961061946902 10.2465132743363  L 7.65961061946902 11.780814159292  L 6.12630088495575 11.780814159292  Z " fill-rule="nonzero" fill="#d9001b" stroke="none" transform="matrix(1 0 0 1 1252 154 )" />
  </g>
</svg>