<?xml version="1.0" encoding="utf-8"?>
<svg version="1.1" xmlns:xlink="http://www.w3.org/1999/xlink" width="24px" height="22px" xmlns="http://www.w3.org/2000/svg">
  <g transform="matrix(1 0 0 1 -1515 -267 )">
    <path d="M 23.977298435122 11.0004085346342  C 23.977298435122 4.94066032390245  18.5991944663415 0.0107317073170634  11.9887383570732 0.0107317073170634  C 5.37810394536584 0.0107317073170634  0 4.94066032390245  0 11.0004085346342  C 0 17.0596664995122  5.37810394536584 21.9892682926829  11.9887383570732 21.9892682926829  C 18.5991944897561 21.9892682926829  23.977298435122 17.0596664780488  23.977298435122 11.0004085346342  Z M 16.7006626419511 15.4865144741464  C 16.7004843863414 15.9610582946342  16.2808464468293 16.3473605014634  15.7651231843903 16.3473605014634  L 8.2638723512196 16.3473605229269  C 7.74814911219515 16.3473605229269  7.32868942829265 15.9612217170731  7.32868942829265 15.4865144956098  L 7.32868942829265 8.64092564097557  C 7.32868942829265 8.47555430243903  7.47540227121954 8.34090412878047  7.65598562341463 8.34090412878047  C 7.83639072000001 8.34090412878047  7.98310353951229 8.47555430243903  7.98310353951229 8.64092564097557  L 7.98310353951229 15.4865144956098  C 7.98310353951229 15.6304790614634  8.10913753756102 15.7474809209756  8.26387232780487 15.7474809209756  L 15.7651231609756 15.7474809209756  C 15.9198579512195 15.7474809209756  16.0458919492682 15.6304790614634  16.0458919492682 15.4865144956098  L 16.045891972683 8.64092564097557  C 16.045891972683 8.47555430243903  16.1926048156097 8.34090412878047  16.3731881678048 8.34090412878047  C 16.55377152 8.34090412878047  16.7004843629269 8.47555430243903  16.7004843629269 8.64092564097557  L 16.7004843629269 15.4865144741464  Z M 10.4412120585366 14.9052636565854  C 10.2609852409756 14.9052636565854  10.114094142439 14.7707768839025  10.114094142439 14.6054055668293  L 10.114094142439 8.64092564097557  C 10.114094142439 8.47555430243903  10.2608069853658 8.34090412878047  10.4412120585366 8.34090412878047  C 10.6217954107317 8.34090412878047  10.7685082536586 8.47555430243903  10.7685082536586 8.64092564097557  L 10.7685082536586 14.6052421443903  C 10.7685082536586 14.7707768839024  10.6217954107317 14.9052636565854  10.4412120585366 14.9052636565854  Z M 13.5879617326829 14.9052636565854  C 13.4073783804877 14.9052636565854  13.260665537561 14.7707768839025  13.260665537561 14.6054055668293  L 13.260665537561 8.64092564097557  C 13.260665537561 8.47555430243903  13.4073783804877 8.34090412878047  13.5879617326829 8.34090412878047  C 13.7683668292683 8.34090412878047  13.9150796487805 8.47555430243903  13.9150796487805 8.64092564097557  L 13.9150796487805 14.6052421443903  C 13.9150796487805 14.7707768839024  13.7683668058537 14.9052636565854  13.5879617326829 14.9052636565854  Z M 18.1704649990244 7.15846637268289  C 18.1706432546341 7.32383773268285  18.0237521560975 7.45848790634141  17.8433470595122 7.45848790634141  L 14.41297632 7.45848790634141  C 14.3256260370731 7.45848790634141  14.2434454478048 7.42727651707319  14.181587192195 7.37057311609758  L 12.9620701580487 6.25268250146343  L 11.0514162497561 6.25268250146343  L 9.59551864975616 7.38691415804877  C 9.53704743804875 7.43283249365851  9.46164095999992 7.45848792780484  9.3837387629269 7.45848792780484  L 6.13412963121945 7.45848790634141  C 5.95354627902436 7.45848790634141  5.8068334360976 7.32383773268285  5.8068334360976 7.15846639414632  C 5.8068334360976 6.99309505560968  5.95354627902436 6.85844488195122  6.13412963121945 6.85844488195122  L 9.26358752780495 6.85844488195122  L 10.719306872195 5.72421322536588  C 10.7786694087805 5.67813148878044  10.8538976312196 5.65280287804884  10.9312650380488 5.65280287804884  L 13.0975522653658 5.65280287804884  C 13.1849025482927 5.65280287804884  13.267083137561 5.68401426731706  13.3289413931707 5.74071766829268  L 14.548458427317 6.85860828292683  L 17.8431688039024 6.85860828292683  C 18.0237521560975 6.85860828292683  18.1704649990244 6.99309505560968  18.1704649990244 7.15846637268289  Z " fill-rule="nonzero" fill="#ffffff" stroke="none" fill-opacity="0.796078431372549" transform="matrix(1 0 0 1 1515 267 )" />
  </g>
</svg>