<?xml version="1.0" encoding="utf-8"?>
<svg version="1.1" xmlns:xlink="http://www.w3.org/1999/xlink" width="17px" height="20px" xmlns="http://www.w3.org/2000/svg">
  <g transform="matrix(1 0 0 1 -856 -51 )">
    <path d="M 16.9273354162947 10  C 16.9273354162947 15.4756018303571  13.1542615558036 19.9145122544643  8.5 19.9145122544643  C 3.8457384441964 19.9145122544643  0.0726645837053184 15.4756018303571  0.0726645837053184 10  C 0.0726645837053184 4.52428397321428  3.8457384441964 0.0854877455357021  8.5 0.0854877455357021  C 13.1542615558036 0.0854877455357021  16.9273354162947 4.52428395089284  16.9273354162947 10  Z M 9.41675672321435 10  L 12.778262765625 6.04521848214287  L 11.8615060424107 4.96672685267858  L 8.5 8.92139415178569  L 5.13849395758928 4.96672685267858  L 4.22173723437504 6.04521848214287  L 7.58324327678565 9.99997716517856  L 4.22171782477676 13.9546672991072  L 5.13847454799111 15.0332731473214  L 8.49998059040183 11.0785144642857  L 11.8615060424107 15.0332503125  L 12.7782627656251 13.9546444642857  L 9.41675672321435 10  Z " fill-rule="nonzero" fill="#999999" stroke="none" transform="matrix(1 0 0 1 856 51 )" />
  </g>
</svg>