<?xml version="1.0" encoding="utf-8"?>
<svg version="1.1" xmlns:xlink="http://www.w3.org/1999/xlink" width="30px" height="30px" xmlns="http://www.w3.org/2000/svg">
  <g transform="matrix(1 0 0 1 -387 -168 )">
    <path d="M 30 1.36363636363636  C 30 0.609375  29.5212053571429 0  28.9285714285714 0  L 1.07142857142857 0  C 0.478794642857143 0  0 0.609375  0 1.36363636363636  L 0 28.6363636363636  C 0 29.390625  0.478794642857143 30  1.07142857142857 30  L 28.9285714285714 30  C 29.5212053571429 30  30 29.390625  30 28.6363636363636  L 30 1.36363636363636  Z M 27.5892857142857 3.06818181818182  L 27.5892857142857 8.86363636363636  L 20.4910714285714 8.86363636363636  L 20.4910714285714 3.06818181818182  L 27.5892857142857 3.06818181818182  Z M 27.5892857142857 11.5909090909091  L 27.5892857142857 18.4090909090909  L 20.4910714285714 18.4090909090909  L 20.4910714285714 11.5909090909091  L 27.5892857142857 11.5909090909091  Z M 11.6517857142857 18.4090909090909  L 11.6517857142857 11.5909090909091  L 18.3482142857143 11.5909090909091  L 18.3482142857143 18.4090909090909  L 11.6517857142857 18.4090909090909  Z M 18.3482142857143 3.06818181818182  L 18.3482142857143 8.86363636363636  L 11.6517857142857 8.86363636363636  L 11.6517857142857 3.06818181818182  L 18.3482142857143 3.06818181818182  Z M 2.41071428571429 18.4090909090909  L 2.41071428571429 11.5909090909091  L 9.50892857142857 11.5909090909091  L 9.50892857142857 18.4090909090909  L 2.41071428571429 18.4090909090909  Z M 2.41071428571429 8.86363636363636  L 2.41071428571429 3.06818181818182  L 9.50892857142857 3.06818181818182  L 9.50892857142857 8.86363636363636  L 2.41071428571429 8.86363636363636  Z M 2.41071428571429 26.9318181818182  L 2.41071428571429 21.1363636363636  L 9.50892857142857 21.1363636363636  L 9.50892857142857 26.9318181818182  L 2.41071428571429 26.9318181818182  Z M 11.6517857142857 26.9318181818182  L 11.6517857142857 21.1363636363636  L 18.3482142857143 21.1363636363636  L 18.3482142857143 26.9318181818182  L 11.6517857142857 26.9318181818182  Z M 27.5892857142857 21.1363636363636  L 27.5892857142857 26.9318181818182  L 20.4910714285714 26.9318181818182  L 20.4910714285714 21.1363636363636  L 27.5892857142857 21.1363636363636  Z " fill-rule="nonzero" fill="#aaaaaa" stroke="none" transform="matrix(1 0 0 1 387 168 )" />
  </g>
</svg>