<?xml version="1.0" encoding="utf-8"?>
<svg version="1.1" xmlns:xlink="http://www.w3.org/1999/xlink" width="30px" height="30px" xmlns="http://www.w3.org/2000/svg">
  <g transform="matrix(1 0 0 1 -429 -168 )">
    <path d="M 2.31428571428571 0.237714285714286  L 4.13142857142857 0.237714285714286  C 4.77142857142857 0.237714285714286  5.31428571428572 0.469333333333333  5.76 0.932571428571429  C 6.20571428571429 1.39580952380952  6.42857142857143 1.96876190476191  6.42857142857143 2.65142857142857  L 6.42857142857143 4.51657142857143  C 6.42857142857143 5.1992380952381  6.20571428571429 5.77828571428572  5.76 6.25371428571429  C 5.31428571428572 6.72914285714286  4.77142857142857 6.96685714285714  4.13142857142857 6.96685714285714  L 2.31428571428571 6.96685714285714  C 1.69714285714286 6.96685714285714  1.16571428571429 6.72914285714286  0.72 6.25371428571429  C 0.274285714285715 5.77828571428572  0.0514285714285715 5.1992380952381  0.0514285714285715 4.51657142857143  L 0.0514285714285715 2.65142857142857  C 0.0514285714285715 1.96876190476191  0.274285714285715 1.39580952380952  0.72 0.932571428571429  C 1.16571428571429 0.469333333333333  1.69714285714286 0.237714285714286  2.31428571428571 0.237714285714286  Z M 13.0114285714286 0.237714285714286  L 27.6514285714286 0.237714285714286  C 28.2685714285714 0.237714285714286  28.8 0.469333333333333  29.2457142857143 0.932571428571429  C 29.6914285714286 1.39580952380952  29.9142857142857 1.96876190476191  29.9142857142857 2.65142857142857  L 29.9142857142857 4.51657142857143  C 29.9142857142857 5.1992380952381  29.6914285714286 5.77828571428572  29.2457142857143 6.25371428571429  C 28.8 6.72914285714286  28.2685714285714 6.96685714285714  27.6514285714286 7  L 13.0114285714286 7  C 12.3714285714286 6.96685714285714  11.8285714285714 6.72914285714286  11.3828571428571 6.25371428571429  C 10.9371428571429 5.77828571428572  10.7142857142857 5.1992380952381  10.7142857142857 4.51657142857143  L 10.7142857142857 2.65142857142857  C 10.7142857142857 1.96876190476191  10.9371428571429 1.39580952380952  11.3828571428571 0.932571428571429  C 11.8285714285714 0.469333333333333  12.3714285714286 0.237714285714286  13.0114285714286 0.237714285714286  Z M 2.31428571428571 11.6114285714286  L 4.13142857142857 11.6114285714286  C 4.77142857142857 11.6114285714286  5.31428571428572 11.8491428571429  5.76 12.3245714285714  C 6.20571428571429 12.8  6.42857142857143 13.3790476190476  6.42857142857143 14.0617142857143  L 6.42857142857143 15.9268571428571  C 6.42857142857143 16.5851428571429  6.20571428571429 17.152  5.76 17.6274285714286  C 5.31428571428572 18.1028571428571  4.77142857142857 18.3405714285714  4.13142857142857 18.3405714285714  L 2.31428571428571 18.3405714285714  C 1.69714285714286 18.3405714285714  1.16571428571429 18.1028571428571  0.72 17.6274285714286  C 0.274285714285715 17.152  0.0514285714285715 16.5851428571429  0.0514285714285715 15.9268571428571  L 0.0514285714285715 14.0617142857143  C 0.0514285714285715 13.3790476190476  0.274285714285715 12.8  0.72 12.3245714285714  C 1.16571428571429 11.8491428571429  1.69714285714286 11.6114285714286  2.31428571428571 11.6114285714286  Z M 13.0114285714286 12  L 27.6514285714286 12  C 28.2685714285714 11.6114285714286  28.8 11.8491428571429  29.2457142857143 12.3245714285714  C 29.6914285714286 12.8  29.9142857142857 13.3790476190476  29.9142857142857 14.0617142857143  L 29.9142857142857 15.9268571428571  C 29.9142857142857 16.5851428571429  29.6914285714286 17.152  29.2457142857143 17.6274285714286  C 28.8 18.1028571428571  28.2685714285714 18.3405714285714  27.6514285714286 18  L 13.0114285714286 18  C 12.3714285714286 18.3405714285714  11.8285714285714 18.1028571428571  11.3828571428571 17.6274285714286  C 10.9371428571429 17.152  10.7142857142857 16.5851428571429  10.7142857142857 15.9268571428571  L 10.7142857142857 14.0617142857143  C 10.7142857142857 13.3790476190476  10.9371428571429 12.8  11.3828571428571 12.3245714285714  C 11.8285714285714 11.8491428571429  12.3714285714286 11.6114285714286  13.0114285714286 12  Z M 2.31428571428571 23.0217142857143  L 4.13142857142857 23.0217142857143  C 4.77142857142857 23.0217142857143  5.31428571428572 23.2594285714286  5.76 23.7348571428571  C 6.20571428571429 24.2102857142857  6.42857142857143 24.7771428571429  6.42857142857143 25.4354285714286  L 6.42857142857143 27.3005714285714  C 6.42857142857143 27.9832380952381  6.20571428571429 28.5622857142857  5.76 29.0377142857143  C 5.31428571428572 29.5131428571429  4.77142857142857 29.7508571428571  4.13142857142857 29.7508571428571  L 2.31428571428571 29.7508571428571  C 1.69714285714286 29.7508571428571  1.16571428571429 29.5131428571429  0.72 29.0377142857143  C 0.274285714285715 28.5622857142857  0.0514285714285715 27.9832380952381  0.0514285714285715 27.3005714285714  L 0.0514285714285715 25.4354285714286  C 0.0514285714285715 24.7771428571429  0.274285714285715 24.2102857142857  0.72 23.7348571428571  C 1.16571428571429 23.2594285714286  1.69714285714286 23.0217142857143  2.31428571428571 23.0217142857143  Z M 13.0114285714286 23  L 27.6514285714286 23  C 28.2685714285714 23.0217142857143  28.8 23.2594285714286  29.2457142857143 23.7348571428571  C 29.6914285714286 24.2102857142857  29.9142857142857 24.7771428571429  29.9142857142857 25.4354285714286  L 29.9142857142857 27.3005714285714  C 29.9142857142857 27.9832380952381  29.6914285714286 28.5622857142857  29.2457142857143 29.0377142857143  C 28.8 29.5131428571429  28.2685714285714 29.7508571428571  27.6514285714286 29.7508571428571  L 13.0114285714286 29.7508571428571  C 12.3714285714286 29.7508571428571  11.8285714285714 29.5131428571429  11.3828571428571 29.0377142857143  C 10.9371428571429 28.5622857142857  10.7142857142857 27.9832380952381  10.7142857142857 27.3005714285714  L 10.7142857142857 25.4354285714286  C 10.7142857142857 24.7771428571429  10.9371428571429 24.2102857142857  11.3828571428571 23.7348571428571  C 11.8285714285714 23.2594285714286  12.3714285714286 23.0217142857143  13.0114285714286 23  Z " fill-rule="nonzero" fill="#02a7f0" stroke="none" transform="matrix(1 0 0 1 429 168 )" />
  </g>
</svg>