<?xml version="1.0" encoding="utf-8"?>
<svg version="1.1" xmlns:xlink="http://www.w3.org/1999/xlink" width="17px" height="19px" xmlns="http://www.w3.org/2000/svg">
  <g transform="matrix(1 0 0 1 -556 -110 )">
    <path d="M 16.9273354162947 9.5  C 16.9273354162947 14.7018217388393  13.1542615558036 18.9187866417411  8.5 18.9187866417411  C 3.8457384441964 18.9187866417411  0.0726645837053184 14.7018217388393  0.0726645837053184 9.5  C 0.0726645837053184 4.29806977455357  3.8457384441964 0.081213358258917  8.5 0.081213358258917  C 13.1542615558036 0.081213358258917  16.9273354162947 4.2980697533482  16.9273354162947 9.5  Z M 9.41675672321435 9.5  L 12.778262765625 5.74295755803572  L 11.8615060424107 4.71839051004465  L 8.5 8.47532444419641  L 5.13849395758928 4.71839051004465  L 4.22173723437504 5.74295755803572  L 7.58324327678565 9.49997830691963  L 4.22171782477676 13.2569339341518  L 5.13847454799111 14.2816094899554  L 8.49998059040183 10.5245887410714  L 11.8615060424107 14.281587796875  L 12.7782627656251 13.2569122410714  L 9.41675672321435 9.5  Z " fill-rule="nonzero" fill="#999999" stroke="none" transform="matrix(1 0 0 1 556 110 )" />
  </g>
</svg>