<?xml version="1.0" encoding="utf-8"?>
<svg version="1.1" xmlns:xlink="http://www.w3.org/1999/xlink" width="18px" height="18px" xmlns="http://www.w3.org/2000/svg">
  <g transform="matrix(1 0 0 1 -11 -14 )">
    <path d="M 4.2709376953125 7.390198828125  L 3.3415875 8.28767109375  L 6.029296875 8.28767109375  C 6.13026143082844 8.28767109375  6.212109375 8.36951903792156  6.212109375 8.47048359375  L 6.212109375 9.75017109375  L 3.416769140625 9.75017109375  L 4.11186796875 10.4699953125  C 4.14478418233546 10.5040782858745  4.16318130683593 10.5496101111923  4.16318130683593 10.5969928737843  C 4.16318130683593 10.6465818764828  4.14303619971127 10.6940433690948  4.1073662109375 10.7284921875  L 3.18683671875 11.61741796875  L 0.710481445312499 9.05310703125  C 0.677572005686785 9.01902515007158  0.659179134156309 8.97349816010801  0.659179134156309 8.92612088875203  C 0.659179134156309 8.87652617988243  0.679328863621974 8.82905973078343  0.715006054687499 8.79461015625  L 1.61300390625 7.927393359375  L 1.611221484375 7.925565234375  L 3.1235150390625 6.4651447265625  C 3.15759692024092 6.43223528693678  3.20312391020449 6.41384241540631  3.25050118156047 6.41384241540631  C 3.30009589043007 6.41384241540631  3.34756233952907 6.43399214487197  3.3820119140625 6.4696693359375  L 4.2709376953125 7.390198828125  Z M 4.2697265625 2.4416015625  C 4.2697265625 3.4512521484375  3.4512521484375 4.2697265625  2.4416015625 4.2697265625  C 1.4319509765625 4.2697265625  0.6134765625 3.4512521484375  0.6134765625 2.4416015625  C 0.6134765625 1.4319509765625  1.4319509765625 0.6134765625  2.4416015625 0.6134765625  C 3.4512521484375 0.6134765625  4.2697265625 1.4319509765625  4.2697265625 2.4416015625  Z M 5.0009765625 0.9791015625  C 5.0009765625 0.7771623046875  5.1646623046875 0.6134765625  5.3666015625 0.6134765625  L 17.3865234375 0.6134765625  L 17.3865234375 3.9041015625  C 17.3865234375 4.1060408203125  17.2228376953125 4.2697265625  17.0208984375 4.2697265625  L 5.0009765625 4.2697265625  L 5.0009765625 0.9791015625  Z M 0.6134765625 14.0958984375  C 0.6134765625 13.8939591796875  0.7771623046875 13.7302734375  0.9791015625 13.7302734375  L 17.3865234375 13.7302734375  L 17.3865234375 17.0208984375  C 17.3865234375 17.2228376953125  17.2228376953125 17.3865234375  17.0208984375 17.3865234375  L 0.6134765625 17.3865234375  L 0.6134765625 14.0958984375  Z M 6.9662109375 7.5375  C 6.9662109375 7.3355607421875  7.1298966796875 7.171875  7.3318359375 7.171875  L 17.3865234375 7.171875  L 17.3865234375 10.4625  C 17.3865234375 10.6644392578125  17.2228376953125 10.828125  17.0208984375 10.828125  L 6.9662109375 10.828125  L 6.9662109375 7.5375  Z " fill-rule="nonzero" fill="#000000" stroke="none" transform="matrix(1 0 0 1 11 14 )" />
  </g>
</svg>