<?xml version="1.0" encoding="utf-8"?>
<svg version="1.1" xmlns:xlink="http://www.w3.org/1999/xlink" width="264px" height="40px" xmlns="http://www.w3.org/2000/svg">
  <g transform="matrix(1 0 0 1 -14 -75 )">
    <path d="M 15 80  A 4 4 0 0 1 19 76 L 273 76  A 4 4 0 0 1 277 80 L 277 110  A 4 4 0 0 1 273 114 L 19 114  A 4 4 0 0 1 15 110 L 15 80  Z " fill-rule="nonzero" fill="#ffffff" stroke="none" fill-opacity="0" />
    <path d="M 14.5 80  A 4.5 4.5 0 0 1 19 75.5 L 273 75.5  A 4.5 4.5 0 0 1 277.5 80 L 277.5 110  A 4.5 4.5 0 0 1 273 114.5 L 19 114.5  A 4.5 4.5 0 0 1 14.5 110 L 14.5 80  Z " stroke-width="1" stroke-dasharray="3,1" stroke="#d7d7d7" fill="none" stroke-dashoffset="0.5" />
  </g>
</svg>