<?xml version="1.0" encoding="utf-8"?>
<svg version="1.1" xmlns:xlink="http://www.w3.org/1999/xlink" width="6px" height="10px" xmlns="http://www.w3.org/2000/svg">
  <g transform="matrix(1 0 0 1 -255 -91 )">
    <path d="M 1.173828125 0.947265625  C 0.943359375 0.947265625  0.7578125 1.1328125  0.7578125 1.36328125  L 0.7578125 8.818359375  C 0.7578125 9.046875  0.9453125 9.234375  1.173828125 9.234375  C 1.40234375 9.234375  1.58984375 9.046875  1.58984375 8.818359375  L 1.58984375 1.36328125  C 1.58984375 1.134765625  1.40234375 0.947265625  1.173828125 0.947265625  Z M 4.82421875 0.947265625  C 4.595703125 0.947265625  4.408203125 1.1328125  4.408203125 1.36328125  L 4.408203125 8.818359375  C 4.408203125 9.046875  4.595703125 9.234375  4.82421875 9.234375  C 5.052734375 9.234375  5.240234375 9.046875  5.240234375 8.818359375  L 5.240234375 1.36328125  C 5.240234375 1.134765625  5.052734375 0.947265625  4.82421875 0.947265625  Z " fill-rule="nonzero" fill="#ffffff" stroke="none" transform="matrix(1 0 0 1 255 91 )" />
  </g>
</svg>