<?xml version="1.0" encoding="utf-8"?>
<svg version="1.1" xmlns:xlink="http://www.w3.org/1999/xlink" width="12px" height="16px" xmlns="http://www.w3.org/2000/svg">
  <g transform="matrix(1 0 0 1 -252 -87 )">
    <path d="M 11.5 4.48046875  C 11.51953125 4.25  11.3515625 4.048828125  11.123046875 4.02734375  C 10.89453125 4.0078125  10.69140625 4.177734375  10.671875 4.404296875  L 9.736328125 14.978515625  L 2.265625 14.978515625  L 1.330078125 4.40625  C 1.310546875 4.177734375  1.107421875 4.0078125  0.87890625 4.029296875  C 0.650390624999999 4.05078125  0.48046875 4.251953125  0.501953124999999 4.48046875  L 1.44921875 15.19140625  C 1.462890625 15.537109375  1.744140625 15.814453125  2.091796875 15.814453125  L 9.91015625 15.814453125  C 10.2578125 15.814453125  10.541015625 15.537109375  10.552734375 15.19140625  L 11.5 4.48046875  Z M 0.498046875 2.765625  C 0.498046875 2.994140625  0.685546875 3.181640625  0.9140625 3.181640625  C 1.142578125 3.181640625  1.330078125 2.994140625  1.330078125 2.765625  C 1.330078125 2.701171875  1.3828125 2.64453125  1.4453125 2.64453125  L 10.556640625 2.64453125  C 10.6171875 2.64453125  10.671875 2.69921875  10.671875 2.765625  C 10.671875 2.994140625  10.859375 3.181640625  11.087890625 3.181640625  C 11.31640625 3.181640625  11.50390625 2.994140625  11.50390625 2.765625  C 11.50390625 2.240234375  11.078125 1.8125  10.556640625 1.8125  L 8.71484375 1.8125  L 8.71484375 0.82421875  C 8.71484375 0.47265625  8.427734375 0.185546875  8.076171875 0.185546875  L 3.92578125 0.185546875  C 3.57421875 0.185546875  3.287109375 0.47265625  3.287109375 0.82421875  L 3.287109375 1.8125  L 1.4453125 1.8125  C 0.923828125 1.8125  0.498046875 2.240234375  0.498046875 2.765625  Z M 4.119140625 1.8125  L 4.119140625 1.01953125  L 7.8828125 1.01953125  L 7.8828125 1.8125  L 4.119140625 1.8125  Z " fill-rule="nonzero" fill="#ffffff" stroke="none" transform="matrix(1 0 0 1 252 87 )" />
  </g>
</svg>