<?xml version="1.0" encoding="utf-8"?>
<svg version="1.1" xmlns:xlink="http://www.w3.org/1999/xlink" width="46px" height="46px" xmlns="http://www.w3.org/2000/svg">
  <g transform="matrix(1 0 0 1 -21 -15 )">
    <path d="M 45.3483690559788 23  C 45.3483690559788 10.6348707651817  35.3248310028194 0.611332712022366  22.9597017680011 0.611332712022366  C 10.5945725331829 0.611332712022366  0.571034480023487 10.6348707651817  0.571034480023487 23  C 0.571034480023487 35.3651292348183  10.5945725331829 45.3886672879776  22.9597017680011 45.3886672879776  C 35.3248310028194 45.3886672879776  45.3483690559788 35.3651292348183  45.3483690559788 23  Z M 16.7745032025957 14.6417837117987  C 18.2673005211046 13.1740090085741  20.6780331984205 12.74335643411  23.0927167758669 12.5313225928052  C 27.0601203276283 12.1875906957689  27.677784128113 13.2727825613047  28.7228081445901 13.320852341808  C 32.5861702476283 13.5025956281081  31.5529991064541 18.3899100324697  31.2408747165566 21.7936459144455  C 31.425910448784 21.9483911353961  31.5819726655966 22.1360608156198  31.7136706776004 23  L 15.3798208951586 23  C 15.4785944478893 22.217055099124  15.5918547364634 22.1037948105499  15.7281622339843 22.0129231892637  C 15.3376775523068 19.0556436571855  15.2454888914308 16.1464338618826  16.7745032025957 14.6417837117987  Z M 9.78989746294986 16.4150978693383  L 9.78989746294986 11.1471761210811  L 15.7163094024093 11.1471761210811  L 15.7163094024093 12.4641565909413  L 11.1068779328101 12.4641565909413  L 11.1068779328101 16.4150978693383  L 9.78989746294986 16.4150978693383  Z M 15.7163094024093 32.8773532178565  L 15.7163094024093 34.1943336439888  L 9.78989746294986 34.1943336439888  L 9.78989746294986 28.9264119394595  L 11.1068779328101 28.9264119394595  L 11.1068779328101 32.8773532178565  L 15.7163094024093 32.8773532178565  Z M 26.9106430463981 34.9351351145573  L 28.426487530126 34.1179487585461  L 30.2030941335929 36.8282944962535  L 25.5936626202658 40.1207455834483  L 23.6181920029312 37.4867847311836  L 20.9842311069387 40.1207455834483  L 17.0332898285417 36.1698043050513  L 19.2721565573394 33.9309375762535  L 20.3257409157364 34.8528238789189  L 20.3224484698091 32.012097081342  L 20.3310088554569 32.0101215875489  C 18.5471588622043 30.6378279911277  17.3012953817942 28.2692387003914  16.5980278122882 26.1647039753215  C 15.5477358998185 25.7702683497856  14.9761664297719 24.6666387170923  14.9682645420552 23  L 32.1574930795016 23  C 32.2509986925118 24.6725651547437  31.8321989058949 25.6872985724884  30.8023202106479 25.943451250438  C 30.0575677962211 28.1783670353774  28.8064363760906 30.6095129299161  26.9106430463981 32.0048536915564  L 26.9106430463981 34.9351351145573  Z M 36.7879962642546 28.9264119394595  L 36.7879962642546 34.1943336439888  L 30.8615843247952 34.1943336439888  L 30.8615843247952 32.8773532178565  L 35.4710158381223 32.8773532178565  L 35.4710158381223 28.9264119394595  L 36.7879962642546 28.9264119394595  Z M 36.7879962642546 11.1471761210811  L 36.7879962642546 16.4150978693383  L 35.4710158381223 16.4150978693383  L 35.4710158381223 12.4641565909413  L 30.8615843247952 12.4641565909413  L 30.8615843247952 11.1471761210811  L 36.7879962642546 11.1471761210811  Z " fill-rule="nonzero" fill="#222222" stroke="none" fill-opacity="0.364705882352941" transform="matrix(1 0 0 1 21 15 )" />
  </g>
</svg>