<?xml version="1.0" encoding="utf-8"?>
<svg version="1.1" xmlns:xlink="http://www.w3.org/1999/xlink" width="197px" height="168px" xmlns="http://www.w3.org/2000/svg">
  <g transform="matrix(1 0 0 1 -509 -119 )">
    <path d="M 197 103.784007352941  L 168.547116427951 53  L 28.7377170138889 53  L 1 103.784007352941  L 1 167  L 197 167  L 197 103.784007352941  Z M 185.177007378472 104  L 123.609163411458 104  C 123.609163411458 118.182368259804  112.434928385417 129.393305759804  98.6314615885417 129.393305759804  C 84.8279947916667 129.393305759804  73.653759765625 118.182368259804  73.653759765625 104  L 12.0640055338542 104  L 34.8068603515625 61  L 162.434152560764 61  L 185.177007378472 104  Z M 97 31.1547181372549  L 97 0.247702205882353  L 105 0.247702205882353  L 105 31.1547181372549  L 97 31.1547181372549  Z M 59.9977490505642 37.4462522977941  L 38.2150020345052 15.5917386642157  L 44.2725329318576 9.51431142769608  L 66.0554990505642 31.3686052389706  L 59.9977490505642 37.4462522977941  Z M 138.638509521484 37.4601011029412  L 132.580759521484 31.3826738664216  L 154.363506537543 9.52816023284314  L 160.421256537543 15.6058072916667  L 138.638509521484 37.4601011029412  Z " fill-rule="nonzero" fill="#d7d7d7" stroke="none" fill-opacity="0.501960784313725" transform="matrix(1 0 0 1 509 119 )" />
  </g>
</svg>