<?xml version="1.0" encoding="utf-8"?>
<svg version="1.1" xmlns:xlink="http://www.w3.org/1999/xlink" width="11px" height="6px" xmlns="http://www.w3.org/2000/svg">
  <g transform="matrix(1 0 0 1 -15 -13 )">
    <path d="M 10.6983870967742 4.82357142857143  C 10.8314516129032 4.95214285714286  10.8979838709678 5.10428571428571  10.8979838709678 5.28214285714286  C 10.8979838709678 5.45785714285714  10.8314516129032 5.61214285714285  10.6983870967742 5.74071428571428  C 10.5653225806452 5.86928571428572  10.4056451612903 5.93357142857142  10.2237903225806 5.93357142857142  L 0.776209677419352 5.93357142857142  C 0.594354838709684 5.93357142857142  0.434677419354834 5.86928571428572  0.301612903225845 5.74071428571428  C 0.168548387096777 5.61214285714285  0.102016129032243 5.46  0.102016129032243 5.28214285714286  C 0.102016129032243 5.10642857142858  0.168548387096777 4.95214285714286  0.301612903225845 4.82357142857143  L 5.02540322580641 0.259285714285719  C 5.15846774193548 0.130714285714285  5.31592741935485 0.0664285714285793  5.5 0.0664285714285793  C 5.68185483870967 0.0664285714285793  5.84153225806452 0.130714285714285  5.97459677419359 0.259285714285719  L 10.6983870967742 4.82357142857143  Z " fill-rule="nonzero" fill="#dbdbdb" stroke="none" transform="matrix(1 0 0 1 15 13 )" />
  </g>
</svg>