<?xml version="1.0" encoding="utf-8"?>
<svg version="1.1" xmlns:xlink="http://www.w3.org/1999/xlink" width="11px" height="6px" xmlns="http://www.w3.org/2000/svg">
  <g transform="matrix(1 0 0 1 -15 -21 )">
    <path d="M 10.2237903225806 0.137500000000006  C 10.4078629032258 0.137500000000006  10.5653225806452 0.200000000000006  10.6983870967742 0.325000000000006  C 10.8314516129032 0.450000000000006  10.8979838709678 0.600000000000005  10.8979838709678 0.770833333333332  C 10.8979838709678 0.941666666666663  10.8314516129032 1.09166666666666  10.6983870967742 1.21666666666666  L 5.97459677419359 5.65416666666666  C 5.84153225806452 5.77916666666666  5.68185483870967 5.84166666666666  5.5 5.84166666666666  C 5.31814516129033 5.84166666666666  5.15846774193548 5.77916666666666  5.02540322580641 5.65416666666666  L 0.301612903225845 1.21666666666666  C 0.168548387096777 1.09166666666666  0.102016129032243 0.943750000000005  0.102016129032243 0.770833333333332  C 0.102016129032243 0.600000000000005  0.168548387096777 0.450000000000006  0.301612903225845 0.325000000000006  C 0.434677419354834 0.200000000000006  0.592137096774202 0.137500000000006  0.776209677419352 0.137500000000006  L 10.2237903225806 0.137500000000006  Z " fill-rule="nonzero" fill="#000000" stroke="none" transform="matrix(1 0 0 1 15 21 )" />
  </g>
</svg>