<?xml version="1.0" encoding="utf-8"?>
<svg version="1.1" xmlns:xlink="http://www.w3.org/1999/xlink" width="32px" height="41px" xmlns="http://www.w3.org/2000/svg">
  <g transform="matrix(1 0 0 1 -272 -204 )">
    <path d="M 31.9864429052632 16.0661533068182  C 31.9864429052632 7.22150823140496  24.8745178947368 0.0514034535123984  16.1016783578947 0.0514034111570248  C 7.32883882105263 0.0514034111570248  0.216913810526316 7.22150818904959  0.216913810526316 16.0661533068182  C 0.216913810526316 24.9111564545455  16.1016783578947 40.7377376549587  16.1016783578947 40.7377376549587  C 16.1016783578947 40.7377376549587  31.9864429052632 24.9111564545455  31.9864429052632 16.0661533068182  Z M 26.3800554105263 16.0305247727273  C 26.3800554105263 21.740934589876  21.7783681684211 26.3699562345041  16.1016783578947 26.3699562345041  C 10.4249885473684 26.3699562345041  5.82330130526316 21.740934589876  5.82330130526316 16.0305247727273  C 5.82330130526316 10.3201149555785  10.4249885473684 5.69109331095041  16.1016783578947 5.69109331095041  C 21.7783681684211 5.69109331095041  26.3800554105263 10.3201149555785  26.3800554105263 16.0305247727273  Z " fill-rule="nonzero" fill="#10acae" stroke="none" transform="matrix(1 0 0 1 272 204 )" />
  </g>
</svg>