<?xml version="1.0" encoding="utf-8"?>
<svg version="1.1" xmlns:xlink="http://www.w3.org/1999/xlink" width="16px" height="15px" xmlns="http://www.w3.org/2000/svg">
  <g transform="matrix(1 0 0 1 -281 -212 )">
    <path d="M 4.26509276595745 8.89643890988371  L 3.30528527659574 10.3455511482558  L 1.38603008510638 10.3455511482558  L 1.54593804255319 8.09115126453488  L 0.266494510638296 7.6080524127907  L 0.266494510638296 14.6932565406977  L 1.38620995744681 14.2101576889535  L 1.38620995744681 11.7948477034884  L 4.26509276595745 11.6339376453488  L 5.70444425531915 9.86263661337209  L 4.26509276595745 8.89643890988371  Z M 11.4623897446808 11.9557578052326  L 1.38603008510638 5.19255815406977  L 0.586310425531913 5.99766143895349  L 10.982486 12.7606767732558  L 12.1020215744681 12.9217711918605  L 13.2217369787234 10.9895601017442  L 11.4623897446808 11.9557578052326  Z M 11.3023019148936 10.9895601017442  L 12.2619295319149 10.9895601017442  L 15.7806240425532 8.09096694767442  L 3.7851890212766 0.0395651162790703  L 2.18574974468086 0.0395651162790703  L 0.266494510638301 2.93815827034884  L 0.266494510638301 3.90435597383721  L 11.3023019148936 10.9895601017442  Z " fill-rule="nonzero" fill="#10acae" stroke="none" transform="matrix(1 0 0 1 281 212 )" />
  </g>
</svg>