<?xml version="1.0" encoding="utf-8"?>
<svg version="1.1" xmlns:xlink="http://www.w3.org/1999/xlink" width="12px" height="17px" xmlns="http://www.w3.org/2000/svg">
  <g transform="matrix(1 0 0 1 -212 -335 )">
    <path d="M 11.220625 11.403125  L 11.220625 6.104375  C 11.2262489145117 6.00326174136362  11.2290625 5.90201174890316  11.2290625 5.80074221011433  C 11.2290625 2.78112534041446  8.78117936969986 0.333242210114326  5.7615625 0.333242210114326  C 2.74194563030014 0.333242210114326  0.294062500000001 2.78112534041446  0.294062500000001 5.80074221011433  C 0.294062500000001 5.90201174890316  0.29687608548827 6.00326174136362  0.302500000000002 6.104375  L 0.3025 9.614375  C 0.894544702938314 8.56893484447207  1.77269331430523 7.71420352940827  2.83375 7.150625  L 2.83375 6.104375  C 2.82812702192693 6.03036277465238  2.8253125 5.95616394780424  2.8253125 5.88193843074091  C 2.8253125 4.26029233405025  4.13991640330934 2.94568843074091  5.7615625 2.94568843074091  C 7.38320859669067 2.94568843074091  8.6978125 4.26029233405025  8.6978125 5.88193843074091  C 8.6978125 5.95616394780424  8.69499797807307 6.03036277465238  8.689375 6.104375  L 8.689375 11.403125  C 8.689375 13.0247710966907  7.37477109669067 14.339375  5.753125 14.339375  C 5.08029550934426 14.3343752931721  4.43010319612576 14.0957726094221  3.91375 13.664375  L 3.91375 16.533125  C 4.50239554538644 16.7524151506664  5.12497219782696 16.8666493988206  5.753125 16.870625  C 8.77274186969986 16.870625  11.220625 14.4227418696999  11.220625 11.403125  Z " fill-rule="nonzero" fill="#02a7f0" stroke="none" transform="matrix(1 0 0 1 212 335 )" />
  </g>
</svg>