<?xml version="1.0" encoding="utf-8"?>
<svg version="1.1" xmlns:xlink="http://www.w3.org/1999/xlink" width="12px" height="18px" xmlns="http://www.w3.org/2000/svg">
  <g transform="matrix(1 0 0 1 -212 -342 )">
    <path d="M 11.220625 7.508125  C 10.6242676939031 8.5416830483648  9.74640344799043 9.38443272444096  8.689375 9.938125  L 8.689375 11.490625  C 8.69499797807307 11.5646372253476  8.6978125 11.6388360521958  8.6978125 11.7130615692591  C 8.6978125 13.3347076659498  7.38320859669066 14.6493115692591  5.7615625 14.6493115692591  C 4.13991640330933 14.6493115692591  2.8253125 13.3347076659498  2.8253125 11.7130615692591  C 2.8253125 11.6388360521958  2.82812702192693 11.5646372253476  2.83375 11.490625  L 2.83375 5.719375  C 2.83372332718898 4.10429620713239  4.13807287972316 2.79240706180899  5.753125 2.783125  C 6.14202153834721 2.78533413097649  6.52650834176383 2.86567465706355  6.88375 3.019375  C 7.13945069789775 3.13157986946252  7.37805008433652 3.27928425154366  7.5925 3.458125  L 7.5925 0.589375  C 7.00366930330907 0.370757089625258  6.38121223377106 0.256544783288009  5.753125 0.251875  C 2.74010032155778 0.261174503143481  0.302485648880777 2.70633597047274  0.3025 5.719375  L 0.3025 11.5075  C 0.29687608548827 11.6086132586364  0.294062499999999 11.7098632510968  0.294062499999999 11.8111327898857  C 0.294062499999999 14.8307496595855  2.74194563030014 17.2786327898857  5.7615625 17.2786327898857  C 8.78117936969986 17.2786327898857  11.2290625 14.8307496595855  11.2290625 11.8111327898857  C 11.2290625 11.7098632510968  11.2262489145117 11.6086132586364  11.220625 11.5075  L 11.220625 7.508125  Z " fill-rule="nonzero" fill="#02a7f0" stroke="none" transform="matrix(1 0 0 1 212 342 )" />
  </g>
</svg>