<?xml version="1.0" encoding="utf-8"?>
<svg version="1.1" xmlns:xlink="http://www.w3.org/1999/xlink" width="11px" height="11px" xmlns="http://www.w3.org/2000/svg">
  <g transform="matrix(1 0 0 1 -5 -148 )">
    <path d="M 3.82997985471698 10.5707420707547  C 3.7706185 10.7099847509434  3.63504010660377 10.7938967877359  3.4924995745283 10.7938967877359  C 3.44486391886792 10.7938967877359  3.39612897924528 10.7847360811321  3.34959260754717 10.7649489698113  C 1.31481732924528 9.90054506037736  7.32849056603774E-05 7.90974116132075  7.32849056603774E-05 5.69211825849056  C 7.32849056603774E-05 2.65662781792453  2.46063802641509 0.186902380188679  5.48476918207547 0.186902380188679  C 8.50926678301887 0.186902380188679  10.9701979490566 2.65662781792453  10.9701979490566 5.69211825849056  C 10.9701979490566 7.88152619245283  9.7177466764151 9.87086438301887  7.77934199339623 10.7605518235849  C 7.59612793396226 10.8444638603774  7.37773678773585 10.7642161103774  7.29345832641509 10.5802692018868  C 7.20917985471698 10.3963222933962  7.28979403962264 10.1786639962264  7.47374094811321 10.0943855349057  C 9.15234810849057 9.32378721792453  10.2373417320755 7.59571226886793  10.2373417320755 5.69211825849056  C 10.2373417320755 3.06079802641509  8.10546300943396 0.919758597169811  5.48476918207547 0.919758597169811  C 2.8648082245283 0.919758597169811  0.732929501886793 3.06079802641509  0.732929501886793 5.69211825849056  C 0.732929501886793 7.61513295566038  1.87252090943396 9.34137577169811  3.63577295566038 10.0899883886792  C 3.82228486698113 10.1691368650943  3.90912833113208 10.3845965943396  3.82997985471698 10.5707420707547  Z M 5.85138050283019 6.17166271886793  C 5.85138050283019 6.37429746509434  5.68722071603774 6.53809082735849  5.48495240471698 6.53809082735849  C 5.28268408301887 6.53809082735849  5.11852429622642 6.37429746509434  5.11852429622642 6.17166271886793  L 5.11852429622642 4.06470110283019  C 5.11852429622642 3.86206636698113  5.28268408301887 3.69827299433962  5.48495240471698 3.69827299433962  C 5.68722071603774 3.69827299433962  5.85138050283019 3.86206636698113  5.85138050283019 4.06470110283019  L 5.85138050283019 6.17166271886793  Z M 8.96605606226415 6.17166271886793  C 8.96605606226415 6.37429746509434  8.80189626509434 6.53809082735849  8.59962795377358 6.53809082735849  L 5.48498904716981 6.53809082735849  C 5.2827207254717 6.53809082735849  5.11856093867925 6.37429746509434  5.11856093867925 6.17166271886793  C 5.11856093867925 5.96902797264151  5.2827207254717 5.80523461037736  5.48498904716981 5.80523461037736  L 8.59962795377358 5.80523461037736  C 8.80189626509434 5.80523461037736  8.96605606226415 5.96902797264151  8.96605606226415 6.17166271886793  Z " fill-rule="nonzero" fill="#616367" stroke="none" transform="matrix(1 0 0 1 5 148 )" />
  </g>
</svg>