<?xml version="1.0" encoding="utf-8"?>
<svg version="1.1" xmlns:xlink="http://www.w3.org/1999/xlink" width="7px" height="42px" xmlns="http://www.w3.org/2000/svg">
  <g transform="matrix(1 0 0 1 -782 -439 )">
    <path d="M 6.24982791893862 40.6045405373961  C 6.30252241513227 40.7668439097473  6.36986442977922 40.85609650681  6.43952299985421 40.8559553296399  C 6.52100680176896 40.8559553296399  6.60199007902027 40.734705634349  6.65934906896049 40.4979121163435  C 6.76415684774262 40.0656926371191  6.75074306108762 39.4127273628809  6.62941828410361 39.0393496509695  L 0.766288748797201 20.9998919556787  L 6.62941828410361 2.9607908531856  C 6.75074305020168 2.58741314127424  6.76415684774262 1.93444786703601  6.65934906896049 1.50222838781164  C 6.55454129017835 1.07000890858726  6.37125279214657 1.02222225484765  6.2499280260485 1.395599966759  L 0.132336798561501 20.2171182160665  C 0.0685712257374739 20.413614033241  0.0318334404432133 20.6992640221607  0.0318334404432133 20.9998919556787  C 0.0318334404432133 21.3005198891967  0.0685712257374739 21.5861698781163  0.132336798561501 21.7826656952909  L 6.24982791893862 40.6045405373961  Z " fill-rule="nonzero" fill="#7f7f7f" stroke="none" transform="matrix(1 0 0 1 782 439 )" />
  </g>
</svg>