<?xml version="1.0" encoding="utf-8"?>
<svg version="1.1" xmlns:xlink="http://www.w3.org/1999/xlink" width="18px" height="142px" xmlns="http://www.w3.org/2000/svg">
  <g transform="matrix(1 0 0 1 -17 -233 )">
    <path d="M 16.0709860772707 137.282018007387  C 16.2064862103401 137.830757980574  16.3796513908608 138.13251676112  16.5587734281965 138.13203944783  C 16.7683032045488 138.13203944783  16.9765459174807 137.722100001847  17.1240404630413 136.921512393352  C 17.3935461799096 135.460198915974  17.3590535856539 133.252554417359  17.047075587695 131.990182153278  L 1.97045678262137 70.9996347072946  L 17.047075587695 10.0102928845799  C 17.3590535576615 8.74792062049862  17.3935461799096 6.54027612188366  17.1240404630413 5.078962644506  C 16.8545347461729 3.61764916712835  16.3832214655198 3.45608476638966  16.0712434955533 4.71845703047092  L 0.34029462487243 68.3531139686057  C 0.176326009039219 69.0174569695291  0.0818574182825485 69.9832259796861  0.0818574182825485 70.9996347072946  C 0.0818574182825485 72.016043434903  0.176326009039219 72.98181244506  0.34029462487243 73.6461554459834  L 16.0709860772707 137.282018007387  Z " fill-rule="nonzero" fill="#d7d7d7" stroke="none" fill-opacity="0.698039215686274" transform="matrix(1 0 0 1 17 233 )" />
  </g>
</svg>