<?xml version="1.0" encoding="utf-8"?>
<svg version="1.1" xmlns:xlink="http://www.w3.org/1999/xlink" width="59px" height="200px" xmlns="http://www.w3.org/2000/svg">
  <defs>
    <mask fill="white" id="clip53">
      <path d="M 6.5269461077844 190  C 3.76552235863039 190.026036445757  0 187.787460194911  0 185.026036445758  L 0 173.235431235432  L 0 5.00000000000003  C 0 2.23857625084622  3.40840840841065 0  6.5269461077844 0  L 53.9999999999998 0  C 56.7614237491537 0  58.9999999999997 2.23857625084622  58.9999999999997 5.00000000000003  L 58.9999999999997 185.026036445758  C 58.9999999999997 187.787460194911  56.7614237491537 190.026036445757  53.9999999999998 190.026036445757  L 45.5527950310557 190.026036445757  L 35.6666666666665 199.559394823206  L 25.5527950310559 190  L 6.5269461077844 190  Z " fill-rule="evenodd" />
    </mask>
  </defs>
  <g>
    <path d="M 6.5269461077844 190  C 3.76552235863039 190.026036445757  0 187.787460194911  0 185.026036445758  L 0 173.235431235432  L 0 5.00000000000003  C 0 2.23857625084622  3.40840840841065 0  6.5269461077844 0  L 53.9999999999998 0  C 56.7614237491537 0  58.9999999999997 2.23857625084622  58.9999999999997 5.00000000000003  L 58.9999999999997 185.026036445758  C 58.9999999999997 187.787460194911  56.7614237491537 190.026036445757  53.9999999999998 190.026036445757  L 45.5527950310557 190.026036445757  L 35.6666666666665 199.559394823206  L 25.5527950310559 190  L 6.5269461077844 190  Z " fill-rule="nonzero" fill="#ffffff" stroke="none" />
    <path d="M 6.5269461077844 190  C 3.76552235863039 190.026036445757  0 187.787460194911  0 185.026036445758  L 0 173.235431235432  L 0 5.00000000000003  C 0 2.23857625084622  3.40840840841065 0  6.5269461077844 0  L 53.9999999999998 0  C 56.7614237491537 0  58.9999999999997 2.23857625084622  58.9999999999997 5.00000000000003  L 58.9999999999997 185.026036445758  C 58.9999999999997 187.787460194911  56.7614237491537 190.026036445757  53.9999999999998 190.026036445757  L 45.5527950310557 190.026036445757  L 35.6666666666665 199.559394823206  L 25.5527950310559 190  L 6.5269461077844 190  Z " stroke-width="2" stroke="#e9e9e9" fill="none" mask="url(#clip53)" />
  </g>
</svg>