<?xml version="1.0" encoding="utf-8"?>
<svg version="1.1" xmlns:xlink="http://www.w3.org/1999/xlink" width="14px" height="15px" xmlns="http://www.w3.org/2000/svg">
  <g transform="matrix(1 0 0 1 -833 -654 )">
    <path d="M 11.0868022440393 13.9561009817672  C 10.8668863955119 14.1244039270687  10.609270687237 14.2186535764376  10.3453716690042 14.2186535764376  C 10.1631556802244 14.2186535764376  9.9558064516129 14.1647966339411  9.76730715287518 14.0570827489481  L 7.04035063113604 12.5962131837307  L 4.29454417952314 14.0570827489481  C 4.11861150070126 14.158064516129  3.92382889200561 14.2119214586255  3.71647966339411 14.2119214586255  C 3.45258064516129 14.2119214586255  3.1949649368864 14.1244039270687  2.98761570827489 13.9561009817672  C 2.60433380084151 13.6464235624123  2.40955119214586 13.1145862552595  2.4975175315568 12.623141654979  L 3.05673211781206 9.50617110799439  L 0.901556802244039 7.3586255259467  C 0.568541374474053 6.99509116409537  0.442875175315568 6.47671809256662  0.568541374474053 5.98527349228612  L 0.574824684431978 5.97180925666199  C 0.731907433380084 5.46690042075736  1.12147265077139 5.11683029453015  1.59272089761571 5.04950911640954  L 4.58357643758766 4.46381486676017  L 5.92192145862553 1.54207573632539  C 6.13555399719495 1.07755960729313  6.57538569424965 0.781346423562413  7.04035063113604 0.781346423562413  C 7.52416549789621 0.781346423562413  7.97656381486676 1.09102384291725  8.16506311360449 1.54880785413745  L 9.50340813464236 4.46381486676017  L 12.4942636746143 5.02258064516129  C 12.9655119214586 5.09663394109397  13.3613604488079 5.4601683029453  13.4933099579243 5.95834502103787  C 13.6441093969144 6.44305750350631  13.518443197756 6.97489481065919  13.1791444600281 7.33842917251052  L 13.1728611500701 7.34516129032258  L 11.030252454418 9.51290322580645  L 11.5706171107994 12.6366058906031  C 11.6585834502104 13.1347826086957  11.4700841514727 13.6396914446003  11.0868022440393 13.9561009817672  Z " fill-rule="nonzero" fill="#d7d7d7" stroke="none" fill-opacity="0.529411764705882" transform="matrix(1 0 0 1 833 654 )" />
  </g>
</svg>