<?xml version="1.0" encoding="utf-8"?>
<svg version="1.1" xmlns:xlink="http://www.w3.org/1999/xlink" width="13px" height="15px" xmlns="http://www.w3.org/2000/svg">
  <g transform="matrix(1 0 0 1 -883 -653 )">
    <path d="M 3.17613636363636 6.5948275862069  C 3.17613636363636 8.19504310344828  4.671875 9.50431034482759  6.5 9.50431034482759  C 8.328125 9.50431034482759  9.82386363636364 8.19504310344828  9.82386363636364 6.5948275862069  L 9.82386363636364 3.10344827586207  C 9.82386363636364 1.50323275862069  8.328125 0.193965517241379  6.5 0.193965517241379  C 4.671875 0.193965517241379  3.17613636363636 1.50323275862069  3.17613636363636 3.10344827586207  L 3.17613636363636 6.5948275862069  Z M 7.16477272727273 11.7973464439655  C 9.83425071022727 11.5427667025862  11.9926846590909 9.77525592672414  12.4123224431818 7.40220905172414  C 12.4684126420455 7.083984375  12.2212002840909 6.78758081896552  11.8576526988636 6.73848329741379  C 11.4941051136364 6.69120420258621  11.1554865056818 6.90759698275862  11.0993963068182 7.22400323275862  C 10.750390625 9.18790409482759  8.77476917613636 10.6681034482759  6.5 10.6681034482759  C 4.22523082386364 10.6681034482759  2.24753196022727 9.18608566810345  1.90060369318182 7.22218480603448  C 1.84451349431818 6.90396012931035  1.50381747159091 6.68756734913793  1.14234730113636 6.73666487068965  C 0.778799715909091 6.78576239224138  0.531587357954546 7.08216594827586  0.587677556818183 7.400390625  C 1.00731534090909 9.7734375  3.163671875 11.5427667025862  5.83522727272727 11.7973464439655  L 5.83522727272727 13.5775862068966  L 3.84090909090909 13.5775862068966  C 3.47320667613636 13.5775862068966  3.17613636363636 13.8376212284483  3.17613636363636 14.1594827586207  C 3.17613636363636 14.4813442887931  3.47320667613636 14.7413793103448  3.84090909090909 14.7413793103448  L 9.15909090909091 14.7413793103448  C 9.52679332386364 14.7413793103448  9.82386363636364 14.4813442887931  9.82386363636364 14.1594827586207  C 9.82386363636364 13.8376212284483  9.52679332386364 13.5775862068966  9.15909090909091 13.5775862068966  L 7.16477272727273 13.5775862068966  L 7.16477272727273 11.7973464439655  Z " fill-rule="nonzero" fill="#d7d7d7" stroke="none" fill-opacity="0.529411764705882" transform="matrix(1 0 0 1 883 653 )" />
  </g>
</svg>