<?xml version="1.0" encoding="utf-8"?>
<svg version="1.1" xmlns:xlink="http://www.w3.org/1999/xlink" width="18px" height="18px" xmlns="http://www.w3.org/2000/svg">
  <g transform="matrix(1 0 0 1 -307 -11 )">
    <path d="M 15.5927913084877 7.7978616444878  C 15.5927913084877 12.0952493830244  12.0963499082927 15.5917099457561  7.79894300721935 15.5917099457561  C 3.50153610614643 15.5917099457561  0.00507554341447758 12.0952493830244  0.00507554341447758 7.7978616444878  C 0.00507554341447758 3.50045474341465  3.50151694360989 0.00399418068292334  7.79894300721935 0.00399418068292334  C 12.0963499082927 0.00399418068292334  15.5927913084877 3.50047392468292  15.5927913084877 7.7978616444878  Z M 13.1946679258538 7.79786166321952  C 13.1946679258538 4.82247722458538  10.7743082645854 2.40207923824391  7.79894300721935 2.40207923824391  C 4.82353940604889 2.40207923824391  2.4031605822438 4.82249640585366  2.4031605822438 7.79786166321952  C 2.4031605822438 10.7732269205854  4.82353940604889 13.1935865818537  7.79894300721935 13.1935865818537  C 10.7743082645854 13.1935865818537  13.1946679258538 10.7732461018537  13.1946679258538 7.79786166321952  Z M 16.7918434091707 15.5917099457561  C 17.4534297225366 15.5917099457561  17.9909146911218 16.1280447687805  17.9909146911218 16.7908003902439  C 17.9909146911218 17.4535176866341  17.4534105600001 17.9898141658537  16.7918434091707 17.9898141658537  C 16.1301995894635 17.9898141658537  15.5927912897562 17.4535176866341  15.5927912897562 16.7908003902439  C 15.5927912897562 16.1280447500488  16.130218752 15.5917099457561  16.7918434091707 15.5917099457561  Z M 12.2771266372683 13.9713215250732  L 13.972649921561 12.2757982407805  L 17.5697661002928 15.8729144195122  L 15.8742428160001 17.5684377038049  L 12.2771266372683 13.9713215250732  Z " fill-rule="nonzero" fill="#0188fb" stroke="none" transform="matrix(1 0 0 1 307 11 )" />
  </g>
</svg>