<?xml version="1.0" encoding="utf-8"?>
<svg version="1.1" xmlns:xlink="http://www.w3.org/1999/xlink" width="18px" height="18px" xmlns="http://www.w3.org/2000/svg">
  <g transform="matrix(1 0 0 1 -70 352 )">
    <path d="M 3.140625 9.48046875  L 0.25 9.48046875  C 0.26171875 9.1015625  0.298828125 8.72265625  0.357421875 8.34765625  L 3.150390625 8.69140625  C 3.130859375 8.955078125  3.126953125 9.21875  3.140625 9.48046875  Z M 3.25390625 7.92578125  L 0.595703125 7.265625  C 0.796875 6.556640625  1.0859375 5.873046875  1.44921875 5.23828125  L 3.740234375 6.451171875  C 3.517578125 6.923828125  3.35546875 7.419921875  3.25390625 7.92578125  Z M 4.119140625 5.76171875  L 2.048828125 4.32421875  C 2.484375 3.740234375  2.98828125 3.212890625  3.544921875 2.75390625  L 5.115234375 4.53125  C 4.732421875 4.90234375  4.3984375 5.31640625  4.119140625 5.76171875  Z M 5.720703125 4.009765625  L 4.41796875 2.119140625  C 5.0234375 1.732421875  5.673828125 1.419921875  6.349609375 1.189453125  L 7.109375 3.19921875  C 6.61506044082721 3.41155808356011  6.14868186073269 3.68377624212443  5.720703125 4.009765625  Z M 7.875 2.923828125  L 7.380859375 0.91015625  C 8.076171875 0.765625  8.78515625 0.70703125  9.486328125 0.732421875  L 9.486328125 2.658203125  C 8.9375 2.68359375  8.39453125 2.771484375  7.875 2.923828125  Z M 10.310546875 2.671875  L 10.533203125 0.83203125  C 11.2265625 0.939453125  11.904296875 1.1328125  12.544921875 1.40234375  L 11.939453125 2.99609375  C 11.41015625 2.822265625  10.861328125 2.712890625  10.310546875 2.671875  Z M 12.720703125 3.306640625  L 13.478515625 1.86328125  C 14.080078125 2.20703125  14.63671875 2.623046875  15.1328125 3.095703125  L 14.150390625 4.205078125  C 13.708984375 3.84765625  13.228515625 3.544921875  12.720703125 3.306640625  Z M 14.779296875 4.78125  L 15.83203125 3.84765625  C 16.267578125 4.375  16.63671875 4.951171875  16.9296875 5.5625  L 15.81640625 6.1484375  C 15.525390625 5.650390625  15.17578125 5.19140625  14.779296875 4.78125  Z M 16.205078125 6.921875  L 17.314453125 6.5  C 17.53125 7.138671875  17.669921875 7.802734375  17.724609375 8.46875  L 16.693359375 8.59375  C 16.59765625 8.015625  16.43359375 7.453125  16.205078125 6.921875  Z M 16.78515625 9.46875  L 17.75 9.466796875  C 17.7265625 10.130859375  17.623046875 10.791015625  17.443359375 11.42578125  L 16.650390625 11.232421875  C 16.767578125 10.650390625  16.810546875 10.056640625  16.78515625 9.46875  Z M 16.421875 12.099609375  L 17.1171875 12.359375  C 16.86328125 12.96484375  16.53515625 13.537109375  16.146484375 14.05859375  L 15.65625 13.72265625  C 15.9765625 13.212890625  16.234375 12.666015625  16.421875 12.099609375  Z M 15.126953125 14.45703125  L 15.517578125 14.80078125  C 15.0703125 15.26953125  14.5703125 15.68359375  14.029296875 16.029296875  L 13.81640625 15.724609375  C 14.3046875 15.35546875  14.744140625 14.927734375  15.126953125 14.45703125  Z M 13.05078125 16.234375  L 13.19140625 16.498046875  C 12.615234375 16.775390625  12.009765625 16.98046875  11.388671875 17.109375  L 11.3515625 16.96484375  C 11.947265625 16.791015625  12.51953125 16.544921875  13.05078125 16.234375  Z M 10.4375 17.171875  L 10.447265625 17.24609375  C 10.125 17.2734375  9.802734375 17.279296875  9.48046875 17.267578125  C 9.80078125 17.255859375  10.12109375 17.22265625  10.4375 17.171875  Z " fill-rule="nonzero" fill="#aaaaaa" stroke="none" transform="matrix(1 0 0 1 70 -352 )" />
  </g>
</svg>