<?xml version="1.0" encoding="utf-8"?>
<svg version="1.1" xmlns:xlink="http://www.w3.org/1999/xlink" width="16px" height="16px" xmlns="http://www.w3.org/2000/svg">
  <g transform="matrix(1 0 0 1 -341 402 )">
    <path d="M 15.8 0.254375  L 0.25625 0.254375  L 0.25625 15.798125  L 15.8 15.798125  L 15.8 0.254375  Z M 15 1  L 15 15  L 1 15  L 1 1  L 15 1  Z M 12.30125 8.02625  C 12.303125 8.22125  12.108125 8.414375  11.913125 8.414375  L 4.14125 8.414375  C 3.90875 8.414375  3.753125 8.25875  3.753125 8.02625  C 3.753125 7.79375  3.90875 7.638125  4.14125 7.638125  L 11.913125 7.638125  C 12.145625 7.638125  12.30125 7.79375  12.30125 8.02625  Z " fill-rule="nonzero" fill="#7f7f7f" stroke="none" fill-opacity="0.517647058823529" transform="matrix(1 0 0 1 341 -402 )" />
  </g>
</svg>