<?xml version="1.0" encoding="utf-8"?>
<svg version="1.1" xmlns:xlink="http://www.w3.org/1999/xlink" width="32px" height="20px" xmlns="http://www.w3.org/2000/svg">
  <g transform="matrix(1 0 0 1 -127 261 )">
    <path d="M 30.3663966681731 6.84530450247013  L 22.2699442742324 17.3533569439913  L 21.7135939350927 16.978356331543  C 18.2730851309643 14.6229391138658  13.1079085208571 14.6229391138658  9.66739971672874 16.978356331543  L 9.13869414434956 17.3453212002528  L 0.596470353697311 6.83726875873162  L 1.07334206109193 6.56941119221048  C 3.93111676153706 5.02119444097542  9.89546881404433 2.50601186687155  17.7534853542878 3.05779845519301  C 22.1323682340064 3.38207479015618  26.3233657667463 4.59614931843611  29.9033473441588 6.57744690375115  L 30.3663966681731 6.84530450247013  Z M 17.6429064118596 4.02208570754825  C 12.2137280421743 3.66780430673978  6.79036125807184 4.75395645996913  2.26206574411791 7.1024477547392  L 9.41514152118914 15.9149617769991  C 13.1126387461475 13.7159462701441  18.2545325638316 13.7159462701441  21.95202978879 15.9149617769991  L 28.7249904175145 7.11584063950482  C 25.4263418144154 5.37714640790364  21.6142573732785 4.31293727225873  17.6429064118596 4.02208570754825  Z M 9.05921551260447 0.909580749798944  L 2.63181413608285 0.909580749798944  L 9.05921551260447 0.909580749798944  Z M 2.63181413608285 1.38904580546301  L 2.63181413608285 0.435472835161993  L 9.05921551260447 0.435472835161993  L 9.05921551260447 1.38904580546301  L 2.63181413608285 1.38904580546301  Z M 18.4998932676008 0.909580749798944  L 12.2729162216343 0.909580749798944  L 18.4998932676008 0.909580749798944  Z M 12.2729162216343 1.38904580546301  L 12.2729162216343 0.435472835161993  L 18.4998932676008 0.435472835161993  L 18.4998932676008 1.38904580546301  L 12.2729162216343 1.38904580546301  Z M 28.1409953531523 0.909580749798944  L 22.5187469258494 0.909580749798944  L 28.1409953531523 0.909580749798944  Z M 22.5187469258494 1.38904580546301  L 22.5187469258494 0.435472835161993  L 28.1444509386128 0.435472835161993  L 28.1444509386128 1.38904580546301  L 22.5187469258494 1.38904580546301  Z M 16.4921942104379 18.955145202091  L 7.18628457916969 4.64351525801356  L 16.4921942104379 18.955145202091  Z " fill-rule="nonzero" fill="#aaaaaa" stroke="none" transform="matrix(1 0 0 1 127 -261 )" />
  </g>
</svg>