<?xml version="1.0" encoding="utf-8"?>
<svg version="1.1" xmlns:xlink="http://www.w3.org/1999/xlink" width="21px" height="21px" xmlns="http://www.w3.org/2000/svg">
  <g transform="matrix(1 0 0 1 -223 261 )">
    <path d="M 17.1513671875 10.5  C 17.1513671875 6.83251953125  14.16748046875 3.8486328125  10.5 3.8486328125  C 6.83251953125 3.8486328125  3.8486328125 6.83251953125  3.8486328125 10.5  C 3.8486328125 12.8037109375  5.04833984375 14.94677734375  7 16.1533203125  L 7 18.89794921875  L 14 18.89794921875  L 14 16.1533203125  C 15.95166015625 14.943359375  17.1513671875 12.8037109375  17.1513671875 10.5  Z M 16.173828125 10.5  C 16.17041015625 12.54736328125  15.0595703125 14.4443359375  13.2685546875 15.44921875  L 13.01904296875 15.58935546875  L 13.01904296875 17.92041015625  L 7.98095703125 17.92041015625  L 7.98095703125 15.58935546875  L 7.7314453125 15.44921875  C 5.94384765625 14.4443359375  4.8330078125 12.55078125  4.8330078125 10.5  C 4.8330078125 7.37255859375  7.3759765625 4.82958984375  10.50341796875 4.82958984375  C 13.630859375 4.82958984375  16.173828125 7.37255859375  16.173828125 10.5  Z M 7 20.01904296875  L 7 20.7197265625  C 7 20.87353515625  7.12646484375 21  7.2802734375 21  L 13.7197265625 21  C 13.87353515625 21  14 20.87353515625  14 20.7197265625  L 14 20.01904296875  L 7 20.01904296875  Z M 10.01123046875 2.45068359375  C 10.01123046875 2.720703125  10.22998046875 2.939453125  10.5 2.939453125  C 10.77001953125 2.939453125  10.98876953125 2.720703125  10.98876953125 2.45068359375  L 10.98876953125 0.4921875  C 10.98876953125 0.222167968749999  10.77001953125 0.00341796874999911  10.5 0.00341796874999911  C 10.22998046875 0.00341796874999911  10.01123046875 0.222167968749999  10.01123046875 0.4921875  L 10.01123046875 2.45068359375  Z M 3.07275390625 3.77001953125  L 4.46044921875 5.154296875  C 4.55615234375 5.25  4.6826171875 5.2978515625  4.8056640625 5.2978515625  C 4.9287109375 5.2978515625  5.05517578125 5.25  5.15087890625 5.154296875  C 5.34228515625 4.962890625  5.34228515625 4.65185546875  5.15087890625 4.46044921875  L 3.7666015625 3.076171875  C 3.5751953125 2.884765625  3.26416015625 2.884765625  3.07275390625 3.076171875  C 2.88134765625 3.267578125  2.88134765625 3.57861328125  3.07275390625 3.77001953125  Z M 2.939453125 10.5  C 2.939453125 10.22998046875  2.720703125 10.01123046875  2.45068359375 10.01123046875  L 0.4921875 10.01123046875  C 0.222167968749999 10.01123046875  0.00341796874999911 10.22998046875  0.00341796874999911 10.5  C 0.00341796874999911 10.77001953125  0.222167968749999 10.98876953125  0.4921875 10.98876953125  L 2.45068359375 10.98876953125  C 2.720703125 10.98876953125  2.939453125 10.77001953125  2.939453125 10.5  Z M 5.15087890625 15.845703125  C 4.962890625 15.654296875  4.65185546875 15.654296875  4.46044921875 15.845703125  L 3.076171875 17.22998046875  C 2.884765625 17.42138671875  2.884765625 17.732421875  3.076171875 17.923828125  C 3.171875 18.01953125  3.29833984375 18.0673828125  3.42138671875 18.0673828125  C 3.54443359375 18.0673828125  3.6708984375 18.01953125  3.7666015625 17.923828125  L 5.15087890625 16.53955078125  C 5.34228515625 16.34814453125  5.34228515625 16.037109375  5.15087890625 15.845703125  Z M 17.92041015625 17.22998046875  L 16.53955078125 15.845703125  C 16.34814453125 15.654296875  16.037109375 15.654296875  15.845703125 15.845703125  C 15.654296875 16.037109375  15.654296875 16.34814453125  15.845703125 16.53955078125  L 17.22998046875 17.923828125  C 17.32568359375 18.01953125  17.4521484375 18.0673828125  17.5751953125 18.0673828125  C 17.70166015625 18.0673828125  17.82470703125 18.01953125  17.92041015625 17.923828125  C 18.11181640625 17.732421875  18.11181640625 17.42138671875  17.92041015625 17.22998046875  Z M 21 10.5  C 21 10.22998046875  20.78125 10.01123046875  20.51123046875 10.01123046875  L 18.552734375 10.01123046875  C 18.28271484375 10.01123046875  18.06396484375 10.22998046875  18.06396484375 10.5  C 18.06396484375 10.77001953125  18.28271484375 10.98876953125  18.552734375 10.98876953125  L 20.51123046875 10.98876953125  C 20.78125 10.98876953125  21 10.77001953125  21 10.5  Z M 15.84228515625 5.154296875  C 15.94140625 5.25  16.06787109375 5.2978515625  16.19091796875 5.2978515625  C 16.3173828125 5.2978515625  16.4404296875 5.25  16.5361328125 5.154296875  L 17.92041015625 3.77001953125  C 18.11181640625 3.57861328125  18.11181640625 3.267578125  17.92041015625 3.076171875  C 17.72900390625 2.884765625  17.41796875 2.884765625  17.2265625 3.076171875  L 15.84228515625 4.46044921875  C 15.65087890625 4.65185546875  15.65087890625 4.962890625  15.84228515625 5.154296875  Z " fill-rule="nonzero" fill="#ffffff" stroke="none" transform="matrix(1 0 0 1 223 -261 )" />
  </g>
</svg>