<?xml version="1.0" encoding="utf-8"?>
<svg version="1.1" xmlns:xlink="http://www.w3.org/1999/xlink" width="10px" height="10px" xmlns="http://www.w3.org/2000/svg">
  <g transform="matrix(1 0 0 1 -322 257 )">
    <path d="M 2.4759765625 8.92998046875  C 2.42181418456774 9.01272697292198  2.32956069122138 9.06256295638974  2.2306640625 9.0625  C 2.06900472862179 9.06229832518588  1.93806079942119 8.93119093765361  1.93806079942119 8.7695314779778  C 1.93806079942119 8.71257275863832  1.95466439370829 8.6568492482646  1.98583984375 8.6091796875  L 2.62158203125 7.63740234375  C 3.0794921875 6.93740234375  2.96416015625 6.14140625  2.3130859375 5.50849609375  L 1.7369140625 4.948046875  C 1.32255859375 4.54462890625  1.06650390625 4.06630859375  0.99609375 3.564453125  C 0.92509765625 3.056640625  1.046484375 2.54462890625  1.34765625 2.084765625  L 1.9859375 1.10927734375  C 2.04034134043905 1.02817984783621  2.1315766240629 0.979521496747198  2.22923204735318 0.979521496747198  C 2.39103422015517 0.979521496747198  2.52220079735318 1.11068807394521  2.52220079735318 1.2724902467472  C 2.52220079735318 1.32828987391258  2.50626554847009 1.38292903579916  2.47626953125 1.42998046875  L 1.83798828125 2.40556640625  C 1.38154296875 3.103125  1.49619140625 3.896484375  2.1455078125 4.527734375  L 2.7216796875 5.08818359375  C 3.137109375 5.4921875  3.39384765625 5.97177734375  3.4638671875 6.47490234375  C 3.53505859375 6.984375  3.41328125 7.497265625  3.11171875 7.958203125  L 2.4759765625 8.92998046875  Z M 5.2654296875 8.9298828125  C 5.21127106882246 9.01269556112001  5.11896952759878 9.0625743884108  5.02001953125 9.0625  C 4.85843653808355 9.06219080925007  4.72761137899552 8.93111507534039  4.72761137899552 8.76953178635434  C 4.72761137899552 8.71257294158052  4.74421504634938 8.65684931403269  4.775390625 8.6091796875  L 5.41123046875 7.63740234375  C 5.869140625 6.93740234375  5.75380859375 6.14140625  5.102734375 5.50849609375  L 4.5265625 4.948046875  C 4.1123046875 4.54501953125  3.85615234375 4.06669921875  3.78603515625 3.56474609375  C 3.71494140625 3.05693359375  3.83642578125 2.544921875  4.13759765625 2.08505859375  L 4.775390625 1.1091796875  C 4.82979446543905 1.02808219158621  4.9210297490629 0.979423840497205  5.01868517235318 0.979423840497205  C 5.18048734515517 0.979423840497205  5.31165392235318 1.11059041769521  5.31165392235318 1.2723925904972  C 5.31165392235318 1.32819221766258  5.29571867347009 1.38283137954916  5.26572265625 1.4298828125  L 4.6275390625 2.40546875  C 4.17109375 3.10302734375  4.2857421875 3.89638671875  4.93505859375 4.52763671875  L 5.51123046875 5.0880859375  C 5.9265625 5.49208984375  6.18330078125 5.9716796875  6.25341796875 6.4748046875  C 6.324609375 6.98427734375  6.20283203125 7.49716796875  5.90126953125 7.958203125  L 5.2654296875 8.9298828125  Z M 8.05498046875 8.9296875  C 8.00082945778393 9.01263278668673  7.90843176704047 9.06259734311262  7.809375 9.0625  C 7.64767750623816 9.0623521387629  7.51667414966059 8.93122893385417  7.51667414966059 8.76953137248788  C 7.51667414966059 8.71257269605715  7.53327771895295 8.65684922576651  7.564453125 8.6091796875  L 8.20029296875 7.63740234375  C 8.658203125 6.93740234375  8.54287109375 6.14140625  7.89169921875 5.50849609375  L 7.31552734375 4.948046875  C 6.901171875 4.54501953125  6.6451171875 4.06669921875  6.575 3.56474609375  C 6.50390625 3.05693359375  6.625390625 2.544921875  6.9265625 2.08505859375  L 7.56474609375 1.1095703125  C 7.61914993418904 1.0284728165862  7.7103852178129 0.979814465497175  7.8080406411032 0.979814465497175  C 7.96984281390519 0.979814465497175  8.1010093911032 1.11098104269518  8.1010093911032 1.27278321549717  C 8.1010093911032 1.32858284266257  8.0850741422201 1.38322200454916  8.055078125 1.4302734375  L 7.41689453125 2.405859375  C 6.96044921875 3.10341796875  7.07509765625 3.89677734375  7.72431640625 4.52802734375  L 8.30078125 5.087890625  C 8.71611328125 5.49189453125  8.9728515625 5.971484375  9.04296875 6.474609375  C 9.11416015625 6.98408203125  8.9923828125 7.49697265625  8.6908203125 7.9580078125  L 8.05498046875 8.9296875  Z " fill-rule="nonzero" fill="#aaaaaa" stroke="none" transform="matrix(1 0 0 1 322 -257 )" />
  </g>
</svg>