<?xml version="1.0" encoding="utf-8"?>
<svg version="1.1" xmlns:xlink="http://www.w3.org/1999/xlink" width="12px" height="12px" xmlns="http://www.w3.org/2000/svg">
  <g transform="matrix(1 0 0 1 -312 -11 )">
    <path d="M 11.988649217561 6.00022283707318  C 11.988649217561 2.69490563121952  9.29959723317076 0.00585365853658004  5.99436917853661 0.00585365853658004  C 2.68905197268292 0.00585365853658004  0 2.69490563121952  0 6.00022283707318  C 0 9.30527263609756  2.68905197268292 11.9941463414634  5.99436917853661 11.9941463414634  C 9.29959724487807 11.9941463414634  11.988649217561 9.30527262439024  11.988649217561 6.00022283707318  Z M 8.35033132097556 8.44718971317074  C 8.3502421931707 8.70603179707319  8.14042322341466 8.91674209170733  7.88256159219513 8.91674209170733  L 4.1319361756098 8.91674210341465  C 3.87407455609758 8.91674210341465  3.66434471414633 8.70612093658534  3.66434471414633 8.44718972487806  L 3.66434471414633 4.71323216780485  C 3.66434471414633 4.6230296195122  3.73770113560977 4.54958407024389  3.82799281170731 4.54958407024389  C 3.91819536000001 4.54958407024389  3.99155176975614 4.6230296195122  3.99155176975614 4.71323216780485  L 3.99155176975614 8.44718972487806  C 3.99155176975614 8.5257158517073  4.05456876878051 8.58953504780487  4.13193616390243 8.58953504780487  L 7.88256158048782 8.58953504780487  C 7.95992897560975 8.58953504780487  8.02294597463412 8.5257158517073  8.02294597463412 8.44718972487806  L 8.02294598634148 4.71323216780485  C 8.02294598634148 4.6230296195122  8.09630240780486 4.54958407024389  8.18659408390241 4.54958407024389  C 8.27688576000002 4.54958407024389  8.35024218146346 4.6230296195122  8.35024218146346 4.71323216780485  L 8.35024218146346 8.44718971317074  Z M 5.22060602926831 8.13014381268293  C 5.13049262048778 8.13014381268293  5.05704707121948 8.05678739121955  5.05704707121948 7.96658485463417  L 5.05704707121948 4.71323216780485  C 5.05704707121948 4.6230296195122  5.13040349268292 4.54958407024389  5.22060602926831 4.54958407024389  C 5.31089770536586 4.54958407024389  5.3842541268293 4.6230296195122  5.3842541268293 4.71323216780485  L 5.3842541268293 7.96649571512196  C 5.3842541268293 8.05678739121949  5.31089770536586 8.13014381268293  5.22060602926831 8.13014381268293  Z M 6.79398086634147 8.13014381268293  C 6.70368919024387 8.13014381268293  6.63033276878049 8.05678739121955  6.63033276878049 7.96658485463417  L 6.63033276878049 4.71323216780485  C 6.63033276878049 4.6230296195122  6.70368919024387 4.54958407024389  6.79398086634147 4.54958407024389  C 6.88418341463417 4.54958407024389  6.95753982439024 4.6230296195122  6.95753982439024 4.71323216780485  L 6.95753982439024 7.96649571512196  C 6.95753982439024 8.05678739121949  6.88418340292686 8.13014381268293  6.79398086634147 8.13014381268293  Z M 9.08523249951219 3.90461802146339  C 9.08532162731705 3.99482058146337  9.01187607804875 4.06826613073168  8.92167352975612 4.06826613073168  L 7.20648816 4.06826613073168  C 7.16281301853657 4.06826613073168  7.12172272390239 4.05124173658538  7.09079359609752 4.0203126087805  L 6.48103507902436 3.41055409170733  L 5.52570812487804 3.41055409170733  L 4.79775932487808 4.02922590439024  C 4.76852371902437 4.05427226926828  4.73082047999996 4.06826614243901  4.69186938146345 4.06826614243901  L 3.06706481560972 4.06826613073168  C 2.97677313951218 4.06826613073168  2.9034167180488 3.99482058146337  2.9034167180488 3.90461803317072  C 2.9034167180488 3.81441548487801  2.97677313951218 3.74096993560976  3.06706481560972 3.74096993560976  L 4.63179376390248 3.74096993560976  L 5.35965343609752 3.12229812292684  C 5.38933470439024 3.09716263024387  5.42694881560979 3.08334702439028  5.46563251902438 3.08334702439028  L 6.54877613268288 3.08334702439028  C 6.59245127414637 3.08334702439028  6.63354156878049 3.10037141853658  6.66447069658536 3.13130054634146  L 7.27422921365852 3.74105906341463  L 8.92158440195121 3.74105906341463  C 9.01187607804875 3.74105906341463  9.08523249951219 3.81441548487801  9.08523249951219 3.90461802146339  Z " fill-rule="nonzero" fill="#199ed8" stroke="none" transform="matrix(1 0 0 1 312 11 )" />
  </g>
</svg>