<?xml version="1.0" encoding="utf-8"?>
<svg version="1.1" xmlns:xlink="http://www.w3.org/1999/xlink" width="12px" height="12px" xmlns="http://www.w3.org/2000/svg">
  <g transform="matrix(1 0 0 1 -275 -11 )">
    <path d="M 11.86704 6.05147999999996  C 11.86704 2.80452000000001  9.22547999999998 0.162960000000021  5.97882000000002 0.162960000000021  C 2.73162 0.162960000000021  0.0899999999999802 2.80457999999997  0.0899999999999802 6.05147999999996  C 0.0899999999999802 9.29838  2.73162 11.94  5.97882000000002 11.94  C 9.22547999999998 11.94  11.86704 9.29843999999996  11.86704 6.05147999999996  Z M 9.62940000000001 6.11045999999997  C 9.62940000000001 6.11045999999997  8.52660000000002 8.54645999999999  5.96561999999999 8.54645999999999  C 3.40337999999997 8.54645999999999  2.30142000000003 6.05442000000001  2.30142000000003 6.05442000000001  C 2.30142000000003 6.05442000000001  3.51119999999998 3.60252000000002  5.99076000000001 3.60606000000003  C 8.47097999999999 3.60971999999996  9.62940000000001 6.11045999999997  9.62940000000001 6.11045999999997  Z M 7.51242000000002 6.05442000000001  C 7.51242000000002 5.19317999999999  6.87096000000001 4.52472000000002  5.9832 4.52472000000002  C 5.09442000000002 4.52472000000002  4.45247999999999 5.19317999999999  4.45247999999999 6.05442000000001  C 4.45247999999999 6.91410000000003  5.09442000000002 7.58466  5.9832 7.58466  C 6.87089999999998 7.58466  7.51242000000002 6.91410000000003  7.51242000000002 6.05442000000001  Z M 6.90107999999999 6.05442000000001  C 6.90114000000002 6.54612000000004  6.49031999999999 6.97223999999999  5.9832 6.97223999999999  C 5.47500000000001 6.97223999999999  5.06490000000002 6.54606000000003  5.06490000000002 6.05442000000001  C 5.06490000000002 5.56272000000003  5.47493999999998 5.13714000000004  5.9832 5.13564  C 6.49031999999999 5.13498000000003  6.90107999999999 5.56272000000003  6.90107999999999 6.05442000000001  Z " fill-rule="nonzero" fill="#f2f2f2" stroke="none" fill-opacity="0.796078431372549" transform="matrix(1 0 0 1 275 11 )" />
  </g>
</svg>