<?xml version="1.0" encoding="utf-8"?>
<svg version="1.1" xmlns:xlink="http://www.w3.org/1999/xlink" width="12px" height="12px" xmlns="http://www.w3.org/2000/svg">
  <g transform="matrix(1 0 0 1 -293 -12 )">
    <path d="M 4.08674111999998 6.56471904  L 3.61567103999999 7.85699952  L 4.15305744000001 8.39587632  L 5.44734672000002 7.92380832  L 4.08674111999998 6.56471904  Z M 11.7000672 6.00495072  C 11.7000672 2.865948  9.15520272000001 0.3213816  6.01652400000001 0.3213816  C 2.87724911999999 0.3213816  0.332993760000012 2.865948  0.332993760000012 6.00495072  C 0.332993760000012 9.14362944  2.87726207999997 11.68848096  6.01652400000001 11.68848096  C 9.15520272000001 11.68848096  11.7000672 9.14362944  11.7000672 6.00495072  Z M 8.08251648000001 5.85836016  L 5.73222047999998 8.20865616  L 5.72918784000002 8.20511808  C 5.71348032 8.21828544  5.69626943999999 8.23042896  5.67602592000001 8.23751808  L 3.05809296000001 9.19281264  C 2.98976783999999 9.21709968  2.91286320000001 9.20089968  2.86228031999998 9.14826912  C 2.81069952000001 9.09767328  2.79396816000001 9.02075568  2.81926607999999 8.95298784  L 3.77353680000002 6.33601392  C 3.78065184000002 6.31630176  3.79177152000001 6.29958336  3.80541840000003 6.28338336  L 3.80337072000002 6.28086912  L 6.15421104 3.93058608  C 6.40923791999998 4.1850816  6.61918991999997 4.39454112  6.61918991999997 4.39454112  L 4.77741839999999 6.23330592  C 4.74757152 6.26215488  4.73440416 6.3000888  4.73440416 6.33854112  C 4.73440416 6.376488  4.74757152 6.4144608  4.77741839999999 6.44380224  C 4.80628032000002 6.47211984  4.84422720000002 6.4878144  4.88367744000001 6.4878144  C 4.92312768 6.4878144  4.96059503999998 6.47211984  4.98940512 6.44380224  L 6.83020464000002 4.60606128  L 7.40851871999999 5.18340336  L 5.57585808000001 7.0140552  C 5.51817312000003 7.07221968  5.51817312000003 7.16684064  5.57585808000001 7.22501808  C 5.60418864000001 7.25286912  5.64266687999998 7.26853776  5.68213008000002 7.26853776  C 5.72211167999998 7.26853776  5.75952720000001 7.25286912  5.78787072 7.22552352  C 5.78787072 7.22501808  7.62003887999998 5.39488464  7.62003887999998 5.39488464  C 7.62003887999998 5.39488464  7.88923104000002 5.6640768  8.08251648000001 5.85836016  Z M 9.02820768000001 3.95816496  C 9.29130864000002 4.22101968  9.29081616000001 4.6500864  9.02819472000002 4.9142112  L 8.29451616000002 5.64738432  C 7.91757456000001 5.2709352  7.04172480000001 4.39454112  6.36623663999998 3.720336  L 7.10090016 2.98616496  C 7.36401408 2.72329728  7.79410464000003 2.72279184  8.05672608000003 2.98616496  L 9.02820768000001 3.95816496  Z " fill-rule="nonzero" fill="#aaaaaa" stroke="none" fill-opacity="0.996078431372549" transform="matrix(1 0 0 1 293 12 )" />
  </g>
</svg>