<?xml version="1.0" encoding="utf-8"?>
<svg version="1.1" xmlns:xlink="http://www.w3.org/1999/xlink" width="12px" height="12px" xmlns="http://www.w3.org/2000/svg">
  <g transform="matrix(1 0 0 1 -119 -121 )">
    <path d="M 2.98828125 0.804687500000006  C 3.90755208333333 0.268229166666669  4.91145833333335 0  6 0  C 7.08854166666665 0  8.09244791666668 0.268229166666669  9.01171875 0.804687500000006  C 9.93098958333333 1.34114583333334  10.6588541666667 2.06901041666666  11.1953125 2.98828125  C 11.7317708333333 3.90755208333334  12 4.91145833333333  12 6  C 12 7.08854166666667  11.7317708333333 8.09244791666666  11.1953125 9.01171875  C 10.6588541666667 9.93098958333334  9.93098958333333 10.6588541666667  9.01171875 11.1953125  C 8.09244791666668 11.7317708333333  7.08854166666665 12  6 12  C 4.91145833333335 12  3.90755208333333 11.7317708333333  2.98828125 11.1953125  C 2.06901041666667 10.6588541666667  1.34114583333333 9.93098958333334  0.804687500000023 9.01171875  C 0.268229166666652 8.09244791666666  0 7.08854166666667  0 6  C 0 4.91145833333333  0.268229166666652 3.90755208333334  0.804687500000023 2.98828125  C 1.34114583333333 2.06901041666666  2.06901041666667 1.34114583333334  2.98828125 0.804687500000006  Z M 6.92968749999998 9.92578125  C 6.97656249999998 9.87630208333334  6.99999999999998 9.81510416666666  6.99999999999998 9.74218749999999  L 6.99999999999998 8.25781250000001  C 6.99999999999998 8.18489583333334  6.97656249999998 8.12369791666666  6.92968749999998 8.07421875  C 6.88281249999998 8.02473958333334  6.82552083333333 8.00000000000001  6.75781250000002 8.00000000000001  L 5.25781250000002 8.00000000000001  C 5.19010416666665 8.00000000000001  5.13020833333337 8.02604166666667  5.07812499999998 8.07812499999999  C 5.02604166666665 8.13020833333334  5.00000000000002 8.19010416666667  5.00000000000002 8.25781250000001  L 5.00000000000002 9.74218749999999  C 5.00000000000002 9.80989583333333  5.02604166666665 9.86979166666666  5.07812499999998 9.92187500000001  C 5.13020833333337 9.97395833333333  5.19010416666665 9.99999999999999  5.25781250000002 9.99999999999999  L 6.75781250000002 9.99999999999999  C 6.82552083333333 9.99999999999999  6.88281249999998 9.97526041666666  6.92968749999998 9.92578125  Z M 6.90234375 7.19140625000001  C 6.95182291666663 7.15234374999999  6.97916666666668 7.10677083333334  6.984375 7.0546875  L 7.125 2.203125  C 7.125 2.14062500000001  7.09895833333337 2.09375000000001  7.04687499999998 2.0625  C 6.99479166666665 2.02083333333334  6.93229166666668 2.00000000000001  6.85937499999998 2.00000000000001  L 5.14062500000002 2.00000000000001  C 5.06770833333333 2.00000000000001  5.00520833333335 2.02083333333334  4.95312500000002 2.0625  C 4.90104166666663 2.09375000000001  4.875 2.14062500000001  4.875 2.203125  L 5.00781249999998 7.0546875  C 5.00781249999998 7.10677083333334  5.03385416666668 7.15234374999999  5.0859375 7.19140625000001  C 5.13802083333333 7.23046875  5.20052083333337 7.25000000000001  5.2734375 7.25000000000001  L 6.71874999999998 7.25000000000001  C 6.79166666666668 7.25000000000001  6.85286458333337 7.23046875  6.90234375 7.19140625000001  Z " fill-rule="nonzero" fill="#f59a23" stroke="none" transform="matrix(1 0 0 1 119 121 )" />
  </g>
</svg>