<?xml version="1.0" encoding="utf-8"?>
<svg version="1.1" xmlns:xlink="http://www.w3.org/1999/xlink" width="111px" height="37px" xmlns="http://www.w3.org/2000/svg">
  <g transform="matrix(1 0 0 1 -824 -131 )">
    <path d="M 825 149.5  A 17.5 17.5 0 0 1 842.5 132 L 916.5 132  A 17.5 17.5 0 0 1 934 149.5 A 17.5 17.5 0 0 1 916.5 167 L 842.5 167  A 17.5 17.5 0 0 1 825 149.5 Z " fill-rule="nonzero" fill="#ffffff" stroke="none" fill-opacity="0" />
    <path d="M 824.5 149.5  A 18 18 0 0 1 842.5 131.5 L 916.5 131.5  A 18 18 0 0 1 934.5 149.5 A 18 18 0 0 1 916.5 167.5 L 842.5 167.5  A 18 18 0 0 1 824.5 149.5 Z " stroke-width="1" stroke="#0079fe" fill="none" stroke-opacity="0.341176470588235" />
  </g>
</svg>