<?xml version="1.0" encoding="utf-8"?>
<svg version="1.1" xmlns:xlink="http://www.w3.org/1999/xlink" width="17px" height="17px" xmlns="http://www.w3.org/2000/svg">
  <g transform="matrix(1 0 0 1 -6 -659 )">
    <path d="M 0.841268138104441 5  L 16.1587318618956 5  L 16.1587318618956 1.7929448783162  C 16.1587318618956 1.27178856820981  15.7395409168406 0.841268138104441  15.2070551216838 1  L 1.7929448783162 1  C 1.27178856820981 0.841268138104441  0.841268138104441 1.26045908315944  0.841268138104441 1.7929448783162  L 0.841268138104441 5  Z M 6 16.1587318618956  L 6 6.1208081494706  L 0.852597623154811 6.1208081494706  L 0.852597623154811 15.2070551216838  C 0.852597623154811 15.7282114317902  1.27178856820981 16.1587318618956  1.80427436336657 16.1587318618956  L 6 16.1587318618956  Z M 16.1474023768452 6.1208081494706  L 7 6.1208081494706  L 7 16.1474023768452  L 15.2183846067342 16.1474023768452  C 15.8868242218925 16.1474023768452  16.1474023768452 15.7848588566401  16.1474023768452 15.2183846067342  L 16.1474023768452 6.1208081494706  Z " fill-rule="nonzero" fill="#d7d7d7" stroke="none" transform="matrix(1 0 0 1 6 659 )" />
  </g>
</svg>