<?xml version="1.0" encoding="utf-8"?>
<svg version="1.1" xmlns:xlink="http://www.w3.org/1999/xlink" width="21px" height="21px" xmlns="http://www.w3.org/2000/svg">
  <g transform="matrix(1 0 0 1 -38 -587 )">
    <path d="M 7.875 0  C 8.9619140625 0  9.84375 0.8818359375  9.84375 1.96875  L 9.84375 7.875  C 9.84375 8.9619140625  8.9619140625 9.84375  7.875 9.84375  L 1.96875 9.84375  C 0.8818359375 9.84375  0 8.9619140625  0 7.875  L 0 1.96875  C 0 0.8818359375  0.8818359375 0  1.96875 0  L 7.875 0  Z M 19.03125 0  C 20.1181640625 0  21 0.8818359375  21 1.96875  L 21 7.875  C 21 8.9619140625  20.1181640625 9.84375  19.03125 9.84375  L 13.125 9.84375  C 12.0380859375 9.84375  11.15625 8.9619140625  11.15625 7.875  L 11.15625 1.96875  C 11.15625 0.8818359375  12.0380859375 0  13.125 0  L 19.03125 0  Z M 7.875 11.15625  C 8.9619140625 11.15625  9.84375 12.0380859375  9.84375 13.125  L 9.84375 19.03125  C 9.84375 20.1181640625  8.9619140625 21  7.875 21  L 1.96875 21  C 0.8818359375 21  0 20.1181640625  0 19.03125  L 0 13.125  C 0 12.0380859375  0.8818359375 11.15625  1.96875 11.15625  L 7.875 11.15625  Z M 19.03125 11.15625  C 20.1181640625 11.15625  21 12.0380859375  21 13.125  L 21 19.03125  C 21 20.1181640625  20.1181640625 21  19.03125 21  L 13.125 21  C 12.0380859375 21  11.15625 20.1181640625  11.15625 19.03125  L 11.15625 13.125  C 11.15625 12.0380859375  12.0380859375 11.15625  13.125 11.15625  L 19.03125 11.15625  Z " fill-rule="nonzero" fill="#02a7f0" stroke="none" transform="matrix(1 0 0 1 38 587 )" />
  </g>
</svg>