<?xml version="1.0" encoding="utf-8"?>
<svg version="1.1" xmlns:xlink="http://www.w3.org/1999/xlink" width="21px" height="21px" xmlns="http://www.w3.org/2000/svg">
  <g transform="matrix(1 0 0 1 -38 -612 )">
    <path d="M 5.578125 0  C 5.94111328125 0  6.234375 0.3609375  6.234375 0.807692307692308  L 6.234375 5.25  C 6.234375 5.69675480769231  5.94111328125 6.05769230769231  5.578125 6.05769230769231  L 0.65625 6.05769230769231  C 0.29326171875 6.05769230769231  0 5.69675480769231  0 5.25  L 0 0.807692307692308  C 0 0.3609375  0.29326171875 0  0.65625 0  L 5.578125 0  Z M 5.578125 7.67307692307692  C 5.94111328125 7.67307692307692  6.234375 8.03401442307692  6.234375 8.48076923076923  L 6.234375 12.5192307692308  C 6.234375 12.9659855769231  5.94111328125 13.3269230769231  5.578125 13.3269230769231  L 0.65625 13.3269230769231  C 0.29326171875 13.3269230769231  0 12.9659855769231  0 12.5192307692308  L 0 8.48076923076923  C 0 8.03401442307692  0.29326171875 7.67307692307692  0.65625 7.67307692307692  L 5.578125 7.67307692307692  Z M 5.578125 14.9423076923077  C 5.94111328125 14.9423076923077  6.234375 15.3032451923077  6.234375 15.75  L 6.234375 20.1923076923077  C 6.234375 20.6390625  5.94111328125 21  5.578125 21  L 0.65625 21  C 0.29326171875 21  0 20.6390625  0 20.1923076923077  L 0 15.75  C 0 15.3032451923077  0.29326171875 14.9423076923077  0.65625 14.9423076923077  L 5.578125 14.9423076923077  Z M 20.34375 0  C 20.70673828125 0  21 0.3609375  21 0.807692307692308  L 21 5.25  C 21 5.69675480769231  20.70673828125 6.05769230769231  20.34375 6.05769230769231  L 15.421875 6.05769230769231  C 15.05888671875 6.05769230769231  14.765625 5.69675480769231  14.765625 5.25  L 14.765625 0.807692307692308  C 14.765625 0.3609375  15.05888671875 0  15.421875 0  L 20.34375 0  Z M 20.34375 7.67307692307692  C 20.70673828125 7.67307692307692  21 8.03401442307692  21 8.48076923076923  L 21 12.5192307692308  C 21 12.9659855769231  20.70673828125 13.3269230769231  20.34375 13.3269230769231  L 15.421875 13.3269230769231  C 15.05888671875 13.3269230769231  14.765625 12.9659855769231  14.765625 12.5192307692308  L 14.765625 8.48076923076923  C 14.765625 8.03401442307692  15.05888671875 7.67307692307692  15.421875 7.67307692307692  L 20.34375 7.67307692307692  Z M 20.34375 14.9423076923077  C 20.70673828125 14.9423076923077  21 15.3032451923077  21 15.75  L 21 20.1923076923077  C 21 20.6390625  20.70673828125 21  20.34375 21  L 15.421875 21  C 15.05888671875 21  14.765625 20.6390625  14.765625 20.1923076923077  L 14.765625 15.75  C 14.765625 15.3032451923077  15.05888671875 14.9423076923077  15.421875 14.9423076923077  L 20.34375 14.9423076923077  Z M 12.796875 0  C 13.15986328125 0  13.453125 0.3609375  13.453125 0.807692307692308  L 13.453125 5.25  C 13.453125 5.69675480769231  13.15986328125 6.05769230769231  12.796875 6.05769230769231  L 8.203125 6.05769230769231  C 7.84013671875 6.05769230769231  7.546875 5.69675480769231  7.546875 5.25  L 7.546875 0.807692307692308  C 7.546875 0.3609375  7.84013671875 0  8.203125 0  L 12.796875 0  Z M 12.796875 7.67307692307692  C 13.15986328125 7.67307692307692  13.453125 8.03401442307692  13.453125 8.48076923076923  L 13.453125 12.5192307692308  C 13.453125 12.9659855769231  13.15986328125 13.3269230769231  12.796875 13.3269230769231  L 8.203125 13.3269230769231  C 7.84013671875 13.3269230769231  7.546875 12.9659855769231  7.546875 12.5192307692308  L 7.546875 8.48076923076923  C 7.546875 8.03401442307692  7.84013671875 7.67307692307692  8.203125 7.67307692307692  L 12.796875 7.67307692307692  Z M 12.796875 14.9423076923077  C 13.15986328125 14.9423076923077  13.453125 15.3032451923077  13.453125 15.75  L 13.453125 20.1923076923077  C 13.453125 20.6390625  13.15986328125 21  12.796875 21  L 8.203125 21  C 7.84013671875 21  7.546875 20.6390625  7.546875 20.1923076923077  L 7.546875 15.75  C 7.546875 15.3032451923077  7.84013671875 14.9423076923077  8.203125 14.9423076923077  L 12.796875 14.9423076923077  Z " fill-rule="nonzero" fill="#7f7f7f" stroke="none" transform="matrix(1 0 0 1 38 612 )" />
  </g>
</svg>