<?xml version="1.0" encoding="utf-8"?>
<svg version="1.1" xmlns:xlink="http://www.w3.org/1999/xlink" width="17px" height="17px" xmlns="http://www.w3.org/2000/svg">
  <g transform="matrix(1 0 0 1 -85 -659 )">
    <path d="M 15.2314701215909 10.4520510122768  L 15.2328831113636 10.4520510122768  L 11.5873766261364 16.6511530558036  C 11.4045675729491 16.962067552285  10.9999386422062 17.0688697237037  10.6830649295455 16.8898469441964  L 8.96063375795455 15.9128673415179  L 11.2807584443182 11.9674795837054  C 11.4400971389904 11.6949541497772  11.3789148499462 11.3495839370325  11.1352207875 11.1459285714286  L 11.0377246670455 11.0793163292411  C 10.7605705656838 10.9224983974948  10.4089746478876 10.9819956527148  10.2012363636364 11.2208673415179  L 10.1334129897727 11.3180101986607  L 7.81328830340909 15.2620101986607  L 5.51859739431818 13.9602959129464  L 7.83589610113636 10.0162959129464  C 7.99556526800526 9.74409099196628  7.93498624450857 9.39877357270215  7.69177143409091 9.19474490066964  L 7.59286234318182 9.12535714285714  C 7.31538189686617 8.96886377131571  6.96373221334152 9.02895352020954  6.75637402045455 9.26829591294643  L 6.68855064659091 9.36543877008929  L 4.36842597954545 13.3094387700893  L 0.352716888636363 11.0335204162946  C 0.147364855671857 10.9173390483579  0.0208127931859992 10.7023003359822  0.0208127931859992 10.4695451802067  C 0.0208127931859992 10.3552382355175  0.0514641586594859 10.242947170385  0.109683111363636 10.1439693850446  L 3.75518961590909 3.94347958370536  L 15.2314701215909 10.4520510122768  Z M 12.8958026056818 0.1091122421875  L 14.0431480602273 0.759969385044643  C 14.3610701409091 0.940377540178572  14.4684571511364 1.337275515625  14.2861818181818 1.64813265848214  L 12.6301610306818 4.4666632734375  L 16.6458701215909 6.74396938504464  C 16.9637922022727 6.92437754017857  17.0725922022727 7.32266325446428  16.8889038988636 7.63352041629464  L 16.2262129897727 8.76037755915179  C 16.0434039299693 9.07129204874397  15.6387750007879 9.17809421126109  15.3219012931818 8.99907142857143  L 4.99296624204545 3.14274490066964  C 4.78761420908095 3.02656353273294  4.66106214659509 2.8115248203572  4.66106214659509 2.57876966458167  C 4.66106214659509 2.46446271989253  4.69171351206858 2.35217165476001  4.74993246477272 2.25319386941964  L 5.41262337386364 1.12494898772321  C 5.59591583938758 0.814538120670393  6.00043093147925 0.708386766411112  6.31693507045454 0.887642857142857  L 10.3340571511364 3.16494898772321  L 11.9900779193182 0.347806130580357  C 12.1083716757628 0.146121098204502  12.327320182909 0.0218288939773204  12.5643072506078 0.0218288939773204  C 12.6806925033822 0.0218288939773204  12.7950252242444 0.0519329136387808  12.8958026056818 0.1091122421875  Z " fill-rule="nonzero" fill="#d7d7d7" stroke="none" transform="matrix(1 0 0 1 85 659 )" />
  </g>
</svg>