<?xml version="1.0" encoding="utf-8"?>
<svg version="1.1" xmlns:xlink="http://www.w3.org/1999/xlink" width="9px" height="9px" xmlns="http://www.w3.org/2000/svg">
  <g transform="matrix(1 0 0 1 -237 -659 )">
    <path d="M 0.0803571428571428 8.12903225806452  C 0.0803571428571428 8.56995967741936  0.476116071428571 8.92741935483871  0.964285714285714 8.92741935483871  C 1.45245535714286 8.92741935483871  1.84821428571429 8.56995967741936  1.84821428571429 8.12903225806452  C 1.84821428571429 8.00020161290323  1.81205357142857 7.8804435483871  1.75178571428572 7.77338709677419  L 8.93973214285714 4.3820564516129  C 7.44107142857143 1.78366935483871  4.43370535714286 0.00725806451612914  0.964285714285714 0.00725806451612914  L 0.964285714285714 7.33064516129032  C 0.476116071428571 7.33064516129032  0.0803571428571428 7.68810483870968  0.0803571428571428 8.12903225806452  Z M 3.94151785714286 2.82157258064516  C 3.94151785714286 2.56028225806452  4.1765625 2.34979838709677  4.46383928571429 2.34979838709677  C 4.75111607142857 2.34979838709677  4.98616071428571 2.56028225806452  4.98616071428571 2.82157258064516  C 4.98616071428571 3.08104838709677  4.753125 3.29334677419355  4.46383928571429 3.29334677419355  C 4.1765625 3.29334677419355  3.94151785714286 3.08286290322581  3.94151785714286 2.82157258064516  Z " fill-rule="nonzero" fill="#d7d7d7" stroke="none" transform="matrix(1 0 0 1 237 659 )" />
  </g>
</svg>