<?xml version="1.0" encoding="utf-8"?>
<svg version="1.1" xmlns:xlink="http://www.w3.org/1999/xlink" width="10px" height="10px" xmlns="http://www.w3.org/2000/svg">
  <g transform="matrix(1 0 0 1 -232 -662 )">
    <path d="M 0.582142857142858 5  C 0.582142857142858 2.80357142857143  2.19285714285714 0.976785714285714  4.29642857142857 0.639285714285714  L 4.29642857142857 0.105357142857143  C 1.9 0.448214285714286  0.0535714285714286 2.5125  0.0535714285714286 5  C 0.0535714285714286 7.72678571428572  2.27321428571429 9.94642857142857  5 9.94642857142857  C 7.72678571428572 9.94642857142857  9.94642857142857 7.72678571428572  9.94642857142857 5  C 9.94642857142857 4.43035714285714  9.84821428571429 3.88214285714286  9.66964285714286 3.37142857142857  L 9.19642857142857 3.61964285714286  C 9.33928571428572 4.05535714285714  9.41785714285714 4.51785714285714  9.41785714285714 5  C 9.41785714285714 7.43571428571429  7.43571428571429 9.41785714285714  5 9.41785714285714  C 2.56428571428571 9.41785714285714  0.582142857142858 7.43571428571429  0.582142857142858 5  Z " fill-rule="nonzero" fill="#d7d7d7" stroke="none" transform="matrix(1 0 0 1 232 662 )" />
  </g>
</svg>