<?xml version="1.0" encoding="utf-8"?>
<svg version="1.1" xmlns:xlink="http://www.w3.org/1999/xlink" width="17px" height="17px" xmlns="http://www.w3.org/2000/svg">
  <g transform="matrix(1 0 0 1 -229 -659 )">
    <path d="M 16.9924107142857 8.5  C 16.9924107142857 7.35212053571429  16.7628348214286 6.25926339285714  16.3511160714286 5.26127232142857  L 15.6832589285714 5.61037946428571  C 16.04375 6.50401785714286  16.2448660714286 7.47924107142857  16.2448660714286 8.5  C 16.2448660714286 12.7689732142857  12.7708705357143 16.24296875  8.50189732142857 16.24296875  C 4.23102678571429 16.24296875  0.75703125 12.7689732142857  0.75703125 8.5  C 0.75703125 4.48337053571429  3.83258928571429 1.17064732142857  7.75245535714286 0.793080357142857  L 7.75245535714286 0.0436383928571428  C 3.41328125 0.423102678571429  0.00758928571428582 4.06216517857143  0.00758928571428582 8.5  C 0.00758928571428582 13.1901785714286  3.80982142857143 16.9924107142857  8.5 16.9924107142857  C 13.1901785714286 16.9924107142857  16.9924107142857 13.1901785714286  16.9924107142857 8.5  Z " fill-rule="nonzero" fill="#d7d7d7" stroke="none" transform="matrix(1 0 0 1 229 659 )" />
  </g>
</svg>