<?xml version="1.0" encoding="utf-8"?>
<svg version="1.1" xmlns:xlink="http://www.w3.org/1999/xlink" width="17px" height="17px" xmlns="http://www.w3.org/2000/svg">
  <g transform="matrix(1 0 0 1 -303 -659 )">
    <path d="M 2.301232919971 0  L 14.5744751328488 0  C 15.8454109803573 0.0983288840625615  16.8757080528198 1.35218098168193  16.8757080528198 2.89888592817821  L 16.8757080528198 14.1011140718218  C 16.8757080528198 15.6478190183181  15.8454109803573 16.9016711159374  14.5744751328488 17  L 2.301232919971 17  C 1.03029707246243 16.9016711159374  0 15.6478190183181  0 14.1011140718218  L 0 2.89888592817821  C 0 1.35218098168193  1.03029707246243 0.0983288840625615  2.301232919971 0  Z M 15.3415527728391 2.89888592817821  C 15.3417156396614 2.3933552142022  15.0111878041944 1.97952173665624  14.5959533082247 2  L 2.301232919971 2  C 1.88583558910699 1.96516870762322  1.54578637499946 2.36741484701224  1.53415527998067 2.87274739399424  L 1.53415527998067 14.1011140718218  C 1.53399241315837 14.6066447857978  1.86452024862532 15.0204782633438  2.27975474459502 15  L 14.5744751328488 15  C 14.9898724637128 15.0348312923768  15.3299216778203 14.6325851529878  15.3415527728391 14.1272526060058  L 15.3415527728391 2.89888592817821  Z M 3.06831055996133 3.83240494288343  L 4.60246582645821 3.83240494288343  L 4.60246582645821 7.56648098529478  L 6.52015993317594 7.56648098529478  L 6.52015993317594 3.83240494288343  L 8.05431519967282 3.83240494288343  L 8.05431519967282 13.1675950571166  L 6.52015993317594 13.1675950571166  L 6.52015993317594 9.43351901470522  L 4.60246582645821 9.43351901470522  L 4.60246582645821 13.1675950571166  L 3.06831055996133 13.1675950571166  L 3.06831055996133 3.83240494288343  Z M 9.20493166640021 3.83240494288343  L 11.2407557174601 3.83240494288343  C 12.2663385141313 3.83240494288343  12.6383711807856 3.96309759739378  13.0134721370191 4.20581253891981  C 13.389340185873 4.45039452211816  13.6831309154227 4.80886581759498  13.8833381790691 5.26535662036409  C 14.0843125218523 5.72184742313319  14.1909363061117 6.17460414255765  14.1909363061117 7.42178553465152  L 14.1909363061117 9.57821446534848  C 14.1909363061117 10.8253958738519  14.0835454427156 11.2781525932763  13.8841052582058 11.7346433796359  C 13.6877258228766 12.1858120918773  13.3843728701396 12.5546616469245  13.0134721370191 12.793253940244  C 12.6383711673018 13.0378359234424  12.2663385141313 13.1675950571166  11.2415227965968 13.1675950571166  L 9.20493166640021 13.1675950571166  L 9.20493166640021 3.83240494288343  Z M 12.264037290205 5.82453450178725  C 12.1390036336326 5.7423848323002  12.0155041353336 5.69944295588435  11.6733875010751 5.69944295588435  L 10.7390869328971 5.69944295588435  L 10.7390869328971 11.3005570441156  L 11.6733875010751 11.3005570441156  C 12.0155041218498 11.3005570441156  12.1390036336326 11.2576151676998  12.264037290205 11.1754654982128  C 12.3875666919507 11.0958691192518  12.4885878610445 10.9729282625244  12.5539926375551 10.8225953113434  C 12.621495466746 10.6704317104203  12.6567810396148 10.5201351511696  12.6567810396148 10.1037856623079  L 12.6567810396148 6.89621433769211  C 12.6567810396148 6.47986486523988  12.621495466746 6.32956828957966  12.5539926375551 6.17740468865662  C 12.4885878610445 6.02707173747563  12.3875666919507 5.90413088074823  12.264037290205 5.82453450178725  Z " fill-rule="nonzero" fill="#d7d7d7" stroke="none" transform="matrix(1 0 0 1 303 659 )" />
  </g>
</svg>