<?xml version="1.0" encoding="utf-8"?>
<svg version="1.1" xmlns:xlink="http://www.w3.org/1999/xlink" width="17px" height="17px" xmlns="http://www.w3.org/2000/svg">
  <g transform="matrix(1 0 0 1 -378 -659 )">
    <path d="M 16.8681747787611 13.5494137168142  C 16.8681747787611 13.1618362831858  16.5539380530973 12.8472234513274  16.166360619469 12.8472234513274  L 14.1880420353982 12.8472234513274  L 14.1880420353982 8.33488938053097  C 14.1880420353982 7.94712389380531  13.8736172566372 7.63288716814159  13.4860398230088 7.63288716814159  C 13.0984623893805 7.63288716814159  12.7840376106195 7.94731194690266  12.7840376106195 8.33488938053097  L 12.7840376106195 12.8472234513274  L 5.43943584070796 12.8472234513274  L 14.2002654867257 3.85847345132743  C 14.4708738938053 3.58071902654867  14.465232300885 3.13653761061947  14.1876659292035 2.86574115044248  C 13.9099115044248 2.59532079646018  13.4653539823009 2.60077433628319  13.1949336283186 2.87871681415929  L 4.47716814159292 11.8232743362832  L 4.47716814159292 4.28855088495575  L 8.46539823008849 4.28855088495575  C 8.85316371681416 4.28855088495575  9.16740044247788 3.97412610619469  9.16740044247788 3.58654867256637  C 9.16740044247788 3.19897123893805  8.85297566371681 2.88454646017699  8.46539823008849 2.88454646017699  L 4.47716814159292 2.88454646017699  L 4.47716814159292 0.83570796460177  C 4.47716814159292 0.447942477876106  4.16274336283186 0.133705752212389  3.77516592920354 0.133705752212389  C 3.38758849557522 0.133705752212389  3.07316371681416 0.448130530973451  3.07316371681416 0.83570796460177  L 3.07316371681416 2.88435840707965  L 0.720807522123894 2.88435840707965  C 0.33304203539823 2.88435840707965  0.0188053097345133 3.19878318584071  0.0188053097345133 3.58636061946903  C 0.0188053097345133 3.97393805309735  0.333230088495575 4.28836283185841  0.720807522123894 4.28836283185841  L 3.07297566371681 4.28836283185841  L 3.07297566371681 13.5492256637168  C 3.07297566371681 13.5507300884956  3.07316371681416 13.5522345132743  3.07316371681416 13.5537389380531  C 3.07316371681416 13.5601327433628  3.0733517699115 13.5665265486726  3.07372787610619 13.5729203539823  L 3.07429203539823 13.5889048672566  C 3.07466814159292 13.594546460177  3.07504424778761 13.6003761061947  3.07560840707965 13.606017699115  C 3.07617256637168 13.6120353982301  3.07654867256637 13.6180530973451  3.07711283185841 13.6238827433628  C 3.0774889380531 13.6282079646018  3.07824115044248 13.6325331858407  3.07880530973451 13.6368584070796  C 3.07974557522124 13.6440044247788  3.08049778761062 13.6513384955752  3.08162610619469 13.6584845132743  L 3.08275442477876 13.6645022123894  C 3.0891482300885 13.7030530973451  3.0987389380531 13.7404756637168  3.11115044247788 13.7767699115044  L 3.11566371681416 13.7903097345133  C 3.1162278761062 13.791814159292  3.11679203539823 13.7931305309735  3.11735619469027 13.7946349557522  C 3.14744469026549 13.875685840708  3.19314159292035 13.9522234513274  3.25425884955752 14.0197345132743  C 3.25482300884956 14.0202986725664  3.25538716814159 14.0208628318584  3.25576327433628 14.0216150442478  C 3.26215707964602 14.0285730088496  3.2687389380531 14.035342920354  3.27532079646018 14.0421128318584  L 3.27983407079646 14.0466261061947  C 3.28171460176991 14.0485066371681  3.28340707964602 14.0501991150443  3.28509955752212 14.0520796460177  C 3.28980088495575 14.056592920354  3.29450221238938 14.0609181415929  3.29939159292035 14.0652433628319  C 3.30127212389381 14.066935840708  3.30296460176991 14.0686283185841  3.30484513274336 14.0703207964602  C 3.31142699115044 14.0763384955752  3.31819690265487 14.0819800884956  3.32477876106195 14.0876216814159  C 3.3266592920354 14.089314159292  3.32872787610619 14.0908185840708  3.33060840707965 14.0925110619469  C 3.33756637168142 14.0981526548673  3.34452433628319 14.1036061946903  3.3516703539823 14.1090597345133  C 3.35355088495575 14.1103761061947  3.3554314159292 14.1118805309735  3.35731194690266 14.1131969026549  C 3.36464601769912 14.1186504424779  3.37198008849558 14.1239159292035  3.37950221238938 14.1289933628319  L 3.38495575221239 14.1327544247788  C 3.3924778761062 14.1378318584071  3.40018805309735 14.1427212389381  3.4078982300885 14.1474225663717  C 3.40977876106195 14.1485508849558  3.41184734513274 14.1498672566372  3.41372787610619 14.1509955752212  C 3.42125 14.1555088495575  3.42896017699115 14.1600221238938  3.4366703539823 14.1641592920354  C 3.43892699115044 14.1654756637168  3.44137168141593 14.1667920353982  3.44381637168142 14.1681084070797  C 3.45115044247788 14.1720575221239  3.45848451327434 14.1758185840708  3.46600663716814 14.1795796460177  C 3.46901548672566 14.1810840707965  3.47202433628319 14.1824004424779  3.47484513274336 14.1839048672566  C 3.48180309734513 14.1871017699115  3.4887610619469 14.1902986725664  3.49571902654867 14.1933075221239  C 3.49948008849558 14.195  3.50305309734513 14.1965044247788  3.50681415929204 14.1980088495575  C 3.51320796460177 14.2006415929204  3.51960176991151 14.2030862831858  3.52599557522124 14.2055309734513  L 3.53953539823009 14.2106084070797  C 3.54517699115044 14.2126769911505  3.55100663716814 14.2145575221239  3.55683628318584 14.2164380530974  L 3.57263274336283 14.2215154867257  L 3.58824115044248 14.226028761062  C 3.59407079646018 14.2277212389381  3.59990044247788 14.2292256637168  3.60591814159292 14.2307300884956  L 3.62058628318584 14.2341150442478  C 3.62679203539823 14.2354314159292  3.63299778761062 14.236935840708  3.63920353982301 14.238064159292  C 3.64409292035398 14.2390044247788  3.64898230088496 14.2397566371681  3.65387168141593 14.2406969026549  C 3.66007743362832 14.2418252212389  3.66647123893805 14.242953539823  3.67267699115044 14.2438938053097  C 3.67794247787611 14.2446460176991  3.68320796460177 14.2452101769912  3.68866150442478 14.2459623893805  C 3.69449115044248 14.2467146017699  3.70050884955752 14.2474668141593  3.70652654867257 14.2480309734513  C 3.7129203539823 14.2485951327434  3.71950221238938 14.2489712389381  3.72608407079646 14.2495353982301  C 3.73097345132743 14.2499115044248  3.73567477876106 14.2502876106195  3.74056415929204 14.2504756637168  C 3.75203539823009 14.2510398230089  3.76350663716814 14.2514159292035  3.7749778761062 14.2514159292035  L 12.7838495575221 14.2514159292035  L 12.7838495575221 16.2810730088496  C 12.7838495575221 16.6688384955752  13.0982743362832 16.9830752212389  13.4858517699115 16.9830752212389  C 13.8734292035398 16.9830752212389  14.1878539823009 16.6686504424779  14.1878539823009 16.2810730088496  L 14.1878539823009 14.2514159292035  L 16.1661725663717 14.2514159292035  C 16.5539380530973 14.2514159292035  16.8681747787611 13.9369911504425  16.8681747787611 13.5494137168142  Z " fill-rule="nonzero" fill="#d7d7d7" stroke="none" transform="matrix(1 0 0 1 378 659 )" />
  </g>
</svg>