<?xml version="1.0" encoding="utf-8"?>
<svg version="1.1" xmlns:xlink="http://www.w3.org/1999/xlink" width="13px" height="12px" xmlns="http://www.w3.org/2000/svg">
  <g transform="matrix(1 0 0 1 -158 -662 )">
    <path d="M 1.63884943181818 0.447916666666667  C 1.63884943181818 0.3734375  1.58483664772727 0.3125  1.51882102272727 0.3125  L 0.618607954545455 0.3125  C 0.552592329545454 0.3125  0.498579545454545 0.3734375  0.498579545454545 0.447916666666667  L 0.498579545454545 11.5520833333333  C 0.498579545454545 11.6265625  0.552592329545454 11.6875  0.618607954545455 11.6875  L 1.51882102272727 11.6875  C 1.58483664772727 11.6875  1.63884943181818 11.6265625  1.63884943181818 11.5520833333333  L 1.63884943181818 0.447916666666667  Z M 12.5014204545455 0.447916666666667  C 12.5014204545455 0.3734375  12.4474076704545 0.3125  12.3813920454545 0.3125  L 11.4811789772727 0.3125  C 11.4151633522727 0.3125  11.3611505681818 0.3734375  11.3611505681818 0.447916666666667  L 11.3611505681818 11.5520833333333  C 11.3611505681818 11.6265625  11.4151633522727 11.6875  11.4811789772727 11.6875  L 12.3813920454545 11.6875  C 12.4474076704545 11.6875  12.5014204545455 11.6265625  12.5014204545455 11.5520833333333  L 12.5014204545455 0.447916666666667  Z M 10.5974698153409 6.06263020833333  C 10.6544833096591 6.01354166666667  10.6544833096591 5.91875  10.6004705255682 5.86966145833333  L 8.68601740056818 4.16510416666667  C 8.61550071022727 4.10247395833333  8.51047585227273 4.15833333333333  8.51047585227273 4.26158854166667  L 8.51047585227273 5.390625  L 4.48952414772727 5.390625  L 4.48952414772727 4.32760416666667  C 4.48952414772727 4.22604166666667  4.38449928977273 4.16848958333333  4.31398259943182 4.23111979166667  L 2.39952947443182 5.93736979166667  C 2.34401633522727 5.98645833333333  2.34401633522727 6.08125  2.39952947443182 6.12864583333333  L 4.31248224431818 7.83489583333333  C 4.38299893465909 7.89752604166667  4.48802379261364 7.84166666666667  4.48802379261364 7.73841145833333  L 4.48802379261364 6.609375  L 8.50897549715909 6.609375  L 8.50897549715909 7.67239583333333  C 8.50897549715909 7.77395833333333  8.61400035511364 7.83151041666667  8.68451704545455 7.76888020833333  L 10.5974698153409 6.06263020833333  Z " fill-rule="nonzero" fill="#d7d7d7" stroke="none" transform="matrix(1 0 0 1 158 662 )" />
  </g>
</svg>