<?xml version="1.0" encoding="utf-8"?>
<svg version="1.1" xmlns:xlink="http://www.w3.org/1999/xlink" width="19px" height="19px" xmlns="http://www.w3.org/2000/svg">
  <g transform="matrix(1 0 0 1 -1145 -12 )">
    <path d="M 0.653709876019022 17.4336011803668  L 5.19390073029891 12.8933901579484  L 1.59074176290761 12.8933901579484  C 1.23431024966033 12.8933901579484  0.945361328125 12.604441236413  0.945361328125 12.2480097231658  C 0.945361328125 11.8915782099185  1.23431024966033 11.6026292883832  1.59074176290761 11.6026292883832  L 6.75378524116848 11.6026292883832  C 7.11021675441576 11.6026292883832  7.39916567595109 11.8915782099185  7.39916567595109 12.2480097231658  L 7.39916567595109 17.4110532014266  C 7.39916567595109 17.7674847146739  7.11021675441576 18.0564336362092  6.75378524116848 18.0564336362092  C 6.3973537279212 18.0564336362092  6.10840480638587 17.7674847146739  6.10840480638587 17.4110532014266  L 6.10840480638587 13.8042841372283  L 1.56639881963315 18.346290123981  C 1.31437775985054 18.5983313519022  0.90573093580163 18.5983313519022  0.653709876019022 18.346290123981  C 0.401668648097826 18.0942690641984  0.401668648097826 17.6856222401495  0.653709876019022 17.4336011803668  Z M 13.8042841372283 6.10842497452446  L 17.4110532014266 6.10842497452446  C 17.7674847146739 6.10842497452446  18.0564336362092 6.3973537279212  18.0564336362092 6.75380540930707  C 18.0564336362092 7.11021675441576  17.7674847146739 7.39918584408967  17.4110532014266 7.39918584408967  L 12.2480097231658 7.39918584408967  C 11.8915782099185 7.39918584408967  11.6026292883832 7.11021675441576  11.6026292883832 6.75380540930707  L 11.6026292883832 1.5907619310462  C 11.6026292883832 1.23431024966033  11.8915782099185 0.945381496263587  12.2480097231658 0.945381496263587  C 12.604441236413 0.945381496263587  12.8933901579484 1.23431024966033  12.8933901579484 1.5907619310462  L 12.8933901579484 5.19390073029891  L 17.4336011803669 0.653709876019022  C 17.6856222401495 0.401668648097826  18.0942690641984 0.401668648097826  18.346290123981 0.653709876019022  C 18.5983313519022 0.90573093580163  18.5983313519022 1.31437775985054  18.346290123981 1.56639881963315  L 13.8043043053669 6.10840480638587  Z M 12.893410326087 13.8060992697011  L 12.893410326087 17.4110532014266  C 12.893410326087 17.7674847146739  12.6044614045516 18.0564336362092  12.2480298913043 18.0564336362092  C 11.8915983780571 18.0564336362092  11.6026494565217 17.7674847146739  11.6026494565217 17.4110532014266  L 11.6026494565217 12.2480097231658  C 11.6026494565217 11.8915782099185  11.8915983780571 11.6026292883832  12.2480298913043 11.6026292883832  L 17.4110733695652 11.6026292883832  C 17.7675048828125 11.6026292883832  18.0564538043478 11.8915782099185  18.0564538043478 12.2480097231658  C 18.0564538043478 12.604441236413  17.7675048828125 12.8933901579484  17.4110733695652 12.8933901579484  L 13.8060992697011 12.8933901579484  L 18.346290123981 17.4336011803669  C 18.5983313519022 17.6856222401495  18.5983313519022 18.0942690641984  18.346290123981 18.346290123981  C 18.0942690641984 18.5983313519022  17.6856222401495 18.5983313519022  17.4336011803668 18.346290123981  L 12.8933901579484 13.8060992697011  Z M 6.10844514266304 5.19571586277174  L 6.10844514266304 1.59072159476902  C 6.10844514266304 1.23429008152174  6.39737389605978 0.945341159986413  6.75382557744565 0.945341159986413  C 7.11023692255435 0.945341159986413  7.39920601222826 1.23429008152174  7.39920601222826 1.59072159476902  L 7.39920601222826 6.75376507302989  C 7.39920601222826 7.11019658627717  7.11023692255435 7.3991455078125  6.75382557744565 7.3991455078125  L 1.59078209918478 7.3991455078125  C 1.23433041779891 7.3991455078125  0.945401664402173 7.11019658627717  0.945401664402173 6.75376507302989  C 0.945401664402173 6.39733355978261  1.23433041779891 6.10838463824728  1.59078209918478 6.10838463824728  L 5.19571586277174 6.10838463824728  L 0.653709876019022 1.56639881963315  C 0.401668648097826 1.31437775985054  0.401668648097826 0.90573093580163  0.653709876019022 0.653709876019022  C 0.90573093580163 0.401668648097826  1.31437775985054 0.401668648097826  1.56639881963315 0.653709876019022  L 6.10840480638587 5.19569569463315  Z " fill-rule="nonzero" fill="#f2f2f2" stroke="none" transform="matrix(1 0 0 1 1145 12 )" />
  </g>
</svg>