<?xml version="1.0" encoding="utf-8"?>
<svg version="1.1" xmlns:xlink="http://www.w3.org/1999/xlink" width="19px" height="24px" xmlns="http://www.w3.org/2000/svg">
  <g transform="matrix(1 0 0 1 -566 -429 )">
    <path d="M 17.505 16.7025  C 18.6075 15.8025  17.8425 14.2275  16.29 14.2275  L 13.5675 14.2275  C 13.5675 14.205  13.5675 14.205  13.5675 14.1825  L 13.5675 3  C 13.5675 1.7625  12.555 0.75  11.3175 0.75  L 6.75 0.75  C 5.5125 0.75  4.5 1.7625  4.5 3  L 4.5 14.1825  C 4.5 14.205  4.5 14.205  4.5 14.2275  L 1.755 14.2275  C 0.202500000000001 14.2275  -0.5625 15.8025  0.517500000000002 16.7025  L 7.785 22.8  C 8.46 23.3625  9.5625 23.3625  10.2375 22.8  L 17.505 16.7025  Z " fill-rule="nonzero" fill="#aaaaaa" stroke="none" transform="matrix(1 0 0 1 566 429 )" />
  </g>
</svg>