<?xml version="1.0" encoding="utf-8"?>
<svg version="1.1" xmlns:xlink="http://www.w3.org/1999/xlink" width="20px" height="26px" xmlns="http://www.w3.org/2000/svg">
  <g transform="matrix(1 0 0 1 -566 -472 )">
    <path d="M 18.4263157894737 18.094375  C 19.5868421052632 17.119375  18.7815789473684 15.413125  17.1473684210526 15.413125  L 14.2815789473684 15.413125  C 14.2815789473684 15.38875  14.2815789473684 15.38875  14 15.364375  L 14 3.25  C 14.2815789473684 1.909375  13.2157894736842 0.8125  11.9131578947368 0.8125  L 7.10526315789474 0.8125  C 5.80263157894737 0.8125  4.73684210526316 1.909375  5 3.25  L 5 15.364375  C 4.73684210526316 15.38875  4.73684210526316 15.38875  4.73684210526316 15.413125  L 1.84736842105263 15.413125  C 0.213157894736843 15.413125  -0.592105263157895 17.119375  0.544736842105265 18.094375  L 8.19473684210527 24.7  C 8.90526315789474 25.309375  10.0657894736842 25.309375  10.7763157894737 24.7  L 18.4263157894737 18.094375  Z " fill-rule="nonzero" fill="#aaaaaa" stroke="none" transform="matrix(1 0 0 1 566 472 )" />
  </g>
</svg>