<?xml version="1.0" encoding="utf-8"?>
<svg version="1.1" xmlns:xlink="http://www.w3.org/1999/xlink" width="19px" height="19px" xmlns="http://www.w3.org/2000/svg">
  <g transform="matrix(1 0 0 1 -610 -475 )">
    <path d="M 3.31510416666667 10.0071614583333  L 0.263888888888889 10.0071614583333  C 0.276258680555556 9.60720486111111  0.3154296875 9.20724826388889  0.377278645833333 8.81141493055556  L 3.32541232638889 9.17426215277778  C 3.30479600694444 9.45258246527778  3.30067274305556 9.73090277777778  3.31510416666667 10.0071614583333  Z M 3.43467881944444 8.36610243055556  L 0.628797743055555 7.66927083333333  C 0.841145833333333 6.9208984375  1.14626736111111 6.19932725694444  1.52973090277778 5.529296875  L 3.94802517361111 6.8095703125  C 3.71299913194444 7.30848524305556  3.54188368055556 7.83213975694444  3.43467881944444 8.36610243055556  Z M 4.34798177083333 6.08181423611111  L 2.16265190972222 4.564453125  C 2.62239583333333 3.94802517361111  3.154296875 3.39138454861111  3.74186197916667 2.90690104166667  L 5.3994140625 4.78298611111111  C 4.99533420138889 5.17469618055556  4.64279513888889 5.61176215277778  4.34798177083333 6.08181423611111  Z M 6.03851996527778 4.23253038194444  L 4.66341145833333 2.23687065972222  C 5.30251736111111 1.82866753472222  5.98904079861111 1.49880642361111  6.70236545138889 1.25553385416667  L 7.50434027777778 3.376953125  C 6.98256379865094 3.60108908820234  6.49027529744006 3.88843047779801  6.03851996527778 4.23253038194444  Z M 8.3125 3.08626302083333  L 7.79090711805556 0.960720486111111  C 8.52484809027778 0.808159722222222  9.27322048611111 0.746310763888889  10.0133463541667 0.773111979166667  L 10.0133463541667 2.80588107638889  C 9.43402777777778 2.83268229166667  8.86089409722222 2.92545572916667  8.3125 3.08626302083333  Z M 10.8833550347222 2.8203125  L 11.1183810763889 0.878255208333333  C 11.8502604166667 0.991644965277778  12.5656467013889 1.19574652777778  13.2418619791667 1.48025173611111  L 12.6027560763889 3.16254340277778  C 12.0440538194444 2.97905815972222  11.4647352430556 2.86360677083333  10.8833550347222 2.8203125  Z M 13.4274088541667 3.49034288194444  L 14.2273220486111 1.966796875  C 14.8623046875 2.32964409722222  15.4498697916667 2.76877170138889  15.9735243055556 3.26768663194444  L 14.9365234375 4.43869357638889  C 14.4705946180556 4.06141493055556  13.9634331597222 3.74186197916667  13.4274088541667 3.49034288194444  Z M 15.6003689236111 5.046875  L 16.7115885416667 4.06141493055556  C 17.1713324652778 4.61805555555556  17.5609809027778 5.22623697916667  17.8702256944444 5.87152777777778  L 16.6950954861111 6.49001736111111  C 16.3879123263889 5.96430121527778  16.0188802083333 5.47981770833333  15.6003689236111 5.046875  Z M 17.1053602430556 7.30642361111111  L 18.2763671875 6.86111111111111  C 18.5052083333333 7.53526475694444  18.6515842013889 8.23621961805556  18.7093098958333 8.93923611111111  L 17.6207682291667 9.07118055555556  C 17.5197482638889 8.4609375  17.3465711805556 7.8671875  17.1053602430556 7.30642361111111  Z M 17.7176649305556 9.99479166666667  L 18.7361111111111 9.99273003472222  C 18.7113715277778 10.6936848958333  18.6021050347222 11.3905164930556  18.4124348958333 12.060546875  L 17.5754123263889 11.8564453125  C 17.6991102430556 11.2420789930556  17.7444661458333 10.6153428819444  17.7176649305556 9.99479166666667  Z M 17.3342013888889 12.7718098958333  L 18.0681423611111 13.0460069444444  C 17.8001302083333 13.6851128472222  17.4537760416667 14.2891710069444  17.0435112847222 14.8396267361111  L 16.5260416666667 14.4850260416667  C 16.8641493055556 13.9469401041667  17.1362847222222 13.3696831597222  17.3342013888889 12.7718098958333  Z M 15.9673394097222 15.2601996527778  L 16.3796657986111 15.623046875  C 15.9075520833333 16.1178385416667  15.3797743055556 16.5549045138889  14.8087022569444 16.9198133680556  L 14.583984375 16.5981987847222  C 15.0993923611111 16.2085503472222  15.5632595486111 15.7570529513889  15.9673394097222 15.2601996527778  Z M 13.7758246527778 17.1362847222222  L 13.9242621527778 17.4146050347222  C 13.3160807291667 17.7073567708333  12.6769748263889 17.923828125  12.0213758680556 18.0598958333333  L 11.9822048611111 17.9073350694444  C 12.6110026041667 17.7238498263889  13.2150607638889 17.4640842013889  13.7758246527778 17.1362847222222  Z M 11.0173611111111 18.1258680555556  L 11.0276692708333 18.2042100694444  C 10.6875 18.2330729166667  10.3473307291667 18.2392578125  10.0071614583333 18.2268880208333  C 10.3452690972222 18.2145182291667  10.6833767361111 18.1794704861111  11.0173611111111 18.1258680555556  Z " fill-rule="nonzero" fill="#aaaaaa" stroke="none" transform="matrix(1 0 0 1 610 475 )" />
  </g>
</svg>