<?xml version="1.0" encoding="utf-8"?>
<svg version="1.1" xmlns:xlink="http://www.w3.org/1999/xlink" width="16px" height="13px" xmlns="http://www.w3.org/2000/svg">
  <g transform="matrix(1 0 0 1 -668 -556 )">
    <path d="M 15.8 0.2066796875  L 0.25625 0.2066796875  L 0.25625 12.8359765625  L 15.8 12.8359765625  L 15.8 0.2066796875  Z M 15 1  L 15 12  L 1 12  L 1 1  L 15 1  Z M 12.30125 6.521328125  C 12.303125 6.679765625  12.108125 6.8366796875  11.913125 6.8366796875  L 4.14125 6.8366796875  C 3.90875 6.8366796875  3.753125 6.710234375  3.753125 6.521328125  C 3.753125 6.332421875  3.90875 6.2059765625  4.14125 6.2059765625  L 11.913125 6.2059765625  C 12.145625 6.2059765625  12.30125 6.332421875  12.30125 6.521328125  Z " fill-rule="nonzero" fill="#d7d7d7" stroke="none" fill-opacity="0.517647058823529" transform="matrix(1 0 0 1 668 556 )" />
  </g>
</svg>