<?xml version="1.0" encoding="utf-8"?>
<svg version="1.1" xmlns:xlink="http://www.w3.org/1999/xlink" width="17px" height="16px" xmlns="http://www.w3.org/2000/svg">
  <g transform="matrix(1 0 0 1 -857 -653 )">
    <path d="M 2.14311079545455 0.597222222222222  C 2.14311079545455 0.497916666666666  2.07247869318182 0.416666666666667  1.98615056818182 0.416666666666667  L 0.808948863636364 0.416666666666667  C 0.722620738636364 0.416666666666667  0.651988636363636 0.497916666666666  0.651988636363636 0.597222222222222  L 0.651988636363636 15.4027777777778  C 0.651988636363636 15.5020833333333  0.722620738636364 15.5833333333333  0.808948863636364 15.5833333333333  L 1.98615056818182 15.5833333333333  C 2.07247869318182 15.5833333333333  2.14311079545455 15.5020833333333  2.14311079545455 15.4027777777778  L 2.14311079545455 0.597222222222222  Z M 16.3480113636364 0.597222222222222  C 16.3480113636364 0.497916666666666  16.2773792613636 0.416666666666667  16.1910511363636 0.416666666666667  L 15.0138494318182 0.416666666666667  C 14.9275213068182 0.416666666666667  14.8568892045455 0.497916666666666  14.8568892045455 0.597222222222222  L 14.8568892045455 15.4027777777778  C 14.8568892045455 15.5020833333333  14.9275213068182 15.5833333333333  15.0138494318182 15.5833333333333  L 16.1910511363636 15.5833333333333  C 16.2773792613636 15.5833333333333  16.3480113636364 15.5020833333333  16.3480113636364 15.4027777777778  L 16.3480113636364 0.597222222222222  Z M 13.8582297585227 8.08350694444444  C 13.9327858664773 8.01805555555556  13.9327858664773 7.89166666666667  13.8621537642045 7.82621527777778  L 11.3586381392045 5.55347222222222  C 11.2664240056818 5.46996527777778  11.1290838068182 5.54444444444445  11.1290838068182 5.68211805555556  L 11.1290838068182 7.1875  L 5.87091619318182 7.1875  L 5.87091619318182 5.77013888888889  C 5.87091619318182 5.63472222222222  5.73357599431818 5.55798611111111  5.64136186079546 5.64149305555556  L 3.13784623579545 7.91649305555556  C 3.06525213068182 7.98194444444444  3.06525213068182 8.10833333333333  3.13784623579545 8.17152777777778  L 5.63939985795454 10.4465277777778  C 5.73161399147727 10.5300347222222  5.86895419034091 10.4555555555556  5.86895419034091 10.3178819444444  L 5.86895419034091 8.8125  L 11.1271218039773 8.8125  L 11.1271218039773 10.2298611111111  C 11.1271218039773 10.3652777777778  11.2644620028409 10.4420138888889  11.3566761363636 10.3585069444444  L 13.8582297585227 8.08350694444444  Z " fill-rule="nonzero" fill="#aaaaaa" stroke="none" transform="matrix(1 0 0 1 857 653 )" />
  </g>
</svg>