<?xml version="1.0" encoding="utf-8"?>
<svg version="1.1" xmlns:xlink="http://www.w3.org/1999/xlink" width="25px" height="25px" xmlns="http://www.w3.org/2000/svg">
  <g transform="matrix(1 0 0 1 -46 -47 )">
    <path d="M 24.9479166666667 12.4877450980392  C 24.9479166666667 5.6219362745098  19.3811274509804 0.0582107843137248  12.5183823529412 0.0582107843137257  C 5.65257352941176 0.0582107843137257  0.0888480392156873 5.6219362745098  0.0888480392156873 12.4877450980392  C 0.0888480392156873 19.3535539215686  5.65257352941176 24.9172794117647  12.5183823529412 24.9172794117647  C 19.3841911764706 24.9172794117647  24.9479166666667 19.3535539215686  24.9479166666667 12.4877450980392  Z M 11.734068627451 12.1200980392157  L 11.734068627451 6.43382352941176  C 11.734068627451 6.1734068627451  11.8259803921569 5.94975490196078  12.0098039215686 5.75980392156863  C 12.1936274509804 5.56985294117647  12.4172794117647 5.47487745098039  12.6746323529412 5.47487745098039  C 12.9442401960784 5.47487745098039  13.1709558823529 5.56985294117647  13.3547794117647 5.75980392156863  C 13.5386029411765 5.94975490196078  13.6305147058824 6.1734068627451  13.6305147058824 6.43382352941176  L 13.6305147058824 12.1200980392157  C 13.6305147058824 12.3805147058824  13.5386029411765 12.6011029411765  13.3547794117647 12.7849264705882  C 13.1709558823529 12.96875  12.9442401960784 13.0606617647059  12.6746323529412 13.0606617647059  C 12.4142156862745 13.0606617647059  12.1936274509804 12.96875  12.0098039215686 12.7849264705882  C 11.8259803921569 12.6011029411765  11.734068627451 12.3774509803922  11.734068627451 12.1200980392157  Z M 19.3811274509804 13.0147058823529  C 19.3811274509804 13.9491421568627  19.203431372549 14.8192401960784  18.8511029411765 15.6311274509804  C 18.4957107843137 16.4430147058824  18.0177696078431 17.1537990196078  17.4142156862745 17.7573529411765  C 16.8106617647059 18.3609068627451  16.1029411764706 18.8388480392157  15.2879901960784 19.1942401960784  C 14.4761029411765 19.5496323529412  13.6029411764706 19.7242647058824  12.6776960784314 19.7242647058824  C 11.7585784313725 19.7242647058824  10.8946078431373 19.546568627451  10.0796568627451 19.1942401960784  C 9.26776960784314 18.8388480392157  8.55698529411765 18.3609068627451  7.94730392156863 17.7573529411765  C 7.33762254901961 17.1537990196078  6.85968137254902 16.4460784313726  6.51041666666667 15.6311274509804  C 6.16115196078431 14.8192401960784  5.98651960784314 13.9460784313726  5.98651960784314 13.0208333333333  C 5.98651960784314 12.4908088235294  6.04779411764706 11.9730392156863  6.1734068627451 11.4644607843137  C 6.29901960784314 10.9558823529412  6.47365196078431 10.4718137254902  6.70343137254902 10.0122549019608  C 6.93321078431373 9.55269607843137  7.21813725490196 9.12377450980392  7.55514705882353 8.72549019607843  C 8.34558823529412 7.80024509803922  9.14828431372549 7.42953431372549  9.40257352941177 7.46936274509804  C 9.65686274509804 7.50919117647059  9.86519607843137 7.63480392156863  10.0245098039216 7.84313725490196  C 10.1838235294118 8.0514705882353  10.2450980392157 8.28737745098039  10.2052696078431 8.54779411764706  C 10.1654411764706 8.80821078431373  10.0398284313726 9.01654411764706  9.83149509803922 9.17585784313725  C 9.20343137254902 9.63541666666667  8.72242647058824 10.1991421568627  8.38848039215686 10.8670343137255  C 8.05453431372549 11.5349264705882  7.88602941176471 12.2549019607843  7.88602941176471 13.0208333333333  C 7.88602941176471 13.6795343137255  8.01164215686275 14.3014705882353  8.25980392156863 14.8835784313725  C 8.50796568627451 15.4656862745098  8.85110294117647 15.9773284313725  9.28615196078431 16.4093137254902  C 9.72120098039216 16.844362745098  10.2297794117647 17.1875  10.811887254902 17.4417892156863  C 11.3970588235294 17.6960784313725  12.015931372549 17.8247549019608  12.6746323529412 17.8247549019608  C 13.3333333333333 17.8247549019608  13.9552696078431 17.6991421568627  14.5373774509804 17.4417892156863  C 15.1225490196078 17.1875  15.6311274509804 16.844362745098  16.063112745098 16.4093137254902  C 16.4981617647059 15.9742647058823  16.8412990196078 15.4656862745098  17.0955882352941 14.8835784313725  C 17.3498774509804 14.3014705882353  17.4785539215686 13.6795343137255  17.4785539215686 13.0208333333333  C 17.4785539215686 12.2426470588235  17.2977941176471 11.5073529411765  16.9393382352941 10.811887254902  C 16.5808823529412 10.1194852941176  16.0753676470588 9.54656862745098  15.4289215686275 9.09926470588235  C 15.2083333333333 8.94914215686275  15.0765931372549 8.74387254901961  15.030637254902 8.48651960784314  C 14.984681372549 8.22610294117647  15.0367647058824 7.98713235294118  15.186887254902 7.76654411764706  C 15.3370098039216 7.55821078431373  15.5422794117647 7.42953431372549  15.7996323529412 7.38357843137255  C 16.0600490196078 7.33762254901961  16.2990196078431 7.38970588235294  16.5196078431373 7.53982843137255  C 16.9669117647059 7.85845588235294  17.3682598039216 8.21997549019608  17.7175245098039 8.62438725490196  C 18.0667892156863 9.02879901960784  18.3670343137255 9.46384803921569  18.6151960784314 9.93259803921569  C 18.8633578431373 10.4013480392157  19.0533088235294 10.8976715686275  19.1850490196078 11.421568627451  C 19.3075980392157 11.8995098039216  19.3811274509804 12.4479166666667  19.3811274509804 13.0116421568627  L 19.3811274509804 13.0147058823529  Z " fill-rule="nonzero" fill="#d9001b" stroke="none" transform="matrix(1 0 0 1 46 47 )" />
  </g>
</svg>