<?xml version="1.0" encoding="utf-8"?>
<svg version="1.1" xmlns:xlink="http://www.w3.org/1999/xlink" width="16px" height="16px" xmlns="http://www.w3.org/2000/svg">
  <defs>
    <mask fill="white" id="clip36">
      <path d="M 15.9383018487395 14.3447341176471  C 15.9662682352941 13.7897949579832  15.1056779831932 13.7925485714286  15.0777976470588 14.3447341176471  C 15.0309862184874 15.272443697479  13.8902157983193 15.0729788235294  13.2559381512605 15.0729788235294  L 2.37176470588236 15.0729788235294  C 1.77096067226887 15.0729788235294  0.966303193277327 15.1458635294117  0.966303193277327 14.2834662184874  L 0.966303193277327 12.1204168067227  L 0.966303193277327 4.11876033613441  L 0.966303193277327 1.79746420168067  C 0.966303193277327 0.971638319327724  1.64205714285714 0.961226218487411  2.25258487394956 0.961226218487411  L 13.0987240336135 0.961226218487411  C 13.6762084033613 0.961226218487411  14.6460826890756 0.777336470588239  14.9967381512605 1.35447663865546  C 15.1112712605042 1.5430131092437  15.0777976470588 1.82637714285715  15.0777976470588 2.040814789916  L 15.0777976470588 14.3447341176471  C 15.0777976470588 14.8995872268907  15.9383018487395 14.8995872268907  15.9383018487395 14.3447341176471  L 15.9383018487395 2.01069714285711  C 15.9383018487395 1.7435966386555  15.9387321008404 1.49465277310924  15.8708383193277 1.23073613445376  C 15.6937465546218 0.542074621848712  14.9957915966387 0.100808067226922  14.3122931092437 0.100808067226922  L 1.84066151260504 0.100808067226922  C 0.814596302521011 0.100808067226922  0.105885042016837 0.809519327731095  0.105885042016837 1.83558453781512  L 0.105885042016837 14.3074742857143  C 0.105885042016837 15.0444961344538  0.557735798319356 15.6179361344538  1.23581310924368 15.8660194957983  C 1.47692638655462 15.9543072268908  1.7609788235294 15.9334830252101  2.01577411764708 15.9334830252101  L 14.3495529411765 15.9334830252101  C 15.2455099159664 15.9334830252101  15.8947603361345 15.2066151260505  15.9383018487395 14.3447341176471  Z M 3.20326991596642 7.58676436974787  C 2.64833075630253 7.58676436974787  2.64833075630253 8.44726857142854  3.20326991596642 8.44726857142854  L 12.8408309243698 8.44726857142854  C 13.3956840336135 8.44726857142854  13.3956840336135 7.58676436974787  12.8408309243698 7.58676436974787  L 3.20326991596642 7.58676436974787  Z " fill-rule="evenodd" />
    </mask>
  </defs>
  <g transform="matrix(1 0 0 1 -17 -12 )">
    <path d="M 15.9383018487395 14.3447341176471  C 15.9662682352941 13.7897949579832  15.1056779831932 13.7925485714286  15.0777976470588 14.3447341176471  C 15.0309862184874 15.272443697479  13.8902157983193 15.0729788235294  13.2559381512605 15.0729788235294  L 2.37176470588236 15.0729788235294  C 1.77096067226887 15.0729788235294  0.966303193277327 15.1458635294117  0.966303193277327 14.2834662184874  L 0.966303193277327 12.1204168067227  L 0.966303193277327 4.11876033613441  L 0.966303193277327 1.79746420168067  C 0.966303193277327 0.971638319327724  1.64205714285714 0.961226218487411  2.25258487394956 0.961226218487411  L 13.0987240336135 0.961226218487411  C 13.6762084033613 0.961226218487411  14.6460826890756 0.777336470588239  14.9967381512605 1.35447663865546  C 15.1112712605042 1.5430131092437  15.0777976470588 1.82637714285715  15.0777976470588 2.040814789916  L 15.0777976470588 14.3447341176471  C 15.0777976470588 14.8995872268907  15.9383018487395 14.8995872268907  15.9383018487395 14.3447341176471  L 15.9383018487395 2.01069714285711  C 15.9383018487395 1.7435966386555  15.9387321008404 1.49465277310924  15.8708383193277 1.23073613445376  C 15.6937465546218 0.542074621848712  14.9957915966387 0.100808067226922  14.3122931092437 0.100808067226922  L 1.84066151260504 0.100808067226922  C 0.814596302521011 0.100808067226922  0.105885042016837 0.809519327731095  0.105885042016837 1.83558453781512  L 0.105885042016837 14.3074742857143  C 0.105885042016837 15.0444961344538  0.557735798319356 15.6179361344538  1.23581310924368 15.8660194957983  C 1.47692638655462 15.9543072268908  1.7609788235294 15.9334830252101  2.01577411764708 15.9334830252101  L 14.3495529411765 15.9334830252101  C 15.2455099159664 15.9334830252101  15.8947603361345 15.2066151260505  15.9383018487395 14.3447341176471  Z M 3.20326991596642 7.58676436974787  C 2.64833075630253 7.58676436974787  2.64833075630253 8.44726857142854  3.20326991596642 8.44726857142854  L 12.8408309243698 8.44726857142854  C 13.3956840336135 8.44726857142854  13.3956840336135 7.58676436974787  12.8408309243698 7.58676436974787  L 3.20326991596642 7.58676436974787  Z " fill-rule="nonzero" fill="#616367" stroke="none" transform="matrix(1 0 0 1 17 12 )" />
    <path d="M 15.9383018487395 14.3447341176471  C 15.9662682352941 13.7897949579832  15.1056779831932 13.7925485714286  15.0777976470588 14.3447341176471  C 15.0309862184874 15.272443697479  13.8902157983193 15.0729788235294  13.2559381512605 15.0729788235294  L 2.37176470588236 15.0729788235294  C 1.77096067226887 15.0729788235294  0.966303193277327 15.1458635294117  0.966303193277327 14.2834662184874  L 0.966303193277327 12.1204168067227  L 0.966303193277327 4.11876033613441  L 0.966303193277327 1.79746420168067  C 0.966303193277327 0.971638319327724  1.64205714285714 0.961226218487411  2.25258487394956 0.961226218487411  L 13.0987240336135 0.961226218487411  C 13.6762084033613 0.961226218487411  14.6460826890756 0.777336470588239  14.9967381512605 1.35447663865546  C 15.1112712605042 1.5430131092437  15.0777976470588 1.82637714285715  15.0777976470588 2.040814789916  L 15.0777976470588 14.3447341176471  C 15.0777976470588 14.8995872268907  15.9383018487395 14.8995872268907  15.9383018487395 14.3447341176471  L 15.9383018487395 2.01069714285711  C 15.9383018487395 1.7435966386555  15.9387321008404 1.49465277310924  15.8708383193277 1.23073613445376  C 15.6937465546218 0.542074621848712  14.9957915966387 0.100808067226922  14.3122931092437 0.100808067226922  L 1.84066151260504 0.100808067226922  C 0.814596302521011 0.100808067226922  0.105885042016837 0.809519327731095  0.105885042016837 1.83558453781512  L 0.105885042016837 14.3074742857143  C 0.105885042016837 15.0444961344538  0.557735798319356 15.6179361344538  1.23581310924368 15.8660194957983  C 1.47692638655462 15.9543072268908  1.7609788235294 15.9334830252101  2.01577411764708 15.9334830252101  L 14.3495529411765 15.9334830252101  C 15.2455099159664 15.9334830252101  15.8947603361345 15.2066151260505  15.9383018487395 14.3447341176471  Z " stroke-width="2" stroke="#797979" fill="none" transform="matrix(1 0 0 1 17 12 )" mask="url(#clip36)" />
    <path d="M 3.20326991596642 7.58676436974787  C 2.64833075630253 7.58676436974787  2.64833075630253 8.44726857142854  3.20326991596642 8.44726857142854  L 12.8408309243698 8.44726857142854  C 13.3956840336135 8.44726857142854  13.3956840336135 7.58676436974787  12.8408309243698 7.58676436974787  L 3.20326991596642 7.58676436974787  Z " stroke-width="2" stroke="#797979" fill="none" transform="matrix(1 0 0 1 17 12 )" mask="url(#clip36)" />
  </g>
</svg>