<?xml version="1.0" encoding="utf-8"?>
<svg version="1.1" xmlns:xlink="http://www.w3.org/1999/xlink" width="16px" height="16px" xmlns="http://www.w3.org/2000/svg">
  <defs>
    <mask fill="white" id="clip37">
      <path d="M 15.9331388235294 6.39786330708662  C 15.9383592156863 5.87771968503938  14.9344376470588 5.87812283464567  14.9291168627451 6.39786330708662  C 14.9050227450981 8.77128566929133  13.2413239215686 10.8992705511811  11.3331701960784 12.6179779527559  C 10.273631372549 13.5721524409449  8.99102117647061 14.5410015748031  7.76844549019609 15.230145511811  L 8.27512470588238 15.230145511811  C 7.61082980392155 14.8555388976378  6.93037176470585 14.3809511811024  6.27169882352939 13.8914469291338  C 4.86480313725491 12.8459993700787  3.59504313725489 11.6711407874016  2.61421176470589 10.3451817322835  C 1.52053960784315 8.86675149606299  0.840884705882331 7.1255483464567  1.22418196078434 5.39950362204723  C 1.6187231372549 3.62250078740158  3.11185568627451 2.13834582677165  5.11889568627453 1.36050897637796  C 7.22602666666666 0.543889133858272  9.77106823529414 0.737481574803155  11.7325301960784 1.71753826771655  C 13.7299325490196 2.71557543307085  14.9074321568627 4.52636220472442  14.9291168627451 6.39786330708662  C 14.9351403921569 6.9175231496063  15.9390619607843 6.91800692913387  15.9330384313726 6.39786330708662  C 15.8892674509804 2.62962393700786  11.7332329411765 -0.362552440944881  7.05044078431371 0.0945385826771599  C 4.82143372549018 0.312078110236229  2.85746196078429 1.2965694488189  1.54734431372549 2.74814992125985  C 0.22317176470591 4.21521133858266  -0.125891764705898 6.07832692913385  0.296558431372546 7.83097952755907  C 0.821207843137245 10.0079874015748  2.52998274509804 11.9342362204724  4.38302117647061 13.5222425196851  C 5.40661960784314 14.3994960629921  6.54064941176472 15.2340963779528  7.76854588235295 15.9263042519685  C 7.90337254901959 16.0022576377953  8.14039843137255 16.0022576377953  8.27522509803924 15.9263042519685  C 9.68834509803924 15.1296  10.9737662745098 14.1510752755906  12.1198431372549 13.1190122834646  C 14.1799905882353 11.2634759055118  15.9072376470588 8.95181606299212  15.9331388235294 6.39786330708662  Z M 12.1790745098039 6.21378519685038  C 12.1913223529412 5.69356094488188  11.1874007843138 5.69452850393699  11.1751529411765 6.21378519685038  C 11.1423247058823 7.61481070866142  9.76584784313724 8.71895685039371  8.02183529411764 8.74532283464566  C 6.2776219607843 8.77168881889764  4.90044235294118 7.57514078740158  4.86851764705881 6.21378519685038  C 4.83568941176469 4.81267905511811  6.32681411764707 3.70675905511811  8.02183529411764 3.68111874015747  C 9.76634980392157 3.65483338582678  11.143328627451 4.85251023622047  11.1751529411765 6.21378519685038  C 11.1873003921569 6.73304188976377  12.1912219607843 6.73400944881891  12.1790745098039 6.21378519685038  C 12.1358054901961 4.37082708661418  10.3164988235294 2.90957102362205  8.02183529411764 2.87481952755905  C 5.72707137254901 2.84014866141732  3.90656000000001 4.42299464566929  3.86459607843136 6.21378519685038  C 3.82142745098042 8.05666267716535  5.79252705882351 9.51791874015748  8.02183529411764 9.55162204724408  C 10.3161976470588 9.58629291338582  12.1371105882353 8.00449511811024  12.1790745098039 6.21378519685038  Z " fill-rule="evenodd" />
    </mask>
  </defs>
  <g transform="matrix(1 0 0 1 -41 -12 )">
    <path d="M 15.9331388235294 6.39786330708662  C 15.9383592156863 5.87771968503938  14.9344376470588 5.87812283464567  14.9291168627451 6.39786330708662  C 14.9050227450981 8.77128566929133  13.2413239215686 10.8992705511811  11.3331701960784 12.6179779527559  C 10.273631372549 13.5721524409449  8.99102117647061 14.5410015748031  7.76844549019609 15.230145511811  L 8.27512470588238 15.230145511811  C 7.61082980392155 14.8555388976378  6.93037176470585 14.3809511811024  6.27169882352939 13.8914469291338  C 4.86480313725491 12.8459993700787  3.59504313725489 11.6711407874016  2.61421176470589 10.3451817322835  C 1.52053960784315 8.86675149606299  0.840884705882331 7.1255483464567  1.22418196078434 5.39950362204723  C 1.6187231372549 3.62250078740158  3.11185568627451 2.13834582677165  5.11889568627453 1.36050897637796  C 7.22602666666666 0.543889133858272  9.77106823529414 0.737481574803155  11.7325301960784 1.71753826771655  C 13.7299325490196 2.71557543307085  14.9074321568627 4.52636220472442  14.9291168627451 6.39786330708662  C 14.9351403921569 6.9175231496063  15.9390619607843 6.91800692913387  15.9330384313726 6.39786330708662  C 15.8892674509804 2.62962393700786  11.7332329411765 -0.362552440944881  7.05044078431371 0.0945385826771599  C 4.82143372549018 0.312078110236229  2.85746196078429 1.2965694488189  1.54734431372549 2.74814992125985  C 0.22317176470591 4.21521133858266  -0.125891764705898 6.07832692913385  0.296558431372546 7.83097952755907  C 0.821207843137245 10.0079874015748  2.52998274509804 11.9342362204724  4.38302117647061 13.5222425196851  C 5.40661960784314 14.3994960629921  6.54064941176472 15.2340963779528  7.76854588235295 15.9263042519685  C 7.90337254901959 16.0022576377953  8.14039843137255 16.0022576377953  8.27522509803924 15.9263042519685  C 9.68834509803924 15.1296  10.9737662745098 14.1510752755906  12.1198431372549 13.1190122834646  C 14.1799905882353 11.2634759055118  15.9072376470588 8.95181606299212  15.9331388235294 6.39786330708662  Z M 12.1790745098039 6.21378519685038  C 12.1913223529412 5.69356094488188  11.1874007843138 5.69452850393699  11.1751529411765 6.21378519685038  C 11.1423247058823 7.61481070866142  9.76584784313724 8.71895685039371  8.02183529411764 8.74532283464566  C 6.2776219607843 8.77168881889764  4.90044235294118 7.57514078740158  4.86851764705881 6.21378519685038  C 4.83568941176469 4.81267905511811  6.32681411764707 3.70675905511811  8.02183529411764 3.68111874015747  C 9.76634980392157 3.65483338582678  11.143328627451 4.85251023622047  11.1751529411765 6.21378519685038  C 11.1873003921569 6.73304188976377  12.1912219607843 6.73400944881891  12.1790745098039 6.21378519685038  C 12.1358054901961 4.37082708661418  10.3164988235294 2.90957102362205  8.02183529411764 2.87481952755905  C 5.72707137254901 2.84014866141732  3.90656000000001 4.42299464566929  3.86459607843136 6.21378519685038  C 3.82142745098042 8.05666267716535  5.79252705882351 9.51791874015748  8.02183529411764 9.55162204724408  C 10.3161976470588 9.58629291338582  12.1371105882353 8.00449511811024  12.1790745098039 6.21378519685038  Z " fill-rule="nonzero" fill="#616367" stroke="none" transform="matrix(1 0 0 1 41 12 )" />
    <path d="M 15.9331388235294 6.39786330708662  C 15.9383592156863 5.87771968503938  14.9344376470588 5.87812283464567  14.9291168627451 6.39786330708662  C 14.9050227450981 8.77128566929133  13.2413239215686 10.8992705511811  11.3331701960784 12.6179779527559  C 10.273631372549 13.5721524409449  8.99102117647061 14.5410015748031  7.76844549019609 15.230145511811  L 8.27512470588238 15.230145511811  C 7.61082980392155 14.8555388976378  6.93037176470585 14.3809511811024  6.27169882352939 13.8914469291338  C 4.86480313725491 12.8459993700787  3.59504313725489 11.6711407874016  2.61421176470589 10.3451817322835  C 1.52053960784315 8.86675149606299  0.840884705882331 7.1255483464567  1.22418196078434 5.39950362204723  C 1.6187231372549 3.62250078740158  3.11185568627451 2.13834582677165  5.11889568627453 1.36050897637796  C 7.22602666666666 0.543889133858272  9.77106823529414 0.737481574803155  11.7325301960784 1.71753826771655  C 13.7299325490196 2.71557543307085  14.9074321568627 4.52636220472442  14.9291168627451 6.39786330708662  C 14.9351403921569 6.9175231496063  15.9390619607843 6.91800692913387  15.9330384313726 6.39786330708662  C 15.8892674509804 2.62962393700786  11.7332329411765 -0.362552440944881  7.05044078431371 0.0945385826771599  C 4.82143372549018 0.312078110236229  2.85746196078429 1.2965694488189  1.54734431372549 2.74814992125985  C 0.22317176470591 4.21521133858266  -0.125891764705898 6.07832692913385  0.296558431372546 7.83097952755907  C 0.821207843137245 10.0079874015748  2.52998274509804 11.9342362204724  4.38302117647061 13.5222425196851  C 5.40661960784314 14.3994960629921  6.54064941176472 15.2340963779528  7.76854588235295 15.9263042519685  C 7.90337254901959 16.0022576377953  8.14039843137255 16.0022576377953  8.27522509803924 15.9263042519685  C 9.68834509803924 15.1296  10.9737662745098 14.1510752755906  12.1198431372549 13.1190122834646  C 14.1799905882353 11.2634759055118  15.9072376470588 8.95181606299212  15.9331388235294 6.39786330708662  Z " stroke-width="2" stroke="#797979" fill="none" transform="matrix(1 0 0 1 41 12 )" mask="url(#clip37)" />
    <path d="M 12.1790745098039 6.21378519685038  C 12.1913223529412 5.69356094488188  11.1874007843138 5.69452850393699  11.1751529411765 6.21378519685038  C 11.1423247058823 7.61481070866142  9.76584784313724 8.71895685039371  8.02183529411764 8.74532283464566  C 6.2776219607843 8.77168881889764  4.90044235294118 7.57514078740158  4.86851764705881 6.21378519685038  C 4.83568941176469 4.81267905511811  6.32681411764707 3.70675905511811  8.02183529411764 3.68111874015747  C 9.76634980392157 3.65483338582678  11.143328627451 4.85251023622047  11.1751529411765 6.21378519685038  C 11.1873003921569 6.73304188976377  12.1912219607843 6.73400944881891  12.1790745098039 6.21378519685038  C 12.1358054901961 4.37082708661418  10.3164988235294 2.90957102362205  8.02183529411764 2.87481952755905  C 5.72707137254901 2.84014866141732  3.90656000000001 4.42299464566929  3.86459607843136 6.21378519685038  C 3.82142745098042 8.05666267716535  5.79252705882351 9.51791874015748  8.02183529411764 9.55162204724408  C 10.3161976470588 9.58629291338582  12.1371105882353 8.00449511811024  12.1790745098039 6.21378519685038  Z " stroke-width="2" stroke="#797979" fill="none" transform="matrix(1 0 0 1 41 12 )" mask="url(#clip37)" />
  </g>
</svg>