<?xml version="1.0" encoding="utf-8"?>
<svg version="1.1" xmlns:xlink="http://www.w3.org/1999/xlink" width="7px" height="7px" xmlns="http://www.w3.org/2000/svg">
  <g transform="matrix(1 0 0 1 -64 -96 )">
    <path d="M 1.86597808510638 4.15167149127907  L 1.44606230851064 4.82792386918605  L 0.606388162234042 4.82792386918605  L 0.67634789361702 3.77587059011628  L 0.116591348404255 3.55042445930233  L 0.116591348404255 6.85685305232558  L 0.606466856382978 6.63140692151163  L 0.606466856382978 5.5042622616279  L 1.86597808510638 5.42917090116279  L 2.49569436170213 4.60256375290697  L 1.86597808510638 4.15167149127907  Z M 5.01479551329787 5.57935364244186  L 0.606388162234042 2.42319380523256  L 0.256510811170212 2.79890867151163  L 4.804837625 5.95498249418605  L 5.29463443882979 6.03015988953488  L 5.78450992819149 5.12846138081395  L 5.01479551329787 5.57935364244186  Z M 4.94475708776596 5.12846138081395  L 5.36459417021277 5.12846138081395  L 6.90402301861702 3.7757845755814  L 1.65602019680851 0.0184637209302328  L 0.956265513297874 0.0184637209302328  L 0.116591348404257 1.37114052616279  L 0.116591348404257 1.8220327877907  L 4.94475708776596 5.12846138081395  Z " fill-rule="nonzero" fill="#555555" stroke="none" fill-opacity="0.298039215686275" transform="matrix(1 0 0 1 64 96 )" />
  </g>
</svg>