<?xml version="1.0" encoding="utf-8"?>
<svg version="1.1" xmlns:xlink="http://www.w3.org/1999/xlink" width="14px" height="18px" xmlns="http://www.w3.org/2000/svg">
  <g transform="matrix(1 0 0 1 -60 -132 )">
    <path d="M 13.9940687710526 7.05343315909091  C 13.9940687710526 3.17041824793388  10.8826015789474 0.0225673698347115  7.04448428157895 0.0225673512396694  C 3.20636698421053 0.0225673512396694  0.0948997921052631 3.17041822933884  0.0948997921052631 7.05343315909091  C 0.0948997921052631 10.9366052727273  7.04448428157895 17.8848604338843  7.04448428157895 17.8848604338843  C 7.04448428157895 17.8848604338843  13.9940687710526 10.9366052727273  13.9940687710526 7.05343315909091  Z M 11.5412742421053 7.03779136363636  C 11.5412742421053 9.54480055165289  9.52803607368421 11.5770539566116  7.04448428157895 11.5770539566116  C 4.56093248947368 11.5770539566116  2.54769432105263 9.54480055165289  2.54769432105263 7.03779136363636  C 2.54769432105263 4.53078217561983  4.56093248947368 2.49852877066116  7.04448428157895 2.49852877066116  C 9.52803607368421 2.49852877066116  11.5412742421053 4.53078217561983  11.5412742421053 7.03779136363636  Z " fill-rule="nonzero" fill="#10acae" stroke="none" transform="matrix(1 0 0 1 60 132 )" />
  </g>
</svg>