<?xml version="1.0" encoding="utf-8"?>
<svg version="1.1" xmlns:xlink="http://www.w3.org/1999/xlink" width="6px" height="7px" xmlns="http://www.w3.org/2000/svg">
  <g transform="matrix(1 0 0 1 -64 -136 )">
    <path d="M 5.94381938414634 3.97166932712766  C 5.75367998780488 1.02281553723404  3.28140391463415 0.971506486702127  3.28140391463415 0.971506486702128  L 3.24336056707317 0.0868188776595748  L 2.36859563414634 0.0484157792553196  L 2.36859563414634 1.00998827925532  C 2.36859563414634 1.00998827925532  0.213347432926829 1.18949125265957  0.0865362804878053 3.97166932712766  L 5.94381938414634 3.97166932712766  Z M 5.06905445121951 4.47169645478723  L 3.01517782317073 4.47169645478723  L 0.961301213414634 4.47169645478723  C 0.961301213414634 4.47169645478723  0.83449006097561 6.741020125  3.01517782317073 6.89486858244681  C 5.17042602439024 6.72819286702128  5.06905443292683 4.47169645478723  5.06905445121951 4.47169645478723  Z M 3.62371668292683 5.6063976462766  C 3.62371668292683 5.89316171276596  3.34272173780488 6.12562633244681  2.99615615853659 6.12562633244681  C 2.64959057926829 6.12562633244681  2.36859563414634 5.89316171276596  2.36859563414634 5.6063976462766  C 2.36859563414634 5.3195548856383  2.64959057926829 5.08709026595745  2.99615615853659 5.08709026595745  C 3.34272173780488 5.08709026595745  3.62371668292683 5.3195548856383  3.62371668292683 5.6063976462766  Z " fill-rule="nonzero" fill="#10acae" stroke="none" transform="matrix(1 0 0 1 64 136 )" />
  </g>
</svg>