<?xml version="1.0" encoding="utf-8"?>
<svg version="1.1" xmlns:xlink="http://www.w3.org/1999/xlink" width="13px" height="11px" xmlns="http://www.w3.org/2000/svg">
  <g transform="matrix(1 0 0 1 -66 -172 )">
    <path d="M 6.5 10.24375  C 3.91979468438426 10.24375  1.828125 8.11990078200983  1.828125 5.5  C 1.828125 2.88009921799017  3.91979468438426 0.756249999999999  6.5 0.756249999999999  C 9.08020531561574 0.756249999999999  11.171875 2.88009921799017  11.171875 5.5  C 11.171875 8.11990078200983  9.08020531561574 10.24375  6.5 10.24375  Z M 6.5 9.55625  C 8.70626251625114 9.55625  10.4947916666667 7.74020501650116  10.4947916666667 5.5  C 10.4947916666667 3.25979498349884  8.70626251625114 1.44375  6.5 1.44375  C 4.29373748374886 1.44375  2.50520833333333 3.25979498349884  2.50520833333333 5.5  C 2.50520833333333 7.74020501650116  4.29373748374886 9.55625  6.5 9.55625  Z " fill-rule="nonzero" fill="#d9001b" stroke="none" transform="matrix(1 0 0 1 66 172 )" />
  </g>
</svg>