<?xml version="1.0" encoding="utf-8"?>
<svg version="1.1" xmlns:xlink="http://www.w3.org/1999/xlink" width="13px" height="13px" xmlns="http://www.w3.org/2000/svg">
  <g transform="matrix(1 0 0 1 -164 -14 )">
    <path d="M 4.42730287999998 7.11177896  L 3.91697695999999 8.51174948  L 4.49914556000001 9.09553268  L 5.90129228000002 8.58412568  L 4.42730287999998 7.11177896  Z M 12.6750728 6.50536328  C 12.6750728 3.104777  9.91813628000001 0.3481634  6.51790100000002 0.3481634  C 3.11701987999999 0.3481634  0.360743240000013 3.104777  0.360743240000013 6.50536328  C 0.360743240000013 9.90559856  3.11703391999997 12.66252104  6.51790100000002 12.66252104  C 9.91813628000001 12.66252104  12.6750728 9.90559856  12.6750728 6.50536328  Z M 8.75605952000001 6.34655684  L 6.20990551999998 8.89271084  L 6.20662016000002 8.88887792  C 6.18960368 8.90314256  6.17095855999998 8.91629804  6.14902808000001 8.92397792  L 3.31293404000001 9.95888036  C 3.23891515999999 9.98519132  3.15560180000001 9.96764132  3.10080367999998 9.91062488  C 3.04492448000001 9.85581272  3.02679884000002 9.77248532  3.05420491999999 9.69907016  L 4.08799820000002 6.86401508  C 4.09570616000002 6.84266024  4.10775248000001 6.82454864  4.12253660000003 6.80699864  L 4.12031828000002 6.80427488  L 6.66706196 4.25813492  C 6.94334107999998 4.5338384  7.17078907999997 4.76075288  7.17078907999997 4.76075288  L 5.17553659999999 6.75274808  C 5.14320248 6.78400112  5.12893784 6.8250962  5.12893784 6.86675288  C 5.12893784 6.907862  5.14320248 6.9489992  5.17553659999999 6.98078576  C 5.20680368000002 7.01146316  5.24791280000002 7.0284656  5.29065056000001 7.0284656  C 5.33338832 7.0284656  5.37397795999998 7.01146316  5.40518888000001 6.98078576  L 7.39938836000003 4.98989972  L 8.02589527999999 5.61535364  L 6.04051292000001 7.5985598  C 5.97802088000003 7.66157132  5.97802088000003 7.76407736  6.04051292000001 7.82710292  C 6.07120436000001 7.85727488  6.11288911999998 7.87424924  6.15564092000002 7.87424924  C 6.19895431999998 7.87424924  6.23948780000001 7.85727488  6.27019328 7.82765048  C 6.27019328 7.82710292  8.25504211999997 5.84445836  8.25504211999997 5.84445836  C 8.25504211999997 5.84445836  8.54666696000002 6.1360832  8.75605952000001 6.34655684  Z M 9.78055832000001 4.28801204  C 10.06558436 4.57277132  10.06505084 5.0375936  9.78054428000002 5.3237288  L 8.98572584000002 6.11799968  C 8.57737244000001 5.7101798  7.62853520000001 4.76075288  6.89675635999998 4.030364  L 7.69264184 3.23501204  C 7.97768192 2.95023872  8.44361336000003 2.94969116  8.72811992000003 3.23501204  L 9.78055832000001 4.28801204  Z " fill-rule="nonzero" fill="#199ed8" stroke="none" transform="matrix(1 0 0 1 164 14 )" />
  </g>
</svg>