<?xml version="1.0" encoding="utf-8"?>
<svg version="1.1" xmlns:xlink="http://www.w3.org/1999/xlink" width="13px" height="13px" xmlns="http://www.w3.org/2000/svg">
  <g transform="matrix(1 0 0 1 -182 -14 )">
    <path d="M 12.9877033190244 6.50024140682928  C 12.9877033190244 2.91948110048781  10.0745636692683 0.00634146341462838  6.49389994341466 0.00634146341462838  C 2.91313963707317 0.00634146341462838  0 2.91948110048781  0 6.50024140682928  C 0 10.080712022439  2.91313963707317 12.9936585365854  6.49389994341466 12.9936585365854  C 10.0745636819512 12.9936585365854  12.9877033190244 10.0807120097561  12.9877033190244 6.50024140682928  Z M 9.04619226439019 9.1511221892683  C 9.04609570926826 9.43153444682929  8.81879182536588 9.65980393268294  8.53944172487806 9.65980393268294  L 4.47626419024395 9.65980394536587  C 4.19691410243904 9.65980394536587  3.96970677365852 9.43163101463412  3.96970677365852 9.15112220195124  L 3.96970677365852 5.10600151512192  C 3.96970677365852 5.00828208780488  4.04917623024392 4.92871607609755  4.14699221268292 4.92871607609755  C 4.24471164000001 4.92871607609755  4.32418108390249 5.00828208780488  4.32418108390249 5.10600151512192  L 4.32418108390249 9.15112220195124  C 4.32418108390249 9.23619217268291  4.39244949951222 9.30532963512195  4.47626417756097 9.30532963512195  L 8.53944171219514 9.30532963512195  C 8.62325639024389 9.30532963512195  8.69152480585363 9.23619217268291  8.69152480585363 9.15112220195124  L 8.69152481853661 5.10600151512192  C 8.69152481853661 5.00828208780488  8.77099427512193 4.92871607609755  8.86881025756094 4.92871607609755  C 8.96662624000002 4.92871607609755  9.04609569658541 5.00828208780488  9.04609569658541 5.10600151512192  L 9.04609569658541 9.1511221892683  Z M 5.65565653170734 8.80765579707317  C 5.55803367219509 8.80765579707317  5.47846766048777 8.72818634048785  5.47846766048777 8.63046692585368  L 5.47846766048777 5.10600151512192  C 5.47846766048777 5.00828208780488  5.55793711707317 4.92871607609755  5.65565653170734 4.92871607609755  C 5.75347251414634 4.92871607609755  5.83294197073174 5.00828208780488  5.83294197073174 5.10600151512192  L 5.83294197073174 8.63037035804879  C 5.83294197073174 8.72818634048779  5.75347251414634 8.80765579707317  5.65565653170734 8.80765579707317  Z M 7.3601459385366 8.80765579707317  C 7.26232995609752 8.80765579707317  7.18286049951219 8.72818634048785  7.18286049951219 8.63046692585368  L 7.18286049951219 5.10600151512192  C 7.18286049951219 5.00828208780488  7.26232995609752 4.92871607609755  7.3601459385366 4.92871607609755  C 7.45786536585368 4.92871607609755  7.53733480975609 5.00828208780488  7.53733480975609 5.10600151512192  L 7.53733480975609 8.63037035804879  C 7.53733480975609 8.72818634048779  7.45786535317077 8.80765579707317  7.3601459385366 8.80765579707317  Z M 9.84233520780488 4.23000285658534  C 9.8424317629268 4.32772229658532  9.76286575121948 4.40728830829265  9.66514632390247 4.40728830829265  L 7.80702884 4.40728830829265  C 7.75971410341462 4.40728830829265  7.71519961756093 4.38884521463416  7.68169306243898 4.3553386595122  L 7.02112133560972 3.69476693268294  L 5.98618380195122 3.69476693268294  L 5.19757260195125 4.36499472975609  C 5.16590069560974 4.3921282917073  5.12505551999996 4.40728832097559  5.0828584965854 4.40728832097559  L 3.32265355024387 4.40728830829265  C 3.22483756780486 4.40728830829265  3.14536811121953 4.32772229658532  3.14536811121953 4.23000286926828  C 3.14536811121953 4.13228344195118  3.22483756780486 4.0527174302439  3.32265355024387 4.0527174302439  L 5.01777657756101 4.0527174302439  L 5.80629122243898 3.38248963317075  C 5.83844592975609 3.35525951609753  5.87919455024394 3.34029260975613  5.92110189560974 3.34029260975613  L 7.09450747707312 3.34029260975613  C 7.14182221365856 3.34029260975613  7.18633669951219 3.35873570341463  7.21984325463414 3.39224225853659  L 7.88041498146339 4.05281398536585  L 9.66504976878047 4.05281398536585  C 9.76286575121948 4.05281398536585  9.84233520780488 4.13228344195118  9.84233520780488 4.23000285658534  Z " fill-rule="nonzero" fill="#199ed8" stroke="none" transform="matrix(1 0 0 1 182 14 )" />
  </g>
</svg>