<?xml version="1.0" encoding="utf-8"?>
<svg version="1.1" xmlns:xlink="http://www.w3.org/1999/xlink" width="13px" height="13px" xmlns="http://www.w3.org/2000/svg">
  <g transform="matrix(1 0 0 1 -146 -14 )">
    <path d="M 6.5 0  C 10.0898508739002 0  13 2.91014912609984  13 6.5  C 13 10.0898508739002  10.0898508739002 13  6.5 13  C 2.91014912609984 13  0 10.0898508739002  0 6.5  C 0 2.91014912609984  2.91014912609984 0  6.5 0  Z M 9.888125 5.9921875  L 7.0078125 5.9921875  L 7.0078125 3.111875  C 7.0078125 2.83141790047655  6.78045709952345 2.6040625  6.5 2.6040625  C 6.21954290047655 2.6040625  5.9921875 2.83141790047655  5.9921875 3.111875  L 5.9921875 5.9921875  L 3.111875 5.9921875  C 2.83141790047655 5.9921875  2.6040625 6.21954290047655  2.6040625 6.5  C 2.6040625 6.78045709952345  2.83141790047655 7.0078125  3.111875 7.0078125  L 5.9921875 7.0078125  L 5.9921875 9.888125  C 5.9921875 10.1685820995234  6.21954290047655 10.3959375  6.5 10.3959375  C 6.78045709952345 10.3959375  7.0078125 10.1685820995234  7.0078125 9.888125  L 7.0078125 7.0078125  L 9.888125 7.0078125  C 10.1685820995234 7.0078125  10.3959375 6.78045709952345  10.3959375 6.5  C 10.3959375 6.21954290047655  10.1685820995234 5.9921875  9.888125 5.9921875  Z " fill-rule="nonzero" fill="#199ed8" stroke="none" transform="matrix(1 0 0 1 146 14 )" />
  </g>
</svg>