<?xml version="1.0" encoding="utf-8"?>
<svg version="1.1" xmlns:xlink="http://www.w3.org/1999/xlink" width="18px" height="16px" xmlns="http://www.w3.org/2000/svg">
  <g transform="matrix(1 0 0 1 -38 -12 )">
    <path d="M 2.31338169642857 0.121212121212121  L 5.64002678571429 0.121212121212121  C 6.20627491840208 0.121188466332288  6.75112203628355 0.338795052917874  7.16305580357143 0.72949494949495  L 7.18352678571429 0.749171717171717  L 8.14062053571429 1.68054545454545  C 8.32504552741341 1.85999677645119  8.57010007777179 1.96272513485863  8.82666964285714 1.96814141414141  L 8.84804464285714 1.96834343434343  L 12.9966830357143 1.96834343434343  C 14.0125178571429 1.96834343434343  14.8986361607143 2.66167676767677  15.14784375 3.65147474747475  L 15.3470089285714 4.44242424242424  L 16.3217209821429 4.44242424242424  C 17.2153325892857 4.44242424242424  17.9397321428571 5.17052525252525  17.9397321428571 6.06868686868687  C 17.9397300386686 6.23724376579346  17.9136572475978 6.40477476958127  17.8624486607143 6.56527272727273  L 15.238546875 14.7895151515152  C 15.0237723214286 15.4626262626263  14.4010647321429 15.9191919191919  13.6977991071429 16  L 1.77175446428571 16  C 0.878142857142857 15.9191919191919  0.153743303571428 15.1910909090909  0.153743303571428 14.2929292929293  C 0.153743303571428 14.2746666666667  0.154044642857143 14.2564444444444  0.154667410714286 14.2382222222222  L 0.140625 14.2382222222222  L 0.140625 2.35151515151515  C 0.140625 1.12820202020202  1.07224553571429 0.141131313131313  2.27679910714286 0.121515151515152  L 2.31338169642857 0.121212121212121  Z M 5.661421875 1.32951515151515  L 5.64002678571429 1.32929292929293  L 2.31338169642857 1.32929292929293  C 1.77151339285714 1.32929292929293  1.35106473214286 1.76359595959596  1.34270758928571 2.33418181818182  L 1.34258705357143 2.35151515151515  L 1.34256696428571 10.6674545454545  L 3.17229910714286 5.52139393939394  C 3.40236160714286 4.87432323232323  4.01225223214286 4.44242424242424  4.69593080357143 4.44242424242424  L 14.1071584821429 4.44242424242424  L 13.9826450892857 3.94787878787879  C 13.86984375 3.49987878787879  13.4723772321429 3.18440404040404  13.0141205357143 3.17658585858586  L 12.9966830357143 3.17644444444444  L 8.84804464285714 3.17644444444444  C 8.28179651016935 3.17646809932428  7.73694939228787 2.95886151273869  7.325015625 2.56816161616162  L 7.30454464285714 2.54848484848485  L 6.34747098214285 1.61711111111111  C 6.16304599044373 1.43765978920538  5.91799144008535 1.33493143079794  5.661421875 1.32951515151515  Z " fill-rule="nonzero" fill="#616367" stroke="none" transform="matrix(1 0 0 1 38 12 )" />
  </g>
</svg>