<?xml version="1.0" encoding="utf-8"?>
<svg version="1.1" xmlns:xlink="http://www.w3.org/1999/xlink" width="45px" height="27px" xmlns="http://www.w3.org/2000/svg">
  <g transform="matrix(1 0 0 1 -10 -12 )">
    <path d="M 10.5 29.9574490307487  C 10.5 29.9574490307487  10.5 15  10.5 15  C 10.5 13.619288125423  11.619288125423 12.5  13 12.5  C 13 12.5  52 12.5  52 12.5  C 53.380711874577 12.5  54.5 13.619288125423  54.5 15  C 54.5 15  54.5 29.9574490307487  54.5 29.9574490307487  C 54.5 31.3381609053256  53.380711874577 32.4574490307487  52 32.4574490307487  C 52 32.4574490307487  39.8670343768483 32.4574490307487  39.8670343768483 32.4574490307487  C 39.8670343768483 32.4574490307487  33.0790915164269 37.9273884309238  33.0790915164269 37.9273884309238  C 33.0790915164269 37.9273884309238  26.7290804534521 32.4574490307487  26.7290804534521 32.4574490307487  C 26.7290804534521 32.4574490307487  13 32.4574490307487  13 32.4574490307487  C 11.619288125423 32.4574490307487  10.5 31.3381609053256  10.5 29.9574490307487  Z " fill-rule="nonzero" fill="#000000" stroke="none" fill-opacity="0.8" />
    <path d="M 10 29.9574490307487  C 10 29.9574490307487  10 15  10 15  C 10 13.3431457505076  11.3431457505076 12  13 12  C 13 12  52 12  52 12  C 53.6568542494924 12  55 13.3431457505076  55 15  C 55 15  55 29.9574490307487  55 29.9574490307487  C 55 31.614303280241  53.6568542494924 32.9574490307487  52 32.9574490307487  C 52 32.9574490307487  40.0434210526316 32.9574490307487  40.0434210526316 32.9574490307487  C 40.0434210526316 32.9574490307487  33.0684210526316 38.578125  33.0684210526316 38.578125  C 33.0684210526316 38.578125  26.5434210526316 32.9574490307487  26.5434210526316 32.9574490307487  C 26.5434210526316 32.9574490307487  13 32.9574490307487  13 32.9574490307487  C 11.3431457505076 32.9574490307487  10 31.614303280241  10 29.9574490307487  Z M 11 29.9574490307487  C 11 31.0620185304102  11.8954305003384 31.9574490307487  13 31.9574490307487  C 13 31.9574490307487  26.9147398542727 31.9574490307487  26.9147398542727 31.9574490307487  C 26.9147398542727 31.9574490307487  33.0897619802223 37.2766518618475  33.0897619802223 37.2766518618475  C 33.0897619802223 37.2766518618475  39.690647701065 31.9574490307487  39.690647701065 31.9574490307487  C 39.690647701065 31.9574490307487  52 31.9574490307487  52 31.9574490307487  C 53.1045694996616 31.9574490307487  54 31.0620185304102  54 29.9574490307487  C 54 29.9574490307487  54 15  54 15  C 54 13.8954305003384  53.1045694996616 13  52 13  C 52 13  13 13  13 13  C 11.8954305003384 13  11 13.8954305003384  11 15  C 11 15  11 29.9574490307487  11 29.9574490307487  Z " fill-rule="nonzero" fill="#333333" stroke="none" />
  </g>
</svg>