<?xml version="1.0" encoding="utf-8"?>
<svg version="1.1" xmlns:xlink="http://www.w3.org/1999/xlink" width="21px" height="16px" xmlns="http://www.w3.org/2000/svg">
  <g transform="matrix(1 0 0 1 -23 -18 )">
    <path d="M 24 27.4192290552585  C 24 27.4192290552585  24 21  24 21  C 24 19.8954305003384  24.8954305003384 19  26 19  C 26 19  41 19  41 19  C 42.1045694996616 19  43 19.8954305003384  43 21  C 43 21  43 27.4192290552585  43 27.4192290552585  C 43 28.5237985549201  42.1045694996616 29.4192290552585  41 29.4192290552585  C 41 29.4192290552585  38.5723798269066 29.4192290552585  38.5723798269066 29.4192290552585  C 38.5723798269066 29.4192290552585  33.0427433711024 38.0773952958263  33.0427433711024 38.0773952958263  C 33.0427433711024 38.0773952958263  29.2757297069258 29.4192290552585  29.2757297069258 29.4192290552585  C 29.2757297069258 29.4192290552585  26 29.4192290552585  26 29.4192290552585  C 24.8954305003384 29.4192290552585  24 28.5237985549201  24 27.4192290552585  Z " fill-rule="nonzero" fill="#000000" stroke="none" fill-opacity="0.8" />
  </g>
</svg>