<?xml version="1.0" encoding="utf-8"?>
<svg version="1.1" xmlns:xlink="http://www.w3.org/1999/xlink" width="38px" height="20px" xmlns="http://www.w3.org/2000/svg">
  <defs>
    <mask fill="white" id="clip61">
      <path d="M 0.6551723984375 5.02155171264648  L 0.6551723984375 0.0431034509277345  L 7.20689656835938 0.0431034509277345  L 7.20689656835938 5.02155171264648  L 0.6551723984375 5.02155171264648  Z M 0.6551723984375 10  L 0.6551723984375 5.02155171264648  L 7.20689656835938 5.02155171264648  L 7.20689656835938 10  L 0.6551723984375 10  Z M 0.6551723984375 14.9784482873535  L 0.6551723984375 10  L 7.20689656835938 10  L 7.20689656835938 14.9784482873535  L 0.6551723984375 14.9784482873535  Z M 0.6551723984375 19.9568965490723  L 0.6551723984375 14.9784482873535  L 7.20689656835938 14.9784482873535  L 7.20689656835938 19.9568965490723  L 0.6551723984375 19.9568965490723  Z M 30.7931034316406 5.02155171264648  L 30.7931034316406 0.0431034509277345  L 37.3448276015625 0.0431034509277345  L 37.3448276015625 5.02155171264648  L 30.7931034316406 5.02155171264648  Z M 30.7931034316406 10  L 30.7931034316406 5.02155171264648  L 37.3448276015625 5.02155171264648  L 37.3448276015625 10  L 30.7931034316406 10  Z M 30.7931034316406 14.9784482873535  L 30.7931034316406 10  L 37.3448276015625 10  L 37.3448276015625 14.9784482873535  L 30.7931034316406 14.9784482873535  Z M 30.7931034316406 19.9568965490723  L 30.7931034316406 14.9784482873535  L 37.3448276015625 14.9784482873535  L 37.3448276015625 19.9568965490723  L 30.7931034316406 19.9568965490723  Z " fill-rule="evenodd" />
    </mask>
  </defs>
  <g transform="matrix(1 0 0 1 -113 -115 )">
    <path d="M 0.6551723984375 5.02155171264648  L 0.6551723984375 0.0431034509277345  L 7.20689656835938 0.0431034509277345  L 7.20689656835938 5.02155171264648  L 0.6551723984375 5.02155171264648  Z M 0.6551723984375 10  L 0.6551723984375 5.02155171264648  L 7.20689656835938 5.02155171264648  L 7.20689656835938 10  L 0.6551723984375 10  Z M 0.6551723984375 14.9784482873535  L 0.6551723984375 10  L 7.20689656835938 10  L 7.20689656835938 14.9784482873535  L 0.6551723984375 14.9784482873535  Z M 0.6551723984375 19.9568965490723  L 0.6551723984375 14.9784482873535  L 7.20689656835938 14.9784482873535  L 7.20689656835938 19.9568965490723  L 0.6551723984375 19.9568965490723  Z M 30.7931034316406 5.02155171264648  L 30.7931034316406 0.0431034509277345  L 37.3448276015625 0.0431034509277345  L 37.3448276015625 5.02155171264648  L 30.7931034316406 5.02155171264648  Z M 30.7931034316406 10  L 30.7931034316406 5.02155171264648  L 37.3448276015625 5.02155171264648  L 37.3448276015625 10  L 30.7931034316406 10  Z M 30.7931034316406 14.9784482873535  L 30.7931034316406 10  L 37.3448276015625 10  L 37.3448276015625 14.9784482873535  L 30.7931034316406 14.9784482873535  Z M 30.7931034316406 19.9568965490723  L 30.7931034316406 14.9784482873535  L 37.3448276015625 14.9784482873535  L 37.3448276015625 19.9568965490723  L 30.7931034316406 19.9568965490723  Z " fill-rule="nonzero" fill="#f2f2f2" stroke="none" fill-opacity="0.498039215686275" transform="matrix(1 0 0 1 113 115 )" />
    <path d="M 0.6551723984375 5.02155171264648  L 0.6551723984375 0.0431034509277345  L 7.20689656835938 0.0431034509277345  L 7.20689656835938 5.02155171264648  L 0.6551723984375 5.02155171264648  Z " stroke-width="2" stroke="#7f7f7f" fill="none" transform="matrix(1 0 0 1 113 115 )" mask="url(#clip61)" />
    <path d="M 0.6551723984375 10  L 0.6551723984375 5.02155171264648  L 7.20689656835938 5.02155171264648  L 7.20689656835938 10  L 0.6551723984375 10  Z " stroke-width="2" stroke="#7f7f7f" fill="none" transform="matrix(1 0 0 1 113 115 )" mask="url(#clip61)" />
    <path d="M 0.6551723984375 14.9784482873535  L 0.6551723984375 10  L 7.20689656835938 10  L 7.20689656835938 14.9784482873535  L 0.6551723984375 14.9784482873535  Z " stroke-width="2" stroke="#7f7f7f" fill="none" transform="matrix(1 0 0 1 113 115 )" mask="url(#clip61)" />
    <path d="M 0.6551723984375 19.9568965490723  L 0.6551723984375 14.9784482873535  L 7.20689656835938 14.9784482873535  L 7.20689656835938 19.9568965490723  L 0.6551723984375 19.9568965490723  Z " stroke-width="2" stroke="#7f7f7f" fill="none" transform="matrix(1 0 0 1 113 115 )" mask="url(#clip61)" />
    <path d="M 30.7931034316406 5.02155171264648  L 30.7931034316406 0.0431034509277345  L 37.3448276015625 0.0431034509277345  L 37.3448276015625 5.02155171264648  L 30.7931034316406 5.02155171264648  Z " stroke-width="2" stroke="#7f7f7f" fill="none" transform="matrix(1 0 0 1 113 115 )" mask="url(#clip61)" />
    <path d="M 30.7931034316406 10  L 30.7931034316406 5.02155171264648  L 37.3448276015625 5.02155171264648  L 37.3448276015625 10  L 30.7931034316406 10  Z " stroke-width="2" stroke="#7f7f7f" fill="none" transform="matrix(1 0 0 1 113 115 )" mask="url(#clip61)" />
    <path d="M 30.7931034316406 14.9784482873535  L 30.7931034316406 10  L 37.3448276015625 10  L 37.3448276015625 14.9784482873535  L 30.7931034316406 14.9784482873535  Z " stroke-width="2" stroke="#7f7f7f" fill="none" transform="matrix(1 0 0 1 113 115 )" mask="url(#clip61)" />
    <path d="M 30.7931034316406 19.9568965490723  L 30.7931034316406 14.9784482873535  L 37.3448276015625 14.9784482873535  L 37.3448276015625 19.9568965490723  L 30.7931034316406 19.9568965490723  Z " stroke-width="2" stroke="#7f7f7f" fill="none" transform="matrix(1 0 0 1 113 115 )" mask="url(#clip61)" />
  </g>
</svg>