<?xml version="1.0" encoding="utf-8"?>
<svg version="1.1" xmlns:xlink="http://www.w3.org/1999/xlink" width="50px" height="50px" xmlns="http://www.w3.org/2000/svg">
  <g transform="matrix(1 0 0 1 -70 -21 )">
    <path d="M 50 7.51878965707965  C 49.9903220132743 3.60884402654867  46.8206466261062 0.439168639380531  42.9107009955752 1  L 7.51878965707965 1  C 3.60884402654867 0.439168639380531  0.439168639380531 3.60884402654867  1 7.51878965707965  L 1 42.9107009955752  C 0.439168639380531 46.8206466261062  3.60884402654867 49.9903220132743  7.51878965707965 50  L 42.9107009955752 50  C 46.8206466261062 49.9903220132743  49.9903220132743 46.8206466261062  50 42.9107009955752  L 50 7.51878965707965  Z M 46 7.52218633849558  L 46 42.9202915376106  C 46.4538090395177 42.9212266893583  46.4538094110465 42.9221618413685  46.4538094110465 42.9230969934114  C 46.4538094110465 44.8730595120854  44.873052460694 46.4538164624379  42.92308994202 46.4538164624379  C 42.9205587239011 46.4538164624379  42.9180275065124 46.4538137404438  42.9154962942478 46  L 7.52698158185841 46  C 6.58051460176991 46.4538082964602  5.68679557522124 46.0901667588496  5.01745547566372 45.4208265486726  C 4.3481153761062 44.7514863384956  3.97568241150442 43.8667585176991  4 42.9202915376106  L 4 7.52218633849558  C 3.97920774363445 5.56309635346944  5.56788862180876 3.97656063712782  7.52698158185841 4  L 42.9154962942478 4  C 44.8702341245285 3.97766561021109  46.4538112800298 5.56285021467816  46.4538112800298 7.51758905099556  C 46.4538112800298 7.51912148064478  46.4538102855064 7.52065391013721  46 7.52218633849558  Z " fill-rule="nonzero" fill="#aaaaaa" stroke="none" transform="matrix(1 0 0 1 70 21 )" />
  </g>
</svg>