<?xml version="1.0" encoding="utf-8"?>
<svg version="1.1" xmlns:xlink="http://www.w3.org/1999/xlink" width="33px" height="25px" xmlns="http://www.w3.org/2000/svg">
  <g transform="matrix(1 0 0 1 -78 -34 )">
    <path d="M 31.263067524671 3.44027753232757  L 17.368379694079 3.44027753232757  C 16.4100450329523 3.44027753232757  15.6331612919408 4.21147873813837  15.6331612919408 5.16280363685345  C 15.6331612919408 6.11412853556851  16.4100450329523 6.88532974137931  17.368379694079 6.88532974137931  C 17.368379694079 6.88532974137931  17.368379694079 6.88532974137931  17.368379694079 7  L 31.263067524671 7  C 31.263067524671 6.88532974137931  31.263067524671 6.88532974137931  31.263067524671 6.88532974137931  C 32.2214021857977 6.88532974137931  32.9982859268092 6.11412853556851  32.9982859268092 5.16280363685345  C 32.9982859268092 4.21147873813837  32.2214021857977 3.44027753232757  31.263067524671 3.44027753232757  Z M 22.263067524671 17.2399499461207  L 17.368379694079 17.2399499461207  C 16.4100450329523 17.2399499461207  15.6331612919408 18.0111511519315  15.6331612919408 18.9624760506466  C 15.6331612919408 19.9138009493616  16.4100450329523 20.6850021551724  17.368379694079 20.6850021551724  L 22.263067524671 20.6850021551724  C 23.2214021857977 20.6850021551724  23.9982859268092 19.9138009493616  23.9982859268092 18.9624760506466  C 23.9982859268092 18.0111511519315  23.2214021857977 17.2399499461207  22.263067524671 17.2399499461207  Z M 13.025628 18.9646170258621  C 13.0256279457237 15.6326481681035  10.3047663305921 12.9309097521552  6.94746188486842 12.9309098060345  C 3.59015738486842 12.9309098060345  0.869295715460524 15.6326482219828  0.869295715460524 18.9646170258621  C 0.869295715460524 22.2965858297414  3.59094167763158 24.998324299569  6.94746188486842 24.998324299569  C 10.3039820921053 24.998324299569  13.0256280542763 22.2965858836207  13.025628 18.9646170258621  Z M 8.79189120888158 20.7963337823276  C 8.30291932455718 21.2812628144019  7.64001297497144 21.5536539466774  6.9488343464097 21.5536539466774  C 5.50862518636158 21.5536539466774  4.34110498127811 20.3946735968035  4.34110498127811 18.9649988820222  C 4.34110498127811 17.5353241672409  5.50862518636158 16.376343817367  6.9488343464097 16.376343817367  C 8.3890435064578 16.376343817367  9.55656371154127 17.5353241672409  9.55656371154127 18.9649988820222  C 9.55831254255303 19.6526657281692  9.28295474652062 20.312054850657  8.79189120888158 20.7965284482759  Z M 12.1495688704071 0.00993849615505837  C 11.6934757300198 0.00993849615505837  11.2557205578766 0.188195955698632  10.9310135180921 0.506144127155181  L 5.21047882401315 6.18464116379312  L 2.96391019736842 3.9543105064655  C 2.63848816266652 3.63126877208265  2.19712116302038 3.44978581482903  1.73690490296053 3.44978581482903  C 0.77855416641124 3.44978581482903  0.00165739369487028 4.22099995702396  0.00165739369487028 5.17234081357759  C 0.00165739369487028 5.62919079730025  0.184477583254704 6.06732939564196  0.50989960855263 6.39037112068965  L 3.98347352960526 9.83873216594827  C 4.30889177540529 10.1617809870129  4.7502601950824 10.3432688374663  5.21047882401317 10.3432688374663  C 5.67069745294393 10.3432688374663  6.11206587262103 10.1617809870129  6.43748411842105 9.83873216594827  L 13.384828006579 2.9422047413793  C 13.7051786088242 2.61986425751397  13.8847872454071 2.18526926405343  13.8847872454071 1.73246457374128  C 13.8847872454071 0.781139689904563  13.1079035165458 0.00993849615505837  12.1495688704071 0.00993849615505837  Z " fill-rule="nonzero" fill="#aaaaaa" stroke="none" transform="matrix(1 0 0 1 78 34 )" />
  </g>
</svg>