<?xml version="1.0" encoding="utf-8"?>
<svg version="1.1" xmlns:xlink="http://www.w3.org/1999/xlink" width="15px" height="15px" xmlns="http://www.w3.org/2000/svg">
  <g>
    <path d="M 14.9564732142857 7.928125  C 14.9581473214286 4.090625  11.6149553571429 0.9484375  7.48158482142857 0.9484375  C 3.36997767857143 0.9484375  0.0033482142857141 4.0703125  0.0033482142857141 7.928125  C 0.00334821428571433 11.765625  3.34654017857143 14.90625  7.47991071428571 14.90625  C 11.61328125 14.90625  14.9564732142857 11.7859375  14.9564732142857 7.928125  Z M 7.06808035714286 6.0828125  L 7.06808035714286 9.9171875  C 7.06808035714286 10.0546875  6.94754464285714 10.1671875  6.80022321428571 10.1671875  L 5.21149553571429 10.1671875  C 5.06417410714286 10.1671875  4.94363839285714 10.0546875  4.94363839285714 9.9171875  L 4.94363839285714 6.0828125  C 4.94363839285714 5.9453125  5.06417410714286 5.8328125  5.21149553571429 5.8328125  L 6.80022321428571 5.8328125  C 6.94754464285714 5.8328125  7.06808035714286 5.9453125  7.06808035714286 6.0828125  Z M 10.0563616071429 6.0828125  L 10.0563616071429 9.9171875  C 10.0563616071429 10.0546875  9.93582589285714 10.1671875  9.78850446428572 10.1671875  L 8.19977678571429 10.1671875  C 8.05245535714286 10.1671875  7.93191964285714 10.0546875  7.93191964285714 9.9171875  L 7.93191964285714 6.0828125  C 7.93191964285714 5.9453125  8.05245535714286 5.8328125  8.19977678571429 5.8328125  L 9.78850446428572 5.8328125  C 9.93582589285714 5.8328125  10.0563616071429 5.9453125  10.0563616071429 6.0828125  Z " fill-rule="nonzero" fill="#f59a23" stroke="none" />
  </g>
</svg>