<?xml version="1.0" encoding="utf-8"?>
<svg version="1.1" xmlns:xlink="http://www.w3.org/1999/xlink" width="15px" height="15px" xmlns="http://www.w3.org/2000/svg">
  <g>
    <path d="M 15 7.5  C 15 3.357861328125  11.642138671875 0  7.5 0  C 3.357861328125 0  0 3.357861328125  0 7.5  C 0 11.642138671875  3.357861328125 15  7.5 15  C 11.642138671875 15  15 11.642138671875  15 7.5  Z M 11.25 9.08203125  C 11.25 9.24380859375  11.118837890625 9.375  10.95703125 9.375  L 5.91796875 9.375  C 5.906044921875 9.375  5.894326171875 9.374091796875  5.882783203125 9.372685546875  C 5.864970703125 9.370546875  5.8475390625 9.36703125  5.830869140625 9.361845703125  C 5.829462890625 9.361376953125  5.828115234375 9.36076171875  5.826708984375 9.36029296875  C 5.709638671875 9.3219140625  5.625029296875 9.211962890625  5.625029296875 9.08203125  L 5.625029296875 4.04296875  C 5.625029296875 3.881162109375  5.756220703125 3.75  5.917998046875 3.75  L 7.207060546875 3.75  C 7.368837890625 3.75  7.500029296875 3.881162109375  7.500029296875 4.04296875  L 7.500029296875 7.5  L 10.957060546875 7.5  C 11.1188671875 7.5  11.250029296875 7.63119140625  11.250029296875 7.79296875  L 11.250029296875 9.08203125  Z " fill-rule="nonzero" fill="#95f204" stroke="none" />
  </g>
</svg>