<?xml version="1.0" encoding="utf-8"?>
<svg version="1.1" xmlns:xlink="http://www.w3.org/1999/xlink" width="17px" height="18px" xmlns="http://www.w3.org/2000/svg">
  <g transform="matrix(1 0 0 1 -941 -550 )">
    <path d="M 13.4625455820477 16.7473211781206  C 13.1955049088359 16.9492847124825  12.8826858345021 17.0623842917251  12.562237026648 17.0623842917251  C 12.3409747545582 17.0623842917251  12.0891935483871 16.9977559607293  11.860301542777 16.8684992987377  L 8.54899719495091 15.1154558204769  L 5.21480364656381 16.8684992987377  C 5.00117110799439 16.9896774193548  4.76464936886396 17.0543057503506  4.51286816269285 17.0543057503506  C 4.19241935483871 17.0543057503506  3.87960028050491 16.9492847124825  3.6278190743338 16.7473211781206  C 3.16240532959327 16.3757082748948  2.92588359046283 15.7375035063114  3.03269985974755 15.1477699859748  L 3.7117461430575 11.4074053295933  L 1.09474754558205 8.83035063113604  C 0.690371669004208 8.39410939691445  0.537776998597475 7.77206171107994  0.690371669004208 7.18232819074334  L 0.698001402524544 7.16617110799439  C 0.888744740532959 6.56028050490884  1.36178821879383 6.14019635343618  1.93401823281907 6.05941093969144  L 5.5657713884993 5.3565778401122  L 7.190904628331 1.85049088359046  C 7.45031556802244 1.29307152875175  7.984396914446 0.937615708274895  8.54899719495091 0.937615708274895  C 9.13648667601683 0.937615708274895  9.68582748948107 1.3092286115007  9.91471949509116 1.85856942496494  L 11.5398527349229 5.3565778401122  L 15.1716058906031 6.02709677419355  C 15.7438359046283 6.11596072931276  16.2245091164095 6.55220196353436  16.3847335203366 7.15001402524544  C 16.5678471248247 7.73166900420757  16.415252454418 8.36987377279102  16.0032468443198 8.80611500701262  L 15.9956171107994 8.8141935483871  L 13.3938779803647 11.4154838709677  L 14.0500350631136 15.1639270687237  C 14.1568513323983 15.7617391304348  13.9279593267882 16.3676297335203  13.4625455820477 16.7473211781206  Z " fill-rule="nonzero" fill="#d7d7d7" stroke="none" fill-opacity="0.529411764705882" transform="matrix(1 0 0 1 941 550 )" />
  </g>
</svg>