<?xml version="1.0" encoding="utf-8"?>
<svg version="1.1" xmlns:xlink="http://www.w3.org/1999/xlink" width="12px" height="13px" xmlns="http://www.w3.org/2000/svg">
  <g transform="matrix(1 0 0 1 -184 -54 )">
    <path d="M 11.988649217561 6.50024140682928  C 11.988649217561 2.91948110048781  9.29959723317076 0.00634146341462838  5.99436917853661 0.00634146341462838  C 2.68905197268292 0.00634146341462838  0 2.91948110048781  0 6.50024140682928  C 0 10.080712022439  2.68905197268292 12.9936585365854  5.99436917853661 12.9936585365854  C 9.29959724487807 12.9936585365854  11.988649217561 10.0807120097561  11.988649217561 6.50024140682928  Z M 8.35033132097556 9.1511221892683  C 8.3502421931707 9.43153444682929  8.14042322341466 9.65980393268294  7.88256159219513 9.65980393268294  L 4.1319361756098 9.65980394536587  C 3.87407455609758 9.65980394536587  3.66434471414633 9.43163101463412  3.66434471414633 9.15112220195124  L 3.66434471414633 5.10600151512192  C 3.66434471414633 5.00828208780488  3.73770113560977 4.92871607609755  3.82799281170731 4.92871607609755  C 3.91819536000001 4.92871607609755  3.99155176975614 5.00828208780488  3.99155176975614 5.10600151512192  L 3.99155176975614 9.15112220195124  C 3.99155176975614 9.23619217268291  4.05456876878051 9.30532963512195  4.13193616390243 9.30532963512195  L 7.88256158048782 9.30532963512195  C 7.95992897560975 9.30532963512195  8.02294597463412 9.23619217268291  8.02294597463412 9.15112220195124  L 8.02294598634148 5.10600151512192  C 8.02294598634148 5.00828208780488  8.09630240780486 4.92871607609755  8.18659408390241 4.92871607609755  C 8.27688576000002 4.92871607609755  8.35024218146346 5.00828208780488  8.35024218146346 5.10600151512192  L 8.35024218146346 9.1511221892683  Z M 5.22060602926831 8.80765579707317  C 5.13049262048778 8.80765579707317  5.05704707121948 8.72818634048785  5.05704707121948 8.63046692585368  L 5.05704707121948 5.10600151512192  C 5.05704707121948 5.00828208780488  5.13040349268292 4.92871607609755  5.22060602926831 4.92871607609755  C 5.31089770536586 4.92871607609755  5.3842541268293 5.00828208780488  5.3842541268293 5.10600151512192  L 5.3842541268293 8.63037035804879  C 5.3842541268293 8.72818634048779  5.31089770536586 8.80765579707317  5.22060602926831 8.80765579707317  Z M 6.79398086634147 8.80765579707317  C 6.70368919024387 8.80765579707317  6.63033276878049 8.72818634048785  6.63033276878049 8.63046692585368  L 6.63033276878049 5.10600151512192  C 6.63033276878049 5.00828208780488  6.70368919024387 4.92871607609755  6.79398086634147 4.92871607609755  C 6.88418341463417 4.92871607609755  6.95753982439024 5.00828208780488  6.95753982439024 5.10600151512192  L 6.95753982439024 8.63037035804879  C 6.95753982439024 8.72818634048779  6.88418340292686 8.80765579707317  6.79398086634147 8.80765579707317  Z M 9.08523249951219 4.23000285658534  C 9.08532162731705 4.32772229658532  9.01187607804875 4.40728830829265  8.92167352975612 4.40728830829265  L 7.20648816 4.40728830829265  C 7.16281301853657 4.40728830829265  7.12172272390239 4.38884521463416  7.09079359609752 4.3553386595122  L 6.48103507902436 3.69476693268294  L 5.52570812487804 3.69476693268294  L 4.79775932487808 4.36499472975609  C 4.76852371902437 4.3921282917073  4.73082047999996 4.40728832097559  4.69186938146345 4.40728832097559  L 3.06706481560972 4.40728830829265  C 2.97677313951218 4.40728830829265  2.9034167180488 4.32772229658532  2.9034167180488 4.23000286926828  C 2.9034167180488 4.13228344195118  2.97677313951218 4.0527174302439  3.06706481560972 4.0527174302439  L 4.63179376390248 4.0527174302439  L 5.35965343609752 3.38248963317075  C 5.38933470439024 3.35525951609753  5.42694881560979 3.34029260975613  5.46563251902438 3.34029260975613  L 6.54877613268288 3.34029260975613  C 6.59245127414637 3.34029260975613  6.63354156878049 3.35873570341463  6.66447069658536 3.39224225853659  L 7.27422921365852 4.05281398536585  L 8.92158440195121 4.05281398536585  C 9.01187607804875 4.05281398536585  9.08523249951219 4.13228344195118  9.08523249951219 4.23000285658534  Z " fill-rule="nonzero" fill="#199ed8" stroke="none" transform="matrix(1 0 0 1 184 54 )" />
  </g>
</svg>