<?xml version="1.0" encoding="utf-8"?>
<svg version="1.1" xmlns:xlink="http://www.w3.org/1999/xlink" width="19px" height="19px" xmlns="http://www.w3.org/2000/svg">
  <g transform="matrix(1 0 0 1 -46 -468 )">
    <path d="M 5.046875 0  C 5.37529296875 0  5.640625 0.3265625  5.640625 0.730769230769231  L 5.640625 4.75  C 5.640625 5.15420673076923  5.37529296875 5.48076923076923  5.046875 5.48076923076923  L 0.59375 5.48076923076923  C 0.26533203125 5.48076923076923  0 5.15420673076923  0 4.75  L 0 0.730769230769231  C 0 0.3265625  0.26533203125 0  0.59375 0  L 5.046875 0  Z M 5.046875 6.94230769230769  C 5.37529296875 6.94230769230769  5.640625 7.26887019230769  5.640625 7.67307692307692  L 5.640625 11.3269230769231  C 5.640625 11.7311298076923  5.37529296875 12.0576923076923  5.046875 12.0576923076923  L 0.59375 12.0576923076923  C 0.26533203125 12.0576923076923  0 11.7311298076923  0 11.3269230769231  L 0 7.67307692307692  C 0 7.26887019230769  0.26533203125 6.94230769230769  0.59375 6.94230769230769  L 5.046875 6.94230769230769  Z M 5.046875 13.5192307692308  C 5.37529296875 13.5192307692308  5.640625 13.8457932692308  5.640625 14.25  L 5.640625 18.2692307692308  C 5.640625 18.6734375  5.37529296875 19  5.046875 19  L 0.59375 19  C 0.26533203125 19  0 18.6734375  0 18.2692307692308  L 0 14.25  C 0 13.8457932692308  0.26533203125 13.5192307692308  0.59375 13.5192307692308  L 5.046875 13.5192307692308  Z M 18.40625 0  C 18.73466796875 0  19 0.3265625  19 0.730769230769231  L 19 4.75  C 19 5.15420673076923  18.73466796875 5.48076923076923  18.40625 5.48076923076923  L 13.953125 5.48076923076923  C 13.62470703125 5.48076923076923  13.359375 5.15420673076923  13.359375 4.75  L 13.359375 0.730769230769231  C 13.359375 0.3265625  13.62470703125 0  13.953125 0  L 18.40625 0  Z M 18.40625 6.94230769230769  C 18.73466796875 6.94230769230769  19 7.26887019230769  19 7.67307692307692  L 19 11.3269230769231  C 19 11.7311298076923  18.73466796875 12.0576923076923  18.40625 12.0576923076923  L 13.953125 12.0576923076923  C 13.62470703125 12.0576923076923  13.359375 11.7311298076923  13.359375 11.3269230769231  L 13.359375 7.67307692307692  C 13.359375 7.26887019230769  13.62470703125 6.94230769230769  13.953125 6.94230769230769  L 18.40625 6.94230769230769  Z M 18.40625 13.5192307692308  C 18.73466796875 13.5192307692308  19 13.8457932692308  19 14.25  L 19 18.2692307692308  C 19 18.6734375  18.73466796875 19  18.40625 19  L 13.953125 19  C 13.62470703125 19  13.359375 18.6734375  13.359375 18.2692307692308  L 13.359375 14.25  C 13.359375 13.8457932692308  13.62470703125 13.5192307692308  13.953125 13.5192307692308  L 18.40625 13.5192307692308  Z M 11.578125 0  C 11.90654296875 0  12.171875 0.3265625  12.171875 0.730769230769231  L 12.171875 4.75  C 12.171875 5.15420673076923  11.90654296875 5.48076923076923  11.578125 5.48076923076923  L 7.421875 5.48076923076923  C 7.09345703125 5.48076923076923  6.828125 5.15420673076923  6.828125 4.75  L 6.828125 0.730769230769231  C 6.828125 0.3265625  7.09345703125 0  7.421875 0  L 11.578125 0  Z M 11.578125 6.94230769230769  C 11.90654296875 6.94230769230769  12.171875 7.26887019230769  12.171875 7.67307692307692  L 12.171875 11.3269230769231  C 12.171875 11.7311298076923  11.90654296875 12.0576923076923  11.578125 12.0576923076923  L 7.421875 12.0576923076923  C 7.09345703125 12.0576923076923  6.828125 11.7311298076923  6.828125 11.3269230769231  L 6.828125 7.67307692307692  C 6.828125 7.26887019230769  7.09345703125 6.94230769230769  7.421875 6.94230769230769  L 11.578125 6.94230769230769  Z M 11.578125 13.5192307692308  C 11.90654296875 13.5192307692308  12.171875 13.8457932692308  12.171875 14.25  L 12.171875 18.2692307692308  C 12.171875 18.6734375  11.90654296875 19  11.578125 19  L 7.421875 19  C 7.09345703125 19  6.828125 18.6734375  6.828125 18.2692307692308  L 6.828125 14.25  C 6.828125 13.8457932692308  7.09345703125 13.5192307692308  7.421875 13.5192307692308  L 11.578125 13.5192307692308  Z " fill-rule="nonzero" fill="#7f7f7f" stroke="none" transform="matrix(1 0 0 1 46 468 )" />
  </g>
</svg>