<?xml version="1.0" encoding="utf-8"?>
<svg version="1.1" xmlns:xlink="http://www.w3.org/1999/xlink" width="19px" height="19px" xmlns="http://www.w3.org/2000/svg">
  <g transform="matrix(1 0 0 1 -46 -446 )">
    <path d="M 7.125 0  C 8.1083984375 0  8.90625 0.7978515625  8.90625 1.78125  L 8.90625 7.125  C 8.90625 8.1083984375  8.1083984375 8.90625  7.125 8.90625  L 1.78125 8.90625  C 0.7978515625 8.90625  0 8.1083984375  0 7.125  L 0 1.78125  C 0 0.7978515625  0.7978515625 0  1.78125 0  L 7.125 0  Z M 17.21875 0  C 18.2021484375 0  19 0.7978515625  19 1.78125  L 19 7.125  C 19 8.1083984375  18.2021484375 8.90625  17.21875 8.90625  L 11.875 8.90625  C 10.8916015625 8.90625  10.09375 8.1083984375  10.09375 7.125  L 10.09375 1.78125  C 10.09375 0.7978515625  10.8916015625 0  11.875 0  L 17.21875 0  Z M 7.125 10.09375  C 8.1083984375 10.09375  8.90625 10.8916015625  8.90625 11.875  L 8.90625 17.21875  C 8.90625 18.2021484375  8.1083984375 19  7.125 19  L 1.78125 19  C 0.7978515625 19  0 18.2021484375  0 17.21875  L 0 11.875  C 0 10.8916015625  0.7978515625 10.09375  1.78125 10.09375  L 7.125 10.09375  Z M 17.21875 10.09375  C 18.2021484375 10.09375  19 10.8916015625  19 11.875  L 19 17.21875  C 19 18.2021484375  18.2021484375 19  17.21875 19  L 11.875 19  C 10.8916015625 19  10.09375 18.2021484375  10.09375 17.21875  L 10.09375 11.875  C 10.09375 10.8916015625  10.8916015625 10.09375  11.875 10.09375  L 17.21875 10.09375  Z " fill-rule="nonzero" fill="#02a7f0" stroke="none" transform="matrix(1 0 0 1 46 446 )" />
  </g>
</svg>