<?xml version="1.0" encoding="utf-8"?>
<svg version="1.1" xmlns:xlink="http://www.w3.org/1999/xlink" width="15px" height="15px" xmlns="http://www.w3.org/2000/svg">
  <g transform="matrix(1 0 0 1 -1150 -10 )">
    <path d="M 0.516086744225543 13.7633693529212  L 4.10044794497283 10.1789922299592  L 1.25584876019022 10.1789922299592  C 0.974455460258152 10.1789922299592  0.746337890625 9.95087466032609  0.746337890625 9.66948136039402  C 0.746337890625 9.38808806046196  0.974455460258152 9.1599704908288  1.25584876019022 9.1599704908288  L 5.33193571671196 9.1599704908288  C 5.61332901664402 9.1599704908288  5.84144658627717 9.38808806046196  5.84144658627717 9.66948136039402  L 5.84144658627717 13.7455683169158  C 5.84144658627717 14.0269616168478  5.61332901664402 14.255079186481  5.33193571671196 14.255079186481  C 5.05054241677989 14.255079186481  4.82242484714674 14.0269616168478  4.82242484714674 13.7455683169158  L 4.82242484714674 10.8981190557065  L 1.2366306470788 14.4839132557745  C 1.03766665251359 14.6828931725543  0.715050738790761 14.6828931725543  0.516086744225543 14.4839132557745  C 0.317106827445652 14.2849492612092  0.317106827445652 13.9623333474864  0.516086744225543 13.7633693529212  Z M 10.8981190557065 4.82244076936141  L 13.7455683169158 4.82244076936141  C 14.0269616168478 4.82244076936141  14.255079186481 5.05054241677989  14.255079186481 5.33195163892663  C 14.255079186481 5.61332901664402  14.0269616168478 5.84146250849185  13.7455683169158 5.84146250849185  L 9.66948136039402 5.84146250849185  C 9.38808806046196 5.84146250849185  9.15997049082881 5.61332901664402  9.15997049082881 5.33195163892663  L 9.15997049082881 1.25586468240489  C 9.15997049082881 0.974455460258152  9.38808806046196 0.746353812839674  9.66948136039402 0.746353812839674  C 9.95087466032609 0.746353812839674  10.1789922299592 0.974455460258152  10.1789922299592 1.25586468240489  L 10.1789922299592 4.10044794497283  L 13.7633693529212 0.516086744225543  C 13.9623333474864 0.317106827445652  14.2849492612092 0.317106827445652  14.4839132557745 0.516086744225543  C 14.6828931725543 0.715050738790761  14.6828931725543 1.03766665251359  14.4839132557745 1.2366306470788  L 10.8981349779212 4.82242484714674  Z M 10.1790081521739 10.8995520550272  L 10.1790081521739 13.7455683169158  C 10.1790081521739 14.0269616168478  9.95089058254076 14.255079186481  9.6694972826087 14.255079186481  C 9.38810398267663 14.255079186481  9.15998641304348 14.0269616168478  9.15998641304348 13.7455683169158  L 9.15998641304348 9.66948136039402  C 9.15998641304348 9.38808806046196  9.38810398267663 9.1599704908288  9.6694972826087 9.1599704908288  L 13.7455842391304 9.1599704908288  C 14.0269775390625 9.1599704908288  14.2550951086957 9.38808806046196  14.2550951086957 9.66948136039402  C 14.2550951086957 9.95087466032609  14.0269775390625 10.1789922299592  13.7455842391304 10.1789922299592  L 10.8995520550272 10.1789922299592  L 14.4839132557745 13.7633693529212  C 14.6828931725543 13.9623333474864  14.6828931725543 14.2849492612092  14.4839132557745 14.4839132557745  C 14.2849492612092 14.6828931725543  13.9623333474864 14.6828931725543  13.7633693529212 14.4839132557745  L 10.1789922299592 10.8995520550272  Z M 4.82245669157609 4.10188094429348  L 4.82245669157609 1.25583283797554  C 4.82245669157609 0.974439538043478  5.05055833899456 0.746321968410326  5.3319675611413 0.746321968410326  C 5.6133449388587 0.746321968410326  5.84147843070652 0.974439538043478  5.84147843070652 1.25583283797554  L 5.84147843070652 5.33191979449728  C 5.84147843070652 5.61331309442935  5.6133449388587 5.8414306640625  5.3319675611413 5.8414306640625  L 1.25588060461956 5.8414306640625  C 0.974471382472825 5.8414306640625  0.746369735054347 5.61331309442935  0.746369735054347 5.33191979449728  C 0.746369735054347 5.05052649456522  0.974471382472825 4.82240892493206  1.25588060461956 4.82240892493206  L 4.10188094429348 4.82240892493206  L 0.516086744225543 1.2366306470788  C 0.317106827445652 1.03766665251359  0.317106827445652 0.715050738790761  0.516086744225543 0.516086744225543  C 0.715050738790761 0.317106827445652  1.03766665251359 0.317106827445652  1.2366306470788 0.516086744225543  L 4.82242484714674 4.1018650220788  Z " fill-rule="nonzero" fill="#f2f2f2" stroke="none" transform="matrix(1 0 0 1 1150 10 )" />
  </g>
</svg>