<?xml version="1.0" encoding="utf-8"?>
<svg version="1.1" xmlns:xlink="http://www.w3.org/1999/xlink" width="7px" height="7px" xmlns="http://www.w3.org/2000/svg">
  <g transform="matrix(1 0 0 1 -9 -17 )">
    <path d="M 6.49062500000002 5.84375  L 6.48125000000005 5.83437499999999  L 4.15625 3.5  L 6.49062500000002 1.16562500000001  C 6.56208192259169 1.08103224466532  6.6012840587947 0.973873594689764  6.6012840587947 0.863139561793901  C 6.6012840587947 0.604256085310709  6.39141753527792 0.394389561793901  6.1325340587947 0.394389561793901  C 6.01951273376937 0.394389561793901  5.91029693764472 0.43522479879374  5.82500000000005 0.509375000000006  L 3.5 2.83437499999999  L 1.18437500000005 0.528124999999989  C 1.09610763697526 0.439857636975262  0.976391401904493 0.390269548772721  0.8515625 0.390269548772721  C 0.591619768303076 0.390269548772721  0.380894548772744 0.600994768303053  0.380894548772744 0.860937500000006  C 0.380894548772744 0.985766401904471  0.430482636975285 1.1054826369753  0.518749999999955 1.19374999999999  L 2.82500000000005 3.5  L 0.518749999999955 5.80625000000001  C 0.430482636975285 5.8945173630247  0.380894548772744 6.01423359809553  0.380894548772744 6.13906249999999  C 0.380894548772744 6.39900523169695  0.591619768303076 6.60973045122728  0.8515625 6.60973045122728  C 0.976391401904493 6.60973045122728  1.09610763697526 6.56014236302474  1.18437500000005 6.47187500000001  L 3.5 4.16562500000001  L 5.83437500000002 6.5  C 5.92139916072858 6.58702416072862  6.03942925164347 6.63591382515366  6.16250000000002 6.63591382515366  C 6.4187815664618 6.63591382515366  6.62653882515372 6.42815656646178  6.62653882515372 6.171875  C 6.62653882515372 6.04880425164347  6.57764916072858 5.93077416072862  6.49062500000002 5.84375  Z " fill-rule="nonzero" fill="#999999" stroke="none" transform="matrix(1 0 0 1 9 17 )" />
  </g>
</svg>