<?xml version="1.0" encoding="utf-8"?>
<svg version="1.1" xmlns:xlink="http://www.w3.org/1999/xlink" width="15px" height="15px" xmlns="http://www.w3.org/2000/svg">
  <g transform="matrix(1 0 0 1 -5 -13 )">
    <path d="M 0.9375 7.5  C 0.9375 3.87563132923543  3.87563132923538 0.9375  7.5 0.9375  C 11.1243686707646 0.9375  14.0625 3.87563132923543  14.0625 7.5  C 14.0625 11.1243686707646  11.1243686707646 14.0625  7.5 14.0625  C 3.87563132923538 14.0625  0.9375 11.1243686707646  0.9375 7.5  Z M 15 7.5  C 15 3.35786437626905  11.642135623731 0  7.5 0  C 3.35786437626905 0  0 3.35786437626905  0 7.5  C 0 11.642135623731  3.35786437626905 15  7.5 15  C 11.642135623731 15  15 11.642135623731  15 7.5  Z " fill-rule="nonzero" fill="#cccccc" stroke="none" transform="matrix(1 0 0 1 5 13 )" />
  </g>
</svg>