<?xml version="1.0" encoding="utf-8"?>
<svg version="1.1" xmlns:xlink="http://www.w3.org/1999/xlink" width="13px" height="16px" xmlns="http://www.w3.org/2000/svg">
  <defs>
    <filter x="12px" y="11px" width="13px" height="16px" filterUnits="userSpaceOnUse" id="filter43">
      <feOffset dx="0" dy="0" in="SourceAlpha" result="shadowOffsetInner" />
      <feGaussianBlur stdDeviation="0.5" in="shadowOffsetInner" result="shadowGaussian" />
      <feComposite in2="shadowGaussian" operator="atop" in="SourceAlpha" result="shadowComposite" />
      <feColorMatrix type="matrix" values="0 0 0 0 0  0 0 0 0 0  0 0 0 0 0  0 0 0 0.349019607843137 0  " in="shadowComposite" />
    </filter>
    <g id="widget44">
      <path d="M 2.29791666666665 8.31630434782608  L 2.29791666666665 9.52989130434781  C 2.29791666666665 9.7391304347826  2.11041666666671 9.9103260869565  1.88124999999997 9.9103260869565  L 0.552083333333314 9.9103260869565  C 0.322916666666686 9.9103260869565  0.135416666666686 9.7391304347826  0.135416666666686 9.52989130434781  L 0.135416666666686 8.31630434782608  C 0.135416666666686 8.10706521739129  0.322916666666686 7.93586956521739  0.552083333333314 7.93586956521739  L 1.88124999999997 7.93586956521739  C 2.11041666666671 7.93586956521739  2.29791666666665 8.10706521739129  2.29791666666665 8.31630434782608  Z M 2.29791666666665 12.2652173913043  L 2.29791666666665 13.4788043478261  C 2.29791666666665 13.6880434782609  2.11041666666671 13.8592391304348  1.88124999999997 13.8592391304348  L 0.552083333333314 13.8592391304348  C 0.322916666666686 13.8592391304348  0.135416666666686 13.6880434782609  0.135416666666686 13.4788043478261  L 0.135416666666686 12.2652173913043  C 0.135416666666686 12.0559782608696  0.322916666666686 11.8847826086956  0.552083333333314 11.8847826086956  L 1.88124999999997 11.8847826086956  C 2.11041666666671 11.8847826086956  2.29791666666665 12.0559782608696  2.29791666666665 12.2652173913043  Z M 6.60208333333333 8.31630434782608  L 6.60208333333333 9.52989130434781  C 6.60208333333333 9.7391304347826  6.41458333333333 9.9103260869565  6.1854166666667 9.9103260869565  L 4.85625000000005 9.9103260869565  C 4.6270833333333 9.9103260869565  4.43958333333336 9.7391304347826  4.43958333333336 9.52989130434781  L 4.43958333333336 8.31630434782608  C 4.43958333333336 8.10706521739129  4.6270833333333 7.93586956521739  4.85625000000005 7.93586956521739  L 6.1854166666667 7.93586956521739  C 6.41458333333333 7.93586956521739  6.60208333333333 8.10706521739129  6.60208333333333 8.31630434782608  Z M 6.60208333333333 12.2652173913043  L 6.60208333333333 13.4788043478261  C 6.60208333333333 13.6880434782609  6.41458333333333 13.8592391304348  6.1854166666667 13.8592391304348  L 4.85625000000005 13.8592391304348  C 4.6270833333333 13.8592391304348  4.43958333333336 13.6880434782609  4.43958333333336 13.4788043478261  L 4.43958333333336 12.2652173913043  C 4.43958333333336 12.0559782608696  4.6270833333333 11.8847826086956  4.85625000000005 11.8847826086956  L 6.1854166666667 11.8847826086956  C 6.41458333333333 11.8847826086956  6.60208333333333 12.0559782608696  6.60208333333333 12.2652173913043  Z M 10.9208333333333 8.31630434782608  L 10.9208333333333 9.52989130434781  C 10.9208333333333 9.7391304347826  10.7333333333333 9.9103260869565  10.5041666666667 9.9103260869565  L 9.17499999999995 9.9103260869565  C 8.94583333333333 9.9103260869565  8.75833333333333 9.7391304347826  8.75833333333333 9.52989130434781  L 8.75833333333333 8.31630434782608  C 8.75833333333333 8.10706521739129  8.94583333333333 7.93586956521739  9.17499999999995 7.93586956521739  L 10.5041666666667 7.93586956521739  C 10.7333333333333 7.93586956521739  10.9208333333333 8.10706521739129  10.9208333333333 8.31630434782608  Z M 10.9208333333333 12.2652173913043  L 10.9208333333333 13.4788043478261  C 10.9208333333333 13.6880434782609  10.7333333333333 13.8592391304348  10.5041666666667 13.8592391304348  L 9.17499999999995 13.8592391304348  C 8.94583333333333 13.8592391304348  8.75833333333333 13.6880434782609  8.75833333333333 13.4788043478261  L 8.75833333333333 12.2652173913043  C 8.75833333333333 12.0559782608696  8.94583333333333 11.8847826086956  9.17499999999995 11.8847826086956  L 10.5041666666667 11.8847826086956  C 10.7333333333333 11.8847826086956  10.9208333333333 12.0559782608696  10.9208333333333 12.2652173913043  Z M 2.35416666666663 0.443206521739114  L 2.35416666666663 4.73451086956524  C 2.35416666666663 4.94374999999999  2.16666666666669 5.11494565217393  1.9375 5.11494565217393  L 1.625 5.11494565217393  C 1.39583333333331 5.11494565217393  1.20833333333337 4.94374999999999  1.20833333333337 4.73451086956524  L 1.20833333333337 0.443206521739114  C 1.20833333333337 0.233967391304333  1.39583333333331 0.0627717391304259  1.625 0.0627717391304259  L 1.9375 0.0627717391304259  C 2.16666666666669 0.0627717391304259  2.35416666666663 0.233967391304333  2.35416666666663 0.443206521739114  Z M 9.83333333333331 0.443206521739114  L 9.83333333333331 4.73451086956524  C 9.83333333333331 4.94374999999999  9.64583333333331 5.11494565217393  9.41666666666669 5.11494565217393  L 9.10416666666663 5.11494565217393  C 8.875 5.11494565217393  8.6875 4.94374999999999  8.6875 4.73451086956524  L 8.6875 0.443206521739114  C 8.6875 0.233967391304333  8.875 0.0627717391304259  9.10416666666663 0.0627717391304259  L 9.41666666666669 0.0627717391304259  C 9.64583333333331 0.0627717391304259  9.83333333333331 0.233967391304333  9.83333333333331 0.443206521739114  Z " fill-rule="nonzero" fill="#dcdfe6" stroke="none" transform="matrix(1 0 0 1 13 12 )" />
    </g>
  </defs>
  <g transform="matrix(1 0 0 1 -12 -11 )">
    <use xlink:href="#widget44" filter="url(#filter43)" />
    <use xlink:href="#widget44" />
  </g>
</svg>