<?xml version="1.0" encoding="utf-8"?>
<svg version="1.1" xmlns:xlink="http://www.w3.org/1999/xlink" width="18px" height="16px" xmlns="http://www.w3.org/2000/svg">
  <defs>
    <filter x="9px" y="13px" width="18px" height="16px" filterUnits="userSpaceOnUse" id="filter45">
      <feOffset dx="0" dy="0" in="SourceAlpha" result="shadowOffsetInner" />
      <feGaussianBlur stdDeviation="0.5" in="shadowOffsetInner" result="shadowGaussian" />
      <feComposite in2="shadowGaussian" operator="atop" in="SourceAlpha" result="shadowComposite" />
      <feColorMatrix type="matrix" values="0 0 0 0 0  0 0 0 0 0  0 0 0 0 0  0 0 0 0.349019607843137 0  " in="shadowComposite" />
    </filter>
    <g id="widget46">
      <path d="M 15.6153846153846 0.0461538461538566  L 0.423076923076962 0.0461538461538566  C 0.211538461538453 0.0461538461538566  0.0384615384615472 0.219230769230762  0.0384615384615472 0.430769230769243  L 0.0384615384615472 13.6134615384615  C 0.0384615384615472 13.825  0.211538461538453 13.9980769230769  0.423076923076962 13.9980769230769  L 15.6153846153846 13.9980769230769  C 15.826923076923 13.9980769230769  16 13.825  16 13.6134615384615  L 16 0.430769230769243  C 16 0.219230769230762  15.826923076923 0.0461538461538566  15.6153846153846 0.0461538461538566  Z M 15 1.48653846153846  L 15 12.5557692307692  C 14.9423076923077 12.7673076923077  14.7692307692308 12.9403846153846  14.5576923076923 13  L 1.48076923076923 13  C 1.26923076923077 12.9403846153846  1.09615384615387 12.7673076923077  1 12.5557692307692  L 1 1.48653846153846  C 1.09615384615387 1.27500000000001  1.26923076923077 1.10192307692307  1.48076923076923 1.10192307692307  L 14.5576923076923 1.10192307692307  C 14.7692307692308 1.10192307692307  14.9423076923077 1.27500000000001  15 1.48653846153846  Z " fill-rule="nonzero" fill="#dcdfe6" stroke="none" transform="matrix(1 0 0 1 10 14 )" />
    </g>
  </defs>
  <g transform="matrix(1 0 0 1 -9 -13 )">
    <use xlink:href="#widget46" filter="url(#filter45)" />
    <use xlink:href="#widget46" />
  </g>
</svg>