<?xml version="1.0" encoding="utf-8"?>
<svg version="1.1" xmlns:xlink="http://www.w3.org/1999/xlink" width="8px" height="8px" xmlns="http://www.w3.org/2000/svg">
  <g transform="matrix(1 0 0 1 -1 -4 )">
    <path d="M 0.5 4  C 0.5 2.06700337559223  2.0670033755922 0.5  4 0.5  C 5.9329966244078 0.5  7.5 2.06700337559223  7.5 4  C 7.5 5.93299662440777  5.9329966244078 7.5  4 7.5  C 2.0670033755922 7.5  0.5 5.93299662440777  0.5 4  Z M 8 4  C 8 1.79086100067683  6.20913899932317 0  4 0  C 1.79086100067683 0  0 1.79086100067683  0 4  C 0 6.20913899932317  1.79086100067683 8  4 8  C 6.20913899932317 8  8 6.20913899932317  8 4  Z " fill-rule="nonzero" fill="#cccccc" stroke="none" transform="matrix(1 0 0 1 1 4 )" />
  </g>
</svg>