<?xml version="1.0" encoding="utf-8"?>
<svg version="1.1" xmlns:xlink="http://www.w3.org/1999/xlink" width="4px" height="4px" xmlns="http://www.w3.org/2000/svg">
  <g transform="matrix(1 0 0 1 -3 -6 )">
    <path d="M 3.70892857142858 3.33928571428571  L 3.70357142857145 3.33392857142857  L 2.375 2  L 3.70892857142858 0.666071428571432  C 3.74976109862382 0.617732711237328  3.77216231931126 0.556499196965579  3.77216231931126 0.493222606739372  C 3.77216231931126 0.345289191606119  3.65223859158739 0.225365463882229  3.50430517645412 0.225365463882229  C 3.43972156215393 0.225365463882229  3.37731253579698 0.248699885024994  3.32857142857145 0.291071428571432  L 2 1.61964285714285  L 0.67678571428574 0.301785714285708  C 0.626347221128721 0.251347221128721  0.557937943945425 0.223011170727269  0.486607142857143 0.223011170727269  C 0.338068439030329 0.223011170727269  0.21765402787014 0.343425581887459  0.21765402787014 0.491964285714289  C 0.21765402787014 0.563295086802555  0.245990078271591 0.631704363985883  0.296428571428545 0.682142857142854  L 1.61428571428574 2  L 0.296428571428545 3.31785714285715  C 0.245990078271591 3.36829563601412  0.21765402787014 3.43670491319745  0.21765402787014 3.50803571428571  C 0.21765402787014 3.65657441811254  0.338068439030329 3.77698882927273  0.486607142857143 3.77698882927273  C 0.557937943945425 3.77698882927273  0.626347221128721 3.74865277887128  0.67678571428574 3.69821428571429  L 2 2.38035714285715  L 3.33392857142858 3.71428571428571  C 3.38365666327348 3.76401380613064  3.45110242951055 3.79195075723067  3.52142857142858 3.79195075723067  C 3.66787518083532 3.79195075723067  3.78659361437355 3.67323232369245  3.78659361437355 3.52678571428571  C 3.78659361437355 3.4564595723677  3.75865666327348 3.38901380613064  3.70892857142858 3.33928571428571  Z " fill-rule="nonzero" fill="#cccccc" stroke="none" transform="matrix(1 0 0 1 3 6 )" />
  </g>
</svg>