<?xml version="1.0" encoding="utf-8"?>
<svg version="1.1" xmlns:xlink="http://www.w3.org/1999/xlink" width="8px" height="8px" xmlns="http://www.w3.org/2000/svg">
  <g transform="matrix(1 0 0 1 -5 -6 )">
    <path d="M 8 4  C 8 1.78333333593748  6.2166666640625 0  4 0  C 1.7833333359375 0  0 1.78333333593748  0 4  C 0 6.21666666406252  1.7833333359375 8  4 8  C 6.2166666640625 8  8 6.21666666406252  8 4  Z M 7.66666666406249 4  C 7.66666666406249 6.01666666406251  6.01666666406248 7.6666666640625  4 7.6666666640625  C 1.98333333593752 7.6666666640625  0.33333333593751 6.01666666406251  0.33333333593751 4  C 0.33333333593751 1.98333333593749  1.98333333593752 0.333333335937496  4 0.333333335937496  C 6.01666666406248 0.333333335937496  7.66666666406249 1.98333333593749  7.66666666406249 4  Z " fill-rule="nonzero" fill="#dcdfe6" stroke="none" transform="matrix(1 0 0 1 5 6 )" />
  </g>
</svg>