<?xml version="1.0" encoding="utf-8"?>
<svg version="1.1" xmlns:xlink="http://www.w3.org/1999/xlink" width="3px" height="3px" xmlns="http://www.w3.org/2000/svg">
  <g transform="matrix(1 0 0 1 -9 -8 )">
    <path d="M 2.97674418313954 2.7906976744186  C 2.97674418313954 2.67906976744185  2.86511627616278 2.60465116569766  2.73488372093024 2.60465116569766  L 0.372093026162815 2.60465116569766  L 0.372093026162815 0.20465116569768  C 0.372093026162815 0.0930232587209446  0.297674424418631 0  0.186046508720921 0  C 0.0744185930232391 0  0 0.0930232587209446  0 0.20465116569768  L 0 2.7906976744186  C 0 2.82790697965117  0.0186046482558027 2.84651162790698  0.0372093052325511 2.88372093313955  C 0.0744186104651305 2.93953488662792  0.130232563953484 2.97674419186047  0.186046508720921 2.97674418313954  L 2.73488372093024 2.97674418313954  C 2.86511627616278 2.97674418313954  2.97674418313954 2.90232558139535  2.97674418313954 2.7906976744186  Z " fill-rule="nonzero" fill="#dcdfe6" stroke="none" transform="matrix(1 0 0 1 9 8 )" />
  </g>
</svg>