<?xml version="1.0" encoding="utf-8"?>
<svg version="1.1" xmlns:xlink="http://www.w3.org/1999/xlink" width="22px" height="22px" xmlns="http://www.w3.org/2000/svg">
  <g transform="matrix(1 0 0 1 -1037 -13 )">
    <path d="M 21.725 0.349765624999999  L 0.35234375 0.349765625  L 0.35234375 21.722421875  L 21.725 21.722421875  L 21.725 0.349765624999999  Z M 20.655078125 1.417109375  L 20.655078125 20.655078125  L 1.4196875 20.655078125  L 1.4196875 1.417109375  L 20.655078125 1.417109375  Z M 16.91421875 11.03609375  C 16.916796875 11.30421875  16.648671875 11.569765625  16.380546875 11.569765625  L 5.69421875 11.569765625  C 5.37453125 11.569765625  5.160546875 11.35578125  5.160546875 11.03609375  C 5.160546875 10.71640625  5.37453125 10.502421875  5.69421875 10.502421875  L 16.380546875 10.502421875  C 16.700234375 10.502421875  16.91421875 10.71640625  16.91421875 11.03609375  Z " fill-rule="nonzero" fill="#d7d7d7" stroke="none" fill-opacity="0.517647058823529" transform="matrix(1 0 0 1 1037 13 )" />
  </g>
</svg>