<?xml version="1.0" encoding="utf-8"?>
<svg version="1.1" xmlns:xlink="http://www.w3.org/1999/xlink" width="15px" height="15px" xmlns="http://www.w3.org/2000/svg">
  <g transform="matrix(1 0 0 1 -412 -568 )">
    <path d="M 0.742295415974507 4.46103225807977  L 14.2577045840255 4.46103225807977  L 14.2577045840255 1.58201018674959  C 14.2577045840255 1.12216638371454  13.8878302207417 0.742295415974507  13.4179898132504 1  L 1.58201018674959 1  C 1.12216638371454 0.742295415974507  0.742295415974507 1.11216977925833  0.742295415974507 1.58201018674959  L 0.742295415974507 4.46103225807977  Z M 5.18078777591232 14.2577045840255  L 5.18078777591232 5.40071307306229  L 0.752292020430716 5.40071307306229  L 0.752292020430716 13.4179898132504  C 0.752292020430716 13.8778336162855  1.12216638371454 14.2577045840255  1.5920067912058 14.2577045840255  L 5.18078777591232 14.2577045840255  Z M 14.2477079795693 5.40071307306229  L 6.11047198643863 5.40071307306229  L 6.11047198643863 14.2477079795693  L 13.4279864177066 14.2477079795693  C 14.0177860781404 14.2477079795693  14.2477079795693 13.9278166382119  14.2477079795693 13.4279864177066  L 14.2477079795693 5.40071307306229  Z " fill-rule="nonzero" fill="#d7d7d7" stroke="none" transform="matrix(1 0 0 1 412 568 )" />
  </g>
</svg>