<?xml version="1.0" encoding="utf-8"?>
<svg version="1.1" xmlns:xlink="http://www.w3.org/1999/xlink" width="15px" height="15px" xmlns="http://www.w3.org/2000/svg">
  <g transform="matrix(1 0 0 1 -481 -568 )">
    <path d="M 13.4395324602273 9.22239795200893  L 13.4407792159091 9.22239795200893  L 10.2241558465909 14.6921938727679  C 10.0628537408374 14.9665301931926  9.70582821371135 15.060767403268  9.42623376136364 14.9028061272321  L 7.90644155113636 14.0407653013393  L 9.95361039204545 10.5595408091518  C 10.0942033579327 10.3190771909799  10.0402189852466 10.0143387679699  9.8251948125 9.83464285714286  L 9.73916882386363 9.77586734933036  C 9.4946210873681 9.63749858602486  9.18438939519497 9.68999616416011  9.00109090909091 9.90076530133929  L 8.94124675568182 9.98647958705357  L 6.89407791477272 13.4664795870536  L 4.86935064204545 12.3179081584821  L 6.91402597159091 8.83790815848214  C 7.05491053059287 8.5977273458526  7.00145845103698 8.29303550532542  6.78685714772727 8.11301020647322  L 6.69958442045455 8.05178571428571  C 6.45474873252897 7.91370332763151  6.14446960000722 7.96672369430254  5.96150648863636 8.17790815848215  L 5.90166233522727 8.26362244419643  L 3.85449351136364 11.7436224441964  L 0.311220784090909 9.73545919084822  C 0.130027813828109 9.63294621913936  0.018364229281764 9.44320617880782  0.018364229281764 9.2378339825353  C 0.018364229281764 9.13697491369194  0.0454095517583699 9.03789456210442  0.0967792159090908 8.95056122209822  L 3.31340260227273 3.47954080915179  L 13.4395324602273 9.22239795200893  Z M 11.3786493579545 0.0962755078124997  L 12.3910129943182 0.670561222098215  C 12.6715324772727 0.829744888392858  12.7662857215909 1.179948984375  12.6054545454545 1.45423469866071  L 11.1442597329545 3.9411734765625  L 14.6875324602273 5.95056122209821  C 14.9680519431818 6.10974488839286  15.0640519431818 6.46117345982143  14.9019740284091 6.73545919084821  L 14.3172467556818 7.72974490513393  C 14.1559446440906 8.00408121947997  13.7989191183423 8.09831842170096  13.5193246704545 7.94035714285714  L 4.40555844886363 2.77301020647321  C 4.22436547860084 2.67049723476436  4.11270189405449 2.48075719443282  4.11270189405449 2.2753849981603  C 4.11270189405449 2.17452592931694  4.1397472165311 2.07544557772942  4.19111688068182 1.98811223772321  L 4.77584415340909 0.992602047991071  C 4.93757279945963 0.718710106473876  5.29449788071699 0.625047146833334  5.57376623863636 0.783214285714286  L 9.11828572159091 2.79260204799107  L 10.5794805170455 0.306887762276785  C 10.6838573609672 0.128930380768678  10.8770472202139 0.019260788803518  11.0861534564186 0.019260788803518  C 11.1888463265137 0.019260788803518  11.2897281390391 0.0458231590930419  11.3786493579545 0.0962755078124997  Z " fill-rule="nonzero" fill="#d7d7d7" stroke="none" transform="matrix(1 0 0 1 481 568 )" />
  </g>
</svg>