<?xml version="1.0" encoding="utf-8"?>
<svg version="1.1" xmlns:xlink="http://www.w3.org/1999/xlink" width="15px" height="15px" xmlns="http://www.w3.org/2000/svg">
  <g transform="matrix(1 0 0 1 -680 -568 )">
    <path d="M 14.9933035714286 7.5  C 14.9933035714286 6.48716517857143  14.7907366071429 5.52287946428571  14.4274553571429 4.64229910714286  L 13.8381696428571 4.95033482142857  C 14.15625 5.73883928571429  14.3337053571429 6.59933035714286  14.3337053571429 7.5  C 14.3337053571429 11.2667410714286  11.2684151785714 14.33203125  7.50167410714286 14.33203125  C 3.73325892857143 14.33203125  0.66796875 11.2667410714286  0.66796875 7.5  C 0.66796875 3.95591517857143  3.38169642857143 1.03292410714286  6.84040178571429 0.699776785714286  L 6.84040178571429 0.0385044642857142  C 3.01171875 0.373325892857143  0.00669642857142867 3.58426339285714  0.00669642857142867 7.5  C 0.00669642857142867 11.6383928571429  3.36160714285714 14.9933035714286  7.5 14.9933035714286  C 11.6383928571429 14.9933035714286  14.9933035714286 11.6383928571429  14.9933035714286 7.5  Z " fill-rule="nonzero" fill="#aaaaaa" stroke="none" fill-opacity="0.466666666666667" transform="matrix(1 0 0 1 680 568 )" />
  </g>
</svg>