<?xml version="1.0" encoding="utf-8"?>
<svg version="1.1" xmlns:xlink="http://www.w3.org/1999/xlink" width="9px" height="9px" xmlns="http://www.w3.org/2000/svg">
  <g transform="matrix(1 0 0 1 -683 -571 )">
    <path d="M 0.523928571428572 4.5  C 0.523928571428572 2.52321428571429  1.97357142857143 0.879107142857143  3.86678571428571 0.575357142857143  L 3.86678571428571 0.0948214285714287  C 1.71 0.403392857142858  0.0482142857142857 2.26125  0.0482142857142857 4.5  C 0.0482142857142857 6.95410714285714  2.04589285714286 8.95178571428571  4.5 8.95178571428571  C 6.95410714285714 8.95178571428571  8.95178571428571 6.95410714285714  8.95178571428571 4.5  C 8.95178571428571 3.98732142857143  8.86339285714286 3.49392857142857  8.70267857142857 3.03428571428571  L 8.27678571428571 3.25767857142857  C 8.40535714285714 3.64982142857143  8.47607142857143 4.06607142857143  8.47607142857143 4.5  C 8.47607142857143 6.69214285714286  6.69214285714286 8.47607142857143  4.5 8.47607142857143  C 2.30785714285714 8.47607142857143  0.523928571428572 6.69214285714286  0.523928571428572 4.5  Z " fill-rule="nonzero" fill="#aaaaaa" stroke="none" fill-opacity="0.466666666666667" transform="matrix(1 0 0 1 683 571 )" />
  </g>
</svg>