<?xml version="1.0" encoding="utf-8"?>
<svg version="1.1" xmlns:xlink="http://www.w3.org/1999/xlink" width="8px" height="8px" xmlns="http://www.w3.org/2000/svg">
  <g transform="matrix(1 0 0 1 -687 -568 )">
    <path d="M 0.0714285714285714 7.2258064516129  C 0.0714285714285714 7.61774193548387  0.423214285714285 7.93548387096774  0.857142857142857 7.93548387096774  C 1.29107142857143 7.93548387096774  1.64285714285714 7.61774193548387  1.64285714285714 7.2258064516129  C 1.64285714285714 7.11129032258065  1.61071428571429 7.00483870967742  1.55714285714286 6.90967741935484  L 7.94642857142857 3.89516129032258  C 6.61428571428571 1.58548387096774  3.94107142857143 0.0064516129032259  0.857142857142857 0.0064516129032259  L 0.857142857142857 6.51612903225806  C 0.423214285714285 6.51612903225806  0.0714285714285714 6.83387096774194  0.0714285714285714 7.2258064516129  Z M 3.50357142857143 2.50806451612903  C 3.50357142857143 2.2758064516129  3.7125 2.08870967741936  3.96785714285714 2.08870967741936  C 4.22321428571429 2.08870967741936  4.43214285714286 2.2758064516129  4.43214285714286 2.50806451612903  C 4.43214285714286 2.73870967741935  4.225 2.92741935483871  3.96785714285714 2.92741935483871  C 3.7125 2.92741935483871  3.50357142857143 2.74032258064516  3.50357142857143 2.50806451612903  Z " fill-rule="nonzero" fill="#d7d7d7" stroke="none" transform="matrix(1 0 0 1 687 568 )" />
  </g>
</svg>