<?xml version="1.0" encoding="utf-8"?>
<svg version="1.1" xmlns:xlink="http://www.w3.org/1999/xlink" width="15px" height="15px" xmlns="http://www.w3.org/2000/svg">
  <g transform="matrix(1 0 0 1 -744 -568 )">
    <path d="M 14.8836836283186 11.9553650442478  C 14.8836836283186 11.6133849557522  14.6064159292035 11.3357853982301  14.264435840708 11.3357853982301  L 12.518860619469 11.3357853982301  L 12.518860619469 7.35431415929204  C 12.518860619469 7.01216814159292  12.2414269911504 6.73490044247788  11.8994469026549 6.73490044247788  C 11.5574668141593 6.73490044247788  11.2800331858407 7.01233407079646  11.2800331858407 7.35431415929204  L 11.2800331858407 11.3357853982301  L 4.79950221238938 11.3357853982301  L 12.5296460176991 3.40453539823009  C 12.7684181415929 3.15945796460177  12.7634402654867 2.76753318584071  12.5185287610619 2.52859513274336  C 12.2734513274336 2.2899889380531  11.8811946902655 2.29480088495575  11.6425884955752 2.54004424778761  L 3.95044247787611 10.4323008849558  L 3.95044247787611 3.78401548672566  L 7.46946902654867 3.78401548672566  C 7.81161504424779 3.78401548672566  8.08888274336283 3.50658185840708  8.08888274336283 3.16460176991151  C 8.08888274336283 2.82262168141593  7.81144911504425 2.54518805309735  7.46946902654867 2.54518805309735  L 3.95044247787611 2.54518805309735  L 3.95044247787611 0.737389380530973  C 3.95044247787611 0.395243362831858  3.67300884955752 0.117975663716814  3.33102876106195 0.117975663716814  C 2.98904867256637 0.117975663716814  2.71161504424779 0.395409292035398  2.71161504424779 0.737389380530973  L 2.71161504424779 2.54502212389381  L 0.636006637168142 2.54502212389381  C 0.293860619469026 2.54502212389381  0.0165929203539823 2.82245575221239  0.0165929203539823 3.16443584070797  C 0.0165929203539823 3.50641592920354  0.294026548672566 3.78384955752212  0.636006637168142 3.78384955752212  L 2.71144911504425 3.78384955752212  L 2.71144911504425 11.9551991150442  C 2.71144911504425 11.9565265486726  2.71161504424779 11.9578539823009  2.71161504424779 11.9591814159292  C 2.71161504424779 11.9648230088496  2.71178097345133 11.9704646017699  2.71211283185841 11.9761061946903  L 2.71261061946903 11.9902101769912  C 2.71294247787611 11.9951880530973  2.71327433628319 12.0003318584071  2.71377212389381 12.0053097345133  C 2.71426991150442 12.0106194690265  2.7146017699115 12.0159292035398  2.71509955752212 12.0210730088496  C 2.7154314159292 12.024889380531  2.71609513274336 12.0287057522124  2.71659292035398 12.0325221238938  C 2.71742256637168 12.0388274336283  2.71808628318584 12.0452986725664  2.71908185840708 12.0516039823009  L 2.72007743362832 12.0569137168142  C 2.72571902654867 12.0909292035398  2.7341814159292 12.1239491150442  2.74513274336283 12.1559734513274  L 2.74911504424779 12.1679203539823  C 2.74961283185841 12.1692477876106  2.75011061946903 12.1704092920354  2.75060840707965 12.1717367256637  C 2.77715707964602 12.2432522123894  2.81747787610619 12.3107853982301  2.87140486725664 12.3703539823009  C 2.87190265486726 12.3708517699115  2.87240044247788 12.3713495575221  2.87273230088496 12.3720132743363  C 2.87837389380531 12.3781526548673  2.8841814159292 12.3841261061947  2.8899889380531 12.3900995575221  L 2.89397123893805 12.3940818584071  C 2.89563053097345 12.3957411504425  2.89712389380531 12.3972345132743  2.89861725663717 12.3988938053097  C 2.90276548672566 12.4028761061947  2.90691371681416 12.4066924778761  2.91122787610619 12.4105088495575  C 2.91288716814159 12.4120022123894  2.91438053097345 12.4134955752212  2.91603982300885 12.4149889380531  C 2.92184734513274 12.4202986725664  2.92782079646018 12.4252765486726  2.93362831858407 12.4302544247788  C 2.93528761061947 12.4317477876106  2.93711283185841 12.4330752212389  2.93877212389381 12.4345685840708  C 2.94491150442478 12.439546460177  2.95105088495575 12.4443584070796  2.95735619469027 12.4491703539823  C 2.95901548672566 12.4503318584071  2.96067477876106 12.4516592920354  2.96233407079646 12.4528207964602  C 2.96880530973451 12.4576327433628  2.97527654867257 12.462278761062  2.98191371681416 12.4667588495575  L 2.98672566371681 12.4700774336283  C 2.99336283185841 12.4745575221239  3.00016592920354 12.4788716814159  3.00696902654867 12.4830199115044  C 3.00862831858407 12.4840154867257  3.01045353982301 12.4851769911504  3.01211283185841 12.4861725663717  C 3.01875 12.4901548672566  3.02555309734513 12.4941371681416  3.03235619469027 12.4977876106195  C 3.03434734513274 12.4989491150443  3.03650442477876 12.500110619469  3.03866150442478 12.5012721238938  C 3.04513274336283 12.5047566371681  3.05160398230089 12.5080752212389  3.05824115044248 12.5113938053097  C 3.06089601769912 12.5127212389381  3.06355088495575 12.5138827433628  3.06603982300885 12.5152101769912  C 3.07217920353982 12.5180309734513  3.0783185840708 12.5208517699115  3.08445796460177 12.5235066371682  C 3.08777654867257 12.525  3.09092920353982 12.5263274336283  3.09424778761062 12.5276548672566  C 3.09988938053097 12.5299778761062  3.10553097345133 12.5321349557522  3.11117256637168 12.5342920353982  L 3.12311946902655 12.5387721238938  C 3.12809734513274 12.5405973451328  3.13324115044248 12.5422566371681  3.13838495575221 12.5439159292035  L 3.15232300884956 12.5483960176991  L 3.16609513274336 12.5523783185841  C 3.1712389380531 12.5538716814159  3.17638274336283 12.5551991150443  3.18169247787611 12.5565265486726  L 3.19463495575221 12.5595132743363  C 3.20011061946903 12.5606747787611  3.20558628318584 12.5620022123894  3.21106194690266 12.5629977876106  C 3.21537610619469 12.5638274336283  3.21969026548673 12.5644911504425  3.22400442477876 12.5653207964602  C 3.22948008849558 12.5663163716814  3.23512168141593 12.5673119469027  3.24059734513274 12.5681415929204  C 3.24524336283186 12.5688053097345  3.24988938053097 12.5693030973451  3.25470132743363 12.5699668141593  C 3.25984513274336 12.5706305309735  3.26515486725664 12.5712942477876  3.27046460176991 12.5717920353982  C 3.27610619469027 12.5722898230089  3.28191371681416 12.5726216814159  3.28772123893805 12.5731194690266  C 3.29203539823009 12.5734513274336  3.29618362831858 12.5737831858407  3.30049778761062 12.5739491150443  C 3.31061946902655 12.5744469026549  3.32074115044248 12.574778761062  3.33086283185841 12.574778761062  L 11.2798672566372 12.574778761062  L 11.2798672566372 14.3656526548673  C 11.2798672566372 14.7077986725664  11.5573008849558 14.9850663716814  11.8992809734513 14.9850663716814  C 12.2412610619469 14.9850663716814  12.5186946902655 14.7076327433628  12.5186946902655 14.3656526548673  L 12.5186946902655 12.5747787610619  L 14.2642699115044 12.5747787610619  C 14.6064159292035 12.5747787610619  14.8836836283186 12.2973451327434  14.8836836283186 11.9553650442478  Z " fill-rule="nonzero" fill="#d7d7d7" stroke="none" transform="matrix(1 0 0 1 744 568 )" />
  </g>
</svg>