<?xml version="1.0" encoding="utf-8"?>
<svg version="1.1" xmlns:xlink="http://www.w3.org/1999/xlink" width="15px" height="15px" xmlns="http://www.w3.org/2000/svg">
  <g transform="matrix(1 0 0 1 -611 -568 )">
    <path d="M 0.0925925868055555 7.5  C 0.0925925868055555 3.40907407986111  3.40907407986111 0.0925925868055555  7.5 0.0925925868055555  C 11.5909259201389 0.0925925868055555  14.9074074131944 3.4090740625  14.9074074131944 7.5  C 14.9074074131944 11.5909259375  11.5909259201389 14.9074074131944  7.5 14.9074074131944  C 3.40907407986111 14.9074074131944  0.0925925868055555 11.5909259201389  0.0925925868055555 7.5  Z M 13.7962963020833 7.5  C 13.7962963020833 4.02259258680555  10.9774074131944 1.20370369791667  7.5 1.20370369791667  C 4.02259258680555 1.20370369791667  1.20370369791667 4.02259258680555  1.20370369791667 7.5  C 1.20370369791667 10.9774074131944  4.02259258680555 13.7962963020833  7.5 13.7962963020833  C 10.9774074131944 13.7962963020833  13.7962963020833 10.9774074131944  13.7962963020833 7.5  Z M 7.68518519097222 6.57407407986111  C 7.68518519097222 5.55129630208333  8.51425927083333 4.72222222222222  9.53703703125 4.72222222222222  C 10.5598148090278 4.72222222222222  11.3888888888889 5.55129630208333  11.3888888888889 6.57407407986111  C 11.3888813017016 7.09402143068498  11.1525115718338 7.58577130606768  10.7464814756944 7.91055555555556  L 9.63925925347222 8.79629630208333  L 11.0185185243056 8.79629630208333  C 11.3253433853227 8.79629630208333  11.5740740798611 9.04502699662178  11.5740740798611 9.35185185763889  C 11.5740740798611 9.658676718656  11.3253433853227 9.90740741319444  11.0185185243056 9.90740741319444  L 8.05555555555556 9.90740741319444  C 7.53037036458333 9.90740741319444  7.29851852430556 9.24611111111111  7.70851852430556 8.91796296875  L 10.0524074131944 7.04277777777778  C 10.1948133024183 6.92887718019119  10.2777335786723 6.7564275318785  10.2777777777778 6.57407407986111  C 10.2777777864583 6.16486085967431  9.94613685781612 5.8332199310321  9.53703703993055 5.8332199310321  C 9.12793722204499 5.8332199310321  8.79629629340278 6.16486085967431  8.79629629340278 6.57396067755988  C 8.79629630208333 6.88089894087822  8.54756560754488 7.12962963541667  8.24074074652778 7.12962963541667  C 7.93391588551067 7.12962963541667  7.68518519097222 6.88089894087822  7.68518519097222 6.57407407986111  Z M 3.56370369791667 6.76351852430556  L 3.58870369791667 6.73685185763889  C 3.80564805985323 6.51997300300952  4.15731489153566 6.51997300300952  4.37425925347222 6.73685185763889  L 5.09259258680556 7.455  L 5.81092592013889 6.73685185763889  C 6.01783798351485 6.52998025223492  6.34973622987264 6.51904656183514  6.56981480902778 6.71185185763889  L 6.59648147569444 6.73685185763889  C 6.81336033032381 6.95379621957545  6.81336033032381 7.30546305125788  6.59648147569444 7.52240741319444  L 5.87833333333333 8.24074074652778  L 6.59648147569444 8.95907407986111  C 6.80335308109841 9.16598614323708  6.81428677149819 9.49788438959486  6.62148147569444 9.71796296875  L 6.59648147569444 9.74462963541666  C 6.37953711375788 9.96150849004603  6.02787028207545 9.96150849004603  5.81092592013889 9.74462963541666  L 5.09259258680556 9.02648147569445  L 4.37425925347222 9.74462963541666  C 4.16734719009626 9.95150124082064  3.83544894373847 9.96243493122042  3.61537036458333 9.76962963541667  L 3.58870369791667 9.74462963541666  C 3.3718248432873 9.5276852734801  3.3718248432873 9.17601844179767  3.58870369791667 8.95907407986111  L 4.30685185763889 8.24074074652778  L 3.58870369791667 7.52240741319444  C 3.3818320925127 7.31549534981848  3.37089840211292 6.98359710346069  3.56370369791667 6.76351852430556  Z " fill-rule="nonzero" fill="#d7d7d7" stroke="none" transform="matrix(1 0 0 1 611 568 )" />
  </g>
</svg>