<?xml version="1.0" encoding="utf-8"?>
<svg version="1.1" xmlns:xlink="http://www.w3.org/1999/xlink" width="15px" height="15px" xmlns="http://www.w3.org/2000/svg">
  <g transform="matrix(1 0 0 1 -810 -568 )">
    <path d="M 4.13020948242188 4.81136046259843  L 2.67651599121094 3.83460053149606  C 3.78191841796875 2.3661269734252  5.52866594238281 1.41570289370079  7.5 1.41570289370079  C 10.13947078125 1.41570289370079  12.379382578125 3.11819878937008  13.2125689013672 5.49109203248032  L 14.6262403564453 5.49109203248032  C 13.7450937158203 2.35612601870079  10.8916207324219 0.0572398375984252  7.49966923828125 0.0572398375984252  C 5.06063947265625 0.0572398375984252  2.90474090332031 1.2493536761811  1.55556780761719 3.08186198326772  L 0.0866593212890625 2.09510109744094  L 0.0866593212890625 6.84922170767717  L 4.13020948242188 4.81136046259843  Z M 14.9126791552734 8.20768476377953  L 10.8694597558594 10.2452126574803  L 12.3231532470703 11.2223059547244  C 11.2177508203125 12.6907795127953  9.47100329589844 13.6412035925197  7.5 13.6412035925197  C 4.86019845703125 13.6412035925197  2.62094818359375 11.9387076968504  1.78743109863281 9.56581443897638  L 0.373098120117188 9.56581443897638  C 1.25424476074219 12.7007804527559  4.10738698242188 14.9996666338583  7.49966923828125 14.9996666338583  C 9.93869900390625 14.9996666338583  12.0945975732422 13.8075528100394  13.4434399072266 11.975044488189  L 14.9126791552734 12.9618053740157  L 14.9126791552734 8.20768476377953  Z M 10.1703322922225 6.16999658398761  C 10.1703322922225 5.80466912601644  9.88381979947954 5.50467934087003  9.52160970703125 5.49075866633858  L 5.47839029296875 5.49075866633858  C 5.10619177945552 5.49075866633858  4.80446526855469 5.79486097653785  4.80446526855469 6.16999018700787  C 4.80446526855469 6.5451193974779  5.10619177945552 6.84922170767717  5.47839029296875 6.84922170767717  L 9.52194046875 6.84922170767717  C 9.88401557777432 6.83512685175176  10.1703322922225 6.53519477558225  10.1703322922225 6.16999658398761  Z M 9.52160970703125 8.20768476377953  L 5.47839029296875 8.20768476377953  C 5.10619177945552 8.20768476377953  4.80446526855469 8.51178707397879  4.80446526855469 8.88691628444882  C 4.80446526855469 9.26204549491885  5.10619177945552 9.56614780511811  5.47839029296875 9.56614780511811  L 9.52194046875 9.56614780511811  C 9.89407439866267 9.56605576457359  10.1957001325969 9.26198041407935  10.1957001325969 8.88691628444882  C 10.1957001325969 8.51178706268348  9.89397361261093 8.20768474332756  9.52177508789063 8.20768474332756  Z " fill-rule="nonzero" fill="#aaaaaa" stroke="none" fill-opacity="0.466666666666667" transform="matrix(1 0 0 1 810 568 )" />
  </g>
</svg>